<?xml version="1.0" encoding="UTF-8" standalone="no"?>
<!DOCTYPE svg PUBLIC "-//W3C//DTD SVG 1.1//EN" "http://www.w3.org/Graphics/SVG/1.1/DTD/svg11.dtd">
<svg width="100%" height="100%" viewBox="0 0 1904 1112" version="1.1" xmlns="http://www.w3.org/2000/svg" xmlns:xlink="http://www.w3.org/1999/xlink" xml:space="preserve" xmlns:serif="http://www.serif.com/" style="fill-rule:evenodd;clip-rule:evenodd;stroke-linejoin:round;stroke-miterlimit:2;">
    <g transform="matrix(1,0,0,1,-6524,-1087.88)">
        <g id="Coffee-Coworking" serif:id="Coffee&amp;Coworking" transform="matrix(1.76296,0,0,1.02963,4579.45,1087.88)">
            <rect x="1103" y="0" width="1080" height="1080" style="fill:none;"/>
            <g transform="matrix(0.238941,-0.168179,0.0982223,0.409121,1205.14,543.669)">
                <circle cx="443.619" cy="242.381" r="138.619" style="fill:rgb(249,160,62);"/>
            </g>
            <g transform="matrix(0.238941,-0.168179,0.0982223,0.409121,1266.4,386.609)">
                <circle cx="443.619" cy="242.381" r="138.619" style="fill:rgb(246,69,141);"/>
            </g>
            <g transform="matrix(0.238941,-0.168179,0.0982223,0.409121,1373.61,425.095)">
                <circle cx="443.619" cy="242.381" r="138.619" style="fill:rgb(57,220,198);"/>
            </g>
            <g transform="matrix(0.639724,0,0,1.09536,1464.36,-236.207)">
                <path d="M-71.458,812.454C-71.458,801.71 -69.134,792.128 -64.485,783.708C-59.836,775.289 -53.353,768.729 -45.037,764.028C-36.721,759.328 -27.294,756.978 -16.757,756.978C-3.843,756.978 7.211,760.387 16.405,767.205C25.599,774.023 31.746,783.321 34.845,795.098L5.713,795.098C3.543,790.553 0.47,787.092 -3.508,784.716C-7.485,782.34 -12.005,781.152 -17.067,781.152C-25.228,781.152 -31.84,783.992 -36.902,789.674C-41.964,795.356 -44.495,802.949 -44.495,812.454C-44.495,821.958 -41.964,829.551 -36.902,835.233C-31.84,840.915 -25.228,843.756 -17.067,843.756C-12.005,843.756 -7.485,842.568 -3.508,840.192C0.47,837.816 3.543,834.355 5.713,829.809L34.845,829.809C31.746,841.586 25.599,850.858 16.405,857.625C7.211,864.391 -3.843,867.775 -16.757,867.775C-27.294,867.775 -36.721,865.425 -45.037,860.724C-53.353,856.024 -59.836,849.489 -64.485,841.121C-69.134,832.754 -71.458,823.198 -71.458,812.454Z" style="fill:rgb(44,31,113);fill-rule:nonzero;"/>
            </g>
            <g transform="matrix(0.639724,0,0,1.09536,1464.36,-236.207)">
                <path d="M102.563,868.085C92.336,868.085 82.961,865.709 74.438,860.957C65.915,856.204 59.148,849.567 54.138,841.044C49.128,832.521 46.622,822.939 46.622,812.299C46.622,801.658 49.128,792.102 54.138,783.631C59.148,775.16 65.915,768.548 74.438,763.796C82.961,759.044 92.336,756.668 102.563,756.668C112.791,756.668 122.166,759.044 130.689,763.796C139.212,768.548 145.927,775.16 150.834,783.631C155.741,792.102 158.194,801.658 158.194,812.299C158.194,822.939 155.715,832.521 150.756,841.044C145.797,849.567 139.083,856.204 130.611,860.957C122.14,865.709 112.791,868.085 102.563,868.085ZM102.563,843.911C111.241,843.911 118.189,841.018 123.406,835.233C128.623,829.448 131.231,821.803 131.231,812.299C131.231,802.691 128.623,795.021 123.406,789.287C118.189,783.553 111.241,780.687 102.563,780.687C93.782,780.687 86.783,783.528 81.566,789.21C76.349,794.891 73.741,802.588 73.741,812.299C73.741,821.906 76.349,829.577 81.566,835.31C86.783,841.044 93.782,843.911 102.563,843.911Z" style="fill:rgb(44,31,113);fill-rule:nonzero;"/>
            </g>
            <g transform="matrix(0.639724,0,0,1.09536,1464.36,-236.207)">
                <path d="M243.733,758.217L243.733,779.447L199.414,779.447L199.414,802.381L232.576,802.381L232.576,822.991L199.414,822.991L199.414,867L172.916,867L172.916,758.217L243.733,758.217Z" style="fill:rgb(44,31,113);fill-rule:nonzero;"/>
            </g>
            <g transform="matrix(0.639724,0,0,1.09536,1464.36,-236.207)">
                <path d="M328.497,758.217L328.497,779.447L284.178,779.447L284.178,802.381L317.339,802.381L317.339,822.991L284.178,822.991L284.178,867L257.679,867L257.679,758.217L328.497,758.217Z" style="fill:rgb(44,31,113);fill-rule:nonzero;"/>
            </g>
            <g transform="matrix(0.639724,0,0,1.09536,1464.36,-236.207)">
                <path d="M368.942,779.447L368.942,801.451L404.428,801.451L404.428,821.906L368.942,821.906L368.942,845.77L409.076,845.77L409.076,867L342.443,867L342.443,758.217L409.076,758.217L409.076,779.447L368.942,779.447Z" style="fill:rgb(44,31,113);fill-rule:nonzero;"/>
            </g>
            <g transform="matrix(0.639724,0,0,1.09536,1464.36,-236.207)">
                <path d="M452.776,779.447L452.776,801.451L488.262,801.451L488.262,821.906L452.776,821.906L452.776,845.77L492.91,845.77L492.91,867L426.277,867L426.277,758.217L492.91,758.217L492.91,779.447L452.776,779.447Z" style="fill:rgb(44,31,113);fill-rule:nonzero;"/>
            </g>
            <g transform="matrix(0.639724,0,0,1.09536,1464.36,-236.207)">
                <path d="M626.177,867L616.105,857.237C606.084,864.882 594.1,868.705 580.154,868.705C571.786,868.705 564.503,867.336 558.304,864.598C552.106,861.86 547.328,857.986 543.97,852.976C540.613,847.966 538.934,842.103 538.934,835.388C538.934,828.57 540.768,822.397 544.435,816.87C548.102,811.343 553.604,806.823 560.938,803.311C558.252,800.005 556.341,796.828 555.205,793.781C554.068,790.733 553.5,787.402 553.5,783.786C553.5,778.62 554.843,773.92 557.529,769.684C560.215,765.449 564.115,762.117 569.229,759.689C574.343,757.262 580.412,756.048 587.437,756.048C594.565,756.048 600.608,757.339 605.567,759.922C610.526,762.505 614.245,765.965 616.724,770.304C619.204,774.643 620.34,779.395 620.134,784.561L595.185,784.561C595.288,781.771 594.591,779.628 593.093,778.13C591.595,776.632 589.606,775.883 587.127,775.883C584.647,775.883 582.581,776.606 580.928,778.052C579.275,779.499 578.449,781.358 578.449,783.631C578.449,785.8 579.146,788.073 580.541,790.449C581.936,792.825 584.131,795.563 587.127,798.662L613.625,824.541C613.832,824.024 614.116,823.404 614.477,822.681C614.839,821.958 615.226,821.132 615.64,820.202L621.373,810.439L647.872,810.439L640.433,823.921C637.644,830.016 634.442,835.801 630.826,841.276L657.014,867L626.177,867ZM581.393,847.32C588.315,847.32 594.462,845.357 599.834,841.431L575.66,818.032C568.222,821.855 564.503,827.02 564.503,833.528C564.503,837.454 566.026,840.734 569.074,843.368C572.121,846.003 576.228,847.32 581.393,847.32Z" style="fill:rgb(44,31,113);fill-rule:nonzero;"/>
            </g>
            <g transform="matrix(0.639724,0,0,1.09536,1464.36,-236.207)">
                <path d="M-71.458,954.59C-71.458,943.846 -69.134,934.264 -64.485,925.845C-59.836,917.425 -53.353,910.865 -45.037,906.165C-36.721,901.464 -27.294,899.114 -16.757,899.114C-3.843,899.114 7.211,902.523 16.405,909.341C25.599,916.16 31.746,925.457 34.845,937.234L5.713,937.234C3.543,932.689 0.47,929.228 -3.508,926.852C-7.485,924.476 -12.005,923.288 -17.067,923.288C-25.228,923.288 -31.84,926.129 -36.902,931.811C-41.964,937.493 -44.495,945.086 -44.495,954.59C-44.495,964.094 -41.964,971.688 -36.902,977.369C-31.84,983.051 -25.228,985.892 -17.067,985.892C-12.005,985.892 -7.485,984.704 -3.508,982.328C0.47,979.952 3.543,976.491 5.713,971.946L34.845,971.946C31.746,983.723 25.599,992.995 16.405,999.761C7.211,1006.53 -3.843,1009.91 -16.757,1009.91C-27.294,1009.91 -36.721,1007.56 -45.037,1002.86C-53.353,998.16 -59.836,991.626 -64.485,983.258C-69.134,974.89 -71.458,965.334 -71.458,954.59Z" style="fill:rgb(44,31,113);fill-rule:nonzero;"/>
            </g>
            <g transform="matrix(0.639724,0,0,1.09536,1464.36,-236.207)">
                <path d="M102.563,1010.22C92.336,1010.22 82.961,1007.85 74.438,1003.09C65.915,998.341 59.148,991.703 54.138,983.18C49.128,974.658 46.622,965.076 46.622,954.435C46.622,943.795 49.128,934.239 54.138,925.767C59.148,917.296 65.915,910.684 74.438,905.932C82.961,901.18 92.336,898.804 102.563,898.804C112.791,898.804 122.166,901.18 130.689,905.932C139.212,910.684 145.927,917.296 150.834,925.767C155.741,934.239 158.194,943.795 158.194,954.435C158.194,965.076 155.715,974.658 150.756,983.18C145.797,991.703 139.083,998.341 130.611,1003.09C122.14,1007.85 112.791,1010.22 102.563,1010.22ZM102.563,986.047C111.241,986.047 118.189,983.155 123.406,977.369C128.623,971.584 131.231,963.939 131.231,954.435C131.231,944.828 128.623,937.157 123.406,931.423C118.189,925.69 111.241,922.823 102.563,922.823C93.782,922.823 86.783,925.664 81.566,931.346C76.349,937.028 73.741,944.724 73.741,954.435C73.741,964.043 76.349,971.713 81.566,977.447C86.783,983.18 93.782,986.047 102.563,986.047Z" style="fill:rgb(44,31,113);fill-rule:nonzero;"/>
            </g>
            <g transform="matrix(0.639724,0,0,1.09536,1464.36,-236.207)">
                <path d="M322.608,900.354L294.25,1009.14L262.173,1009.14L244.818,937.544L226.842,1009.14L194.765,1009.14L167.182,900.354L195.54,900.354L211.191,979.539L230.561,900.354L259.694,900.354L278.289,979.539L294.095,900.354L322.608,900.354Z" style="fill:rgb(44,31,113);fill-rule:nonzero;"/>
            </g>
            <g transform="matrix(0.639724,0,0,1.09536,1464.36,-236.207)">
                <path d="M387.382,1010.22C377.154,1010.22 367.779,1007.85 359.256,1003.09C350.734,998.341 343.967,991.703 338.957,983.18C333.946,974.658 331.441,965.076 331.441,954.435C331.441,943.795 333.946,934.239 338.957,925.767C343.967,917.296 350.734,910.684 359.256,905.932C367.779,901.18 377.154,898.804 387.382,898.804C397.609,898.804 406.985,901.18 415.507,905.932C424.03,910.684 430.745,917.296 435.652,925.767C440.559,934.239 443.013,943.795 443.013,954.435C443.013,965.076 440.534,974.658 435.575,983.18C430.616,991.703 423.901,998.341 415.43,1003.09C406.959,1007.85 397.609,1010.22 387.382,1010.22ZM387.382,986.047C396.06,986.047 403.007,983.155 408.224,977.369C413.441,971.584 416.05,963.939 416.05,954.435C416.05,944.828 413.441,937.157 408.224,931.423C403.007,925.69 396.06,922.823 387.382,922.823C378.601,922.823 371.602,925.664 366.385,931.346C361.168,937.028 358.559,944.724 358.559,954.435C358.559,964.043 361.168,971.713 366.385,977.447C371.602,983.18 378.601,986.047 387.382,986.047Z" style="fill:rgb(44,31,113);fill-rule:nonzero;"/>
            </g>
            <g transform="matrix(0.639724,0,0,1.09536,1464.36,-236.207)">
                <path d="M513.21,1009.14L490.586,968.072L484.233,968.072L484.233,1009.14L457.734,1009.14L457.734,900.354L502.208,900.354C510.783,900.354 518.092,901.852 524.135,904.848C530.179,907.844 534.698,911.95 537.694,917.167C540.69,922.384 542.188,928.195 542.188,934.6C542.188,941.832 540.148,948.288 536.067,953.97C531.986,959.652 525.969,963.681 518.014,966.057L543.118,1009.14L513.21,1009.14ZM484.233,949.321L500.659,949.321C505.514,949.321 509.156,948.133 511.583,945.757C514.011,943.381 515.225,940.024 515.225,935.685C515.225,931.553 514.011,928.298 511.583,925.922C509.156,923.546 505.514,922.358 500.659,922.358L484.233,922.358L484.233,949.321Z" style="fill:rgb(44,31,113);fill-rule:nonzero;"/>
            </g>
            <g transform="matrix(0.639724,0,0,1.09536,1464.36,-236.207)">
                <path d="M621.838,1009.14L585.267,961.099L585.267,1009.14L558.769,1009.14L558.769,900.354L585.267,900.354L585.267,948.082L621.528,900.354L652.675,900.354L610.526,953.66L654.225,1009.14L621.838,1009.14Z" style="fill:rgb(44,31,113);fill-rule:nonzero;"/>
            </g>
            <g transform="matrix(0.639724,0,0,1.09536,1464.36,-236.207)">
                <rect x="666.777" y="900.354" width="26.498" height="108.783" style="fill:rgb(44,31,113);fill-rule:nonzero;"/>
            </g>
            <g transform="matrix(0.639724,0,0,1.09536,1464.36,-236.207)">
                <path d="M809.806,1009.14L783.308,1009.14L738.989,942.038L738.989,1009.14L712.49,1009.14L712.49,900.354L738.989,900.354L783.308,967.762L783.308,900.354L809.806,900.354L809.806,1009.14Z" style="fill:rgb(44,31,113);fill-rule:nonzero;"/>
            </g>
            <g transform="matrix(0.639724,0,0,1.09536,1464.36,-236.207)">
                <path d="M901.233,934.755C899.27,931.139 896.455,928.376 892.788,926.465C889.12,924.554 884.807,923.598 879.848,923.598C871.274,923.598 864.404,926.413 859.239,932.043C854.073,937.674 851.491,945.189 851.491,954.59C851.491,964.611 854.202,972.437 859.626,978.067C865.05,983.697 872.514,986.512 882.018,986.512C888.526,986.512 894.027,984.859 898.521,981.553C903.015,978.248 906.295,973.495 908.361,967.297L874.735,967.297L874.735,947.772L932.38,947.772L932.38,972.411C930.417,979.022 927.086,985.169 922.385,990.851C917.685,996.533 911.719,1001.13 904.487,1004.64C897.256,1008.15 889.094,1009.91 880.003,1009.91C869.259,1009.91 859.678,1007.56 851.258,1002.86C842.839,998.16 836.279,991.626 831.578,983.258C826.878,974.89 824.527,965.334 824.527,954.59C824.527,943.846 826.878,934.264 831.578,925.845C836.279,917.425 842.813,910.865 851.181,906.165C859.549,901.464 869.104,899.114 879.848,899.114C892.865,899.114 903.842,902.265 912.778,908.567C921.714,914.868 927.628,923.598 930.521,934.755L901.233,934.755Z" style="fill:rgb(44,31,113);fill-rule:nonzero;"/>
            </g>
            <g transform="matrix(-0.548295,-0.39738,0.232083,-0.938807,2182.91,2903.45)">
                <path d="M2275.13,1387.37C2274.7,1387.7 2274.3,1388.07 2273.91,1388.45C2273.91,1388.45 2273.91,1388.45 2273.91,1388.45C2262.81,1399.56 2262.27,1417.39 2272.69,1429.14C2319.15,1482.02 2344.97,1550.18 2344.97,1621C2344.97,1781.59 2214.59,1911.97 2054,1911.97C1983.22,1911.97 1915.1,1886.18 1862.2,1839.8C1850.88,1829.79 1833.99,1829.87 1822.81,1839.72C1822.3,1840.1 1821.84,1840.53 1821.38,1840.99L1821.38,1840.99C1815.88,1846.49 1812.88,1854.02 1813.09,1861.8C1813.3,1869.58 1816.7,1876.93 1822.49,1882.13C1822.51,1882.14 1822.52,1882.15 1822.54,1882.17C1886.2,1938.54 1968.48,1969.93 2054,1969.93C2246.58,1969.93 2402.93,1813.58 2402.93,1621C2402.93,1535.52 2371.57,1453.27 2315.21,1389.64C2315.19,1389.63 2315.18,1389.62 2315.17,1389.6C2309.96,1383.8 2302.6,1380.39 2294.8,1380.18C2287.54,1379.98 2280.51,1382.57 2275.13,1387.37Z" style="fill:rgb(44,31,113);"/>
            </g>
        </g>
    </g>
</svg>
