<?xml version="1.0" encoding="UTF-8" standalone="no"?>
<!DOCTYPE svg PUBLIC "-//W3C//DTD SVG 1.1//EN" "http://www.w3.org/Graphics/SVG/1.1/DTD/svg11.dtd">
<svg width="100%" height="100%" viewBox="0 0 188368 67872" version="1.1" xmlns="http://www.w3.org/2000/svg" xmlns:xlink="http://www.w3.org/1999/xlink" xml:space="preserve" xmlns:serif="http://www.serif.com/" style="fill-rule:evenodd;clip-rule:evenodd;stroke-linecap:round;stroke-linejoin:round;stroke-miterlimit:1.5;">
    <g transform="matrix(1,0,0,1,-220970,0)">
        <g transform="matrix(75.9449,0,0,27.364,220970,0)">
            <rect id="My-Boardroom" serif:id="My Boardroom" x="0" y="0" width="2480.32" height="2480.32" style="fill:none;"/>
            <g id="My-Boardroom1" serif:id="My Boardroom">
                <g transform="matrix(2.12191,0,0,5.88906,447.16,1240.16)">
                    <g transform="matrix(1,0,0,1,-94.5,-91)">
                        <g>
                            <circle cx="94.114" cy="97.722" r="73.722" style="fill:none;stroke:rgb(44,27,115);stroke-width:14.69px;"/>
                            <circle cx="94.114" cy="24" r="24" style="fill:rgb(42,221,198);"/>
                            <circle cx="24" cy="74.941" r="24" style="fill:rgb(42,221,198);"/>
                            <circle cx="164.229" cy="74.941" r="24" style="fill:rgb(42,221,198);"/>
                            <circle cx="137.447" cy="157.365" r="24" style="fill:rgb(42,221,198);"/>
                            <circle cx="50.781" cy="157.365" r="24" style="fill:rgb(42,221,198);"/>
                        </g>
                    </g>
                </g>
                <g transform="matrix(2.39879,0,0,1.6291,686.518,692.491)">
                    <path d="M145.963,229.59L145.963,443.708L133.2,443.708L133.2,315.298L121.483,443.708L111.183,443.708L99.39,314.993L99.39,443.708L86.627,443.708L86.627,229.59L101.704,229.59L116.407,377.826L130.961,229.59L145.963,229.59Z" style="fill:rgb(44,27,115);fill-rule:nonzero;"/>
                    <path d="M197.686,273.512L171.563,524.536L157.83,524.536L167.384,437.913L150.441,273.512L164.697,273.512L174.325,379.961L183.878,273.512L197.686,273.512Z" style="fill:rgb(44,27,115);fill-rule:nonzero;"/>
                    <path d="M249.857,333.904C252.892,336.547 255.33,342.698 257.171,352.357C259.012,362.016 259.933,373.047 259.933,385.451C259.933,403.345 258.403,417.528 255.343,428C252.282,438.472 248.016,443.708 242.542,443.708L218.136,443.708L218.136,229.59L241.721,229.59C247.045,229.59 251.213,234.572 254.223,244.536C257.233,254.5 258.738,268.022 258.738,285.102C258.738,297.709 257.93,308.181 256.313,316.518C254.696,324.855 252.544,330.651 249.857,333.904ZM230.899,316.213L239.258,316.213C241.348,316.213 242.953,314.332 244.072,310.571C245.192,306.809 245.752,301.268 245.752,293.948C245.752,286.627 245.192,281.036 244.072,277.172C242.953,273.309 241.348,271.377 239.258,271.377L230.899,271.377L230.899,316.213ZM240.303,401.616C242.443,401.616 244.097,399.634 245.267,395.669C246.436,391.703 247.021,385.959 247.021,378.436C247.021,370.912 246.411,365.015 245.192,360.745C243.973,356.475 242.294,354.34 240.154,354.34L230.899,354.34L230.899,401.616L240.303,401.616Z" style="fill:rgb(44,27,115);fill-rule:nonzero;"/>
                    <path d="M286.279,446.148C282.199,446.148 278.53,442.589 275.27,435.472C272.011,428.356 269.449,418.189 267.583,404.971C265.717,391.754 264.784,376.3 264.784,358.61C264.784,341.123 265.729,325.72 267.62,312.401C269.511,299.082 272.098,288.864 275.382,281.747C278.666,274.63 282.348,271.072 286.429,271.072C290.509,271.072 294.191,274.63 297.475,281.747C300.759,288.864 303.346,299.082 305.237,312.401C307.128,325.72 308.073,341.123 308.073,358.61C308.073,376.097 307.115,391.5 305.2,404.819C303.284,418.138 300.672,428.356 297.363,435.472C294.054,442.589 290.359,446.148 286.279,446.148ZM286.279,401.006C288.717,401.006 290.795,397.346 292.511,390.026C294.228,382.706 295.086,372.234 295.086,358.61C295.086,344.986 294.253,334.514 292.586,327.194C290.919,319.874 288.867,316.213 286.429,316.213C283.941,316.213 281.876,319.823 280.234,327.041C278.592,334.26 277.771,344.783 277.771,358.61C277.771,372.234 278.579,382.706 280.196,390.026C281.814,397.346 283.841,401.006 286.279,401.006Z" style="fill:rgb(44,27,115);fill-rule:nonzero;"/>
                    <path d="M312.327,358.305C312.327,340.818 313.136,325.465 314.753,312.248C316.37,299.031 318.572,288.864 321.358,281.747C324.145,274.63 327.255,271.072 330.688,271.072C333.623,271.072 336.198,273.512 338.413,278.392C340.627,283.272 342.331,289.677 343.525,297.608L343.525,273.512L356.288,273.512L356.288,443.708L343.525,443.708L343.525,419.612C342.281,427.542 340.552,433.947 338.338,438.828C336.124,443.708 333.549,446.148 330.613,446.148C327.23,446.148 324.145,442.539 321.358,435.32C318.572,428.101 316.37,417.833 314.753,404.514C313.136,391.195 312.327,375.792 312.327,358.305ZM343.525,358.61C343.525,345.596 342.642,335.327 340.876,327.804C339.109,320.28 336.957,316.518 334.42,316.518C331.882,316.518 329.73,320.229 327.964,327.651C326.197,335.073 325.314,345.291 325.314,358.305C325.314,371.319 326.197,381.638 327.964,389.263C329.73,396.889 331.882,400.701 334.42,400.701C336.957,400.701 339.109,396.939 340.876,389.416C342.642,381.892 343.525,371.624 343.525,358.61Z" style="fill:rgb(44,27,115);fill-rule:nonzero;"/>
                    <path d="M378.306,301.878C379.798,292.524 381.664,285.153 383.903,279.765C386.142,274.376 388.63,271.682 391.367,271.682L391.367,326.889L387.859,326.889C384.675,326.889 382.286,329.685 380.694,335.277C379.102,340.868 378.306,350.68 378.306,364.71L378.306,443.708L365.543,443.708L365.543,273.512L378.306,273.512L378.306,301.878Z" style="fill:rgb(44,27,115);fill-rule:nonzero;"/>
                    <path d="M394.95,358.305C394.95,340.818 395.758,325.465 397.375,312.248C398.992,299.031 401.194,288.864 403.981,281.747C406.767,274.63 409.877,271.072 413.31,271.072C416.047,271.072 418.547,273.41 420.811,278.087C423.075,282.764 424.854,289.067 426.147,296.998L426.147,218L438.91,218L438.91,443.708L426.147,443.708L426.147,419.307C424.953,427.441 423.249,433.947 421.035,438.828C418.821,443.708 416.246,446.148 413.31,446.148C409.877,446.148 406.767,442.539 403.981,435.32C401.194,428.101 398.992,417.833 397.375,404.514C395.758,391.195 394.95,375.792 394.95,358.305ZM426.147,358.61C426.147,345.596 425.264,335.327 423.498,327.804C421.731,320.28 419.579,316.518 417.042,316.518C414.504,316.518 412.352,320.229 410.586,327.651C408.819,335.073 407.936,345.291 407.936,358.305C407.936,371.319 408.819,381.638 410.586,389.263C412.352,396.889 414.504,400.701 417.042,400.701C419.579,400.701 421.731,396.939 423.498,389.416C425.264,381.892 426.147,371.624 426.147,358.61Z" style="fill:rgb(44,27,115);fill-rule:nonzero;"/>
                    <path d="M460.928,301.878C462.421,292.524 464.287,285.153 466.526,279.765C468.765,274.376 471.253,271.682 473.989,271.682L473.989,326.889L470.481,326.889C467.297,326.889 464.909,329.685 463.316,335.277C461.724,340.868 460.928,350.68 460.928,364.71L460.928,443.708L448.165,443.708L448.165,273.512L460.928,273.512L460.928,301.878Z" style="fill:rgb(44,27,115);fill-rule:nonzero;"/>
                    <path d="M499.067,446.148C494.987,446.148 491.317,442.589 488.058,435.472C484.799,428.356 482.237,418.189 480.371,404.971C478.505,391.754 477.572,376.3 477.572,358.61C477.572,341.123 478.517,325.72 480.408,312.401C482.299,299.082 484.886,288.864 488.17,281.747C491.454,274.63 495.136,271.072 499.216,271.072C503.296,271.072 506.978,274.63 510.262,281.747C513.546,288.864 516.134,299.082 518.025,312.401C519.915,325.72 520.861,341.123 520.861,358.61C520.861,376.097 519.903,391.5 517.987,404.819C516.072,418.138 513.459,428.356 510.15,435.472C506.842,442.589 503.147,446.148 499.067,446.148ZM499.067,401.006C501.505,401.006 503.583,397.346 505.299,390.026C507.016,382.706 507.874,372.234 507.874,358.61C507.874,344.986 507.041,334.514 505.374,327.194C503.707,319.874 501.654,316.213 499.216,316.213C496.728,316.213 494.663,319.823 493.021,327.041C491.379,334.26 490.558,344.783 490.558,358.61C490.558,372.234 491.367,382.706 492.984,390.026C494.601,397.346 496.629,401.006 499.067,401.006Z" style="fill:rgb(44,27,115);fill-rule:nonzero;"/>
                    <path d="M546.61,446.148C542.53,446.148 538.861,442.589 535.601,435.472C532.342,428.356 529.78,418.189 527.914,404.971C526.048,391.754 525.115,376.3 525.115,358.61C525.115,341.123 526.06,325.72 527.951,312.401C529.842,299.082 532.429,288.864 535.713,281.747C538.997,274.63 542.679,271.072 546.76,271.072C550.84,271.072 554.522,274.63 557.806,281.747C561.09,288.864 563.677,299.082 565.568,312.401C567.459,325.72 568.404,341.123 568.404,358.61C568.404,376.097 567.446,391.5 565.531,404.819C563.615,418.138 561.003,428.356 557.694,435.472C554.385,442.589 550.69,446.148 546.61,446.148ZM546.61,401.006C549.048,401.006 551.126,397.346 552.842,390.026C554.559,382.706 555.417,372.234 555.417,358.61C555.417,344.986 554.584,334.514 552.917,327.194C551.25,319.874 549.198,316.213 546.76,316.213C544.272,316.213 542.207,319.823 540.565,327.041C538.923,334.26 538.102,344.783 538.102,358.61C538.102,372.234 538.91,382.706 540.527,390.026C542.145,397.346 544.172,401.006 546.61,401.006Z" style="fill:rgb(44,27,115);fill-rule:nonzero;"/>
                    <path d="M628.337,271.682C633.512,271.682 637.629,278.087 640.689,290.898C643.749,303.708 645.279,321.5 645.279,344.274L645.279,443.708L632.591,443.708L632.591,351.29C632.591,340.309 631.882,331.82 630.464,325.821C629.046,319.823 627.093,316.823 624.605,316.823C622.117,316.823 620.164,319.823 618.746,325.821C617.328,331.82 616.619,340.309 616.619,351.29L616.619,443.708L603.931,443.708L603.931,351.29C603.931,340.309 603.222,331.82 601.804,325.821C600.386,319.823 598.433,316.823 595.945,316.823C593.457,316.823 591.504,319.823 590.086,325.821C588.668,331.82 587.959,340.309 587.959,351.29L587.959,443.708L575.196,443.708L575.196,273.512L587.959,273.512L587.959,294.863C589.252,287.746 590.944,282.103 593.034,277.935C595.124,273.766 597.487,271.682 600.124,271.682C603.259,271.682 606.058,274.427 608.521,279.917C610.984,285.407 612.912,293.236 614.305,303.403C615.748,294.049 617.714,286.424 620.202,280.527C622.689,274.63 625.401,271.682 628.337,271.682Z" style="fill:rgb(44,27,115);fill-rule:nonzero;"/>
                </g>
            </g>
        </g>
    </g>
</svg>
