<?xml version="1.0" encoding="UTF-8" standalone="no"?>
<!DOCTYPE svg PUBLIC "-//W3C//DTD SVG 1.1//EN" "http://www.w3.org/Graphics/SVG/1.1/DTD/svg11.dtd">
<svg width="100%" height="100%" viewBox="0 0 207163 67872" version="1.1" xmlns="http://www.w3.org/2000/svg" xmlns:xlink="http://www.w3.org/1999/xlink" xml:space="preserve" xmlns:serif="http://www.serif.com/" style="fill-rule:evenodd;clip-rule:evenodd;stroke-linejoin:round;stroke-miterlimit:2;">
    <g transform="matrix(83.5226,0,0,27.364,0,0)">
        <rect id="My-Success-Story" serif:id="My Success Story" x="0" y="0" width="2480.32" height="2480.32" style="fill:none;"/>
        <g id="My-Success-Story1" serif:id="My Success Story">
            <g transform="matrix(2.18116,0,0,1.6291,624.233,692.491)">
                <path d="M145.963,229.59L145.963,443.708L133.2,443.708L133.2,315.298L121.483,443.708L111.183,443.708L99.39,314.993L99.39,443.708L86.627,443.708L86.627,229.59L101.704,229.59L116.407,377.826L130.961,229.59L145.963,229.59Z" style="fill:rgb(44,27,115);fill-rule:nonzero;"/>
                <path d="M197.686,273.512L171.563,524.536L157.83,524.536L167.384,437.913L150.441,273.512L164.697,273.512L174.325,379.961L183.878,273.512L197.686,273.512Z" style="fill:rgb(44,27,115);fill-rule:nonzero;"/>
                <path d="M237.094,445.843C233.263,445.843 229.829,443.301 226.794,438.218C223.759,433.134 221.333,425.61 219.517,415.647C217.701,405.683 216.743,393.686 216.644,379.656L230.227,379.656C230.426,387.586 231.098,393.635 232.243,397.804C233.387,401.972 234.88,404.056 236.721,404.056C238.612,404.056 240.104,402.277 241.199,398.719C242.294,395.16 242.841,390.229 242.841,383.926C242.841,378.639 242.406,374.267 241.535,370.81C240.664,367.353 239.594,364.507 238.325,362.27C237.057,360.033 235.253,357.491 232.914,354.645C229.531,350.375 226.769,346.104 224.63,341.834C222.49,337.564 220.649,331.261 219.107,322.924C217.564,314.587 216.793,303.708 216.793,290.287C216.793,270.36 218.559,254.754 222.092,243.468C225.625,232.183 230.227,226.54 235.9,226.54C241.672,226.54 246.324,232.183 249.857,243.468C253.39,254.754 255.28,270.462 255.529,290.593L241.721,290.593C241.622,283.679 241,278.24 239.856,274.274C238.711,270.309 237.243,268.327 235.452,268.327C233.91,268.327 232.666,270.004 231.72,273.359C230.775,276.715 230.302,281.544 230.302,287.847C230.302,294.761 231.098,300.149 232.69,304.013C234.283,307.876 236.771,312.045 240.154,316.518C243.538,321.195 246.287,325.669 248.401,329.939C250.516,334.209 252.345,340.411 253.887,348.544C255.43,356.678 256.201,367.15 256.201,379.961C256.201,392.161 255.442,403.243 253.924,413.207C252.407,423.17 250.205,431.101 247.319,436.998C244.433,442.894 241.025,445.843 237.094,445.843Z" style="fill:rgb(44,27,115);fill-rule:nonzero;"/>
                <path d="M305.162,273.512L305.162,443.708L292.399,443.708L292.399,420.527C291.106,428.051 289.352,434.1 287.138,438.675C284.923,443.25 282.473,445.538 279.786,445.538C276.601,445.538 273.79,442.64 271.352,436.845C268.914,431.05 267.023,422.662 265.68,411.682C264.336,400.701 263.664,387.789 263.664,372.945L263.664,273.512L276.353,273.512L276.353,365.93C276.353,377.317 277.074,386.162 278.517,392.466C279.96,398.77 281.901,401.921 284.339,401.921C286.827,401.921 288.792,398.77 290.235,392.466C291.678,386.162 292.399,377.317 292.399,365.93L292.399,273.512L305.162,273.512Z" style="fill:rgb(44,27,115);fill-rule:nonzero;"/>
                <path d="M311.805,358.61C311.805,340.919 312.688,325.465 314.454,312.248C316.221,299.031 318.684,288.864 321.843,281.747C325.003,274.63 328.623,271.072 332.703,271.072C337.927,271.072 342.294,276.664 345.802,287.847C349.31,299.031 351.611,314.79 352.705,335.124L339.122,335.124C337.977,322.11 335.763,315.603 332.479,315.603C330.14,315.603 328.275,319.314 326.881,326.736C325.488,334.158 324.792,344.783 324.792,358.61C324.792,372.437 325.488,383.062 326.881,390.483C328.275,397.905 330.14,401.616 332.479,401.616C335.763,401.616 337.977,395.109 339.122,382.096L352.705,382.096C351.611,402.023 349.297,417.68 345.764,429.067C342.232,440.454 337.878,446.148 332.703,446.148C328.623,446.148 325.003,442.589 321.843,435.472C318.684,428.356 316.221,418.189 314.454,404.971C312.688,391.754 311.805,376.3 311.805,358.61Z" style="fill:rgb(44,27,115);fill-rule:nonzero;"/>
                <path d="M356.96,358.61C356.96,340.919 357.843,325.465 359.609,312.248C361.376,299.031 363.839,288.864 366.998,281.747C370.158,274.63 373.778,271.072 377.858,271.072C383.082,271.072 387.449,276.664 390.956,287.847C394.464,299.031 396.766,314.79 397.86,335.124L384.277,335.124C383.132,322.11 380.918,315.603 377.634,315.603C375.295,315.603 373.429,319.314 372.036,326.736C370.643,334.158 369.946,344.783 369.946,358.61C369.946,372.437 370.643,383.062 372.036,390.483C373.429,397.905 375.295,401.616 377.634,401.616C380.918,401.616 383.132,395.109 384.277,382.096L397.86,382.096C396.766,402.023 394.452,417.68 390.919,429.067C387.386,440.454 383.033,446.148 377.858,446.148C373.778,446.148 370.158,442.589 366.998,435.472C363.839,428.356 361.376,418.189 359.609,404.971C357.843,391.754 356.96,376.3 356.96,358.61Z" style="fill:rgb(44,27,115);fill-rule:nonzero;"/>
                <path d="M443.911,355.865C443.911,360.745 443.836,365.828 443.687,371.115L414.803,371.115C415.002,381.689 415.835,389.772 417.303,395.364C418.771,400.955 420.575,403.751 422.714,403.751C425.899,403.751 428.113,398.261 429.357,387.281L442.941,387.281C442.244,398.465 440.988,408.53 439.171,417.477C437.355,426.424 435.079,433.439 432.342,438.523C429.606,443.606 426.546,446.148 423.162,446.148C419.082,446.148 415.45,442.589 412.265,435.472C409.081,428.356 406.593,418.189 404.802,404.971C403.01,391.754 402.115,376.3 402.115,358.61C402.115,340.919 402.998,325.465 404.764,312.248C406.531,299.031 409.006,288.864 412.19,281.747C415.375,274.63 419.032,271.072 423.162,271.072C427.192,271.072 430.775,274.529 433.91,281.442C437.044,288.356 439.495,298.218 441.261,311.028C443.028,323.839 443.911,338.784 443.911,355.865ZM430.85,342.139C430.85,333.192 430.103,326.075 428.61,320.789C427.118,315.502 425.252,312.858 423.013,312.858C420.873,312.858 419.069,315.4 417.602,320.484C416.134,325.567 415.226,332.786 414.877,342.139L430.85,342.139Z" style="fill:rgb(44,27,115);fill-rule:nonzero;"/>
                <path d="M467.571,446.148C463.938,446.148 460.704,443.606 457.868,438.523C455.032,433.439 452.793,426.475 451.151,417.629C449.509,408.784 448.588,398.871 448.389,387.891L461.003,387.891C461.152,393.788 461.824,398.566 463.018,402.226C464.212,405.886 465.68,407.717 467.421,407.717C469.014,407.717 470.245,406.446 471.116,403.904C471.987,401.362 472.422,398.058 472.422,393.991C472.422,389.111 471.8,385.502 470.556,383.163C469.312,380.825 467.297,378.232 464.51,375.385C461.525,372.539 459.037,369.539 457.047,366.388C455.057,363.236 453.34,358.254 451.897,351.442C450.454,344.63 449.732,335.429 449.732,323.839C449.732,314.078 450.392,305.182 451.71,297.15C453.029,289.118 454.969,282.764 457.532,278.087C460.094,273.41 463.142,271.072 466.675,271.072C471.899,271.072 476.017,276.359 479.027,286.932C482.038,297.506 483.767,311.537 484.214,329.024L472.422,329.024C472.223,323.127 471.588,318.45 470.519,314.993C469.449,311.537 468.043,309.808 466.302,309.808C464.809,309.808 463.665,310.977 462.868,313.316C462.072,315.654 461.674,318.857 461.674,322.924C461.674,327.804 462.309,331.464 463.578,333.904C464.846,336.344 466.824,338.784 469.511,341.224C472.596,344.478 475.109,347.68 477.049,350.832C478.99,353.984 480.694,359.067 482.162,366.083C483.63,373.098 484.389,382.502 484.438,394.296C484.438,404.26 483.754,413.156 482.386,420.984C481.017,428.813 479.052,434.964 476.49,439.438C473.927,443.911 470.954,446.148 467.571,446.148Z" style="fill:rgb(44,27,115);fill-rule:nonzero;"/>
                <path d="M509.218,446.148C505.585,446.148 502.351,443.606 499.515,438.523C496.679,433.439 494.44,426.475 492.798,417.629C491.156,408.784 490.235,398.871 490.036,387.891L502.65,387.891C502.799,393.788 503.471,398.566 504.665,402.226C505.859,405.886 507.327,407.717 509.068,407.717C510.66,407.717 511.892,406.446 512.763,403.904C513.634,401.362 514.069,398.058 514.069,393.991C514.069,389.111 513.447,385.502 512.203,383.163C510.959,380.825 508.944,378.232 506.157,375.385C503.172,372.539 500.684,369.539 498.694,366.388C496.704,363.236 494.987,358.254 493.544,351.442C492.101,344.63 491.379,335.429 491.379,323.839C491.379,314.078 492.039,305.182 493.357,297.15C494.676,289.118 496.616,282.764 499.179,278.087C501.741,273.41 504.789,271.072 508.322,271.072C513.546,271.072 517.664,276.359 520.674,286.932C523.685,297.506 525.414,311.537 525.861,329.024L514.069,329.024C513.87,323.127 513.235,318.45 512.166,314.993C511.096,311.537 509.69,309.808 507.949,309.808C506.456,309.808 505.312,310.977 504.515,313.316C503.719,315.654 503.321,318.857 503.321,322.924C503.321,327.804 503.956,331.464 505.224,333.904C506.493,336.344 508.471,338.784 511.158,341.224C514.243,344.478 516.756,347.68 518.696,350.832C520.637,353.984 522.341,359.067 523.809,366.083C525.277,373.098 526.036,382.502 526.085,394.296C526.085,404.26 525.401,413.156 524.033,420.984C522.664,428.813 520.699,434.964 518.137,439.438C515.574,443.911 512.601,446.148 509.218,446.148Z" style="fill:rgb(44,27,115);fill-rule:nonzero;"/>
                <path d="M568.703,445.843C564.871,445.843 561.438,443.301 558.403,438.218C555.368,433.134 552.942,425.61 551.126,415.647C549.31,405.683 548.352,393.686 548.252,379.656L561.836,379.656C562.035,387.586 562.707,393.635 563.851,397.804C564.996,401.972 566.488,404.056 568.329,404.056C570.22,404.056 571.713,402.277 572.808,398.719C573.902,395.16 574.45,390.229 574.45,383.926C574.45,378.639 574.014,374.267 573.143,370.81C572.273,367.353 571.203,364.507 569.934,362.27C568.665,360.033 566.862,357.491 564.523,354.645C561.139,350.375 558.378,346.104 556.238,341.834C554.099,337.564 552.258,331.261 550.715,322.924C549.173,314.587 548.402,303.708 548.402,290.287C548.402,270.36 550.168,254.754 553.701,243.468C557.233,232.183 561.836,226.54 567.508,226.54C573.28,226.54 577.933,232.183 581.465,243.468C584.998,254.754 586.889,270.462 587.138,290.593L573.33,290.593C573.231,283.679 572.609,278.24 571.464,274.274C570.32,270.309 568.852,268.327 567.061,268.327C565.518,268.327 564.274,270.004 563.329,273.359C562.383,276.715 561.911,281.544 561.911,287.847C561.911,294.761 562.707,300.149 564.299,304.013C565.891,307.876 568.379,312.045 571.763,316.518C575.146,321.195 577.895,325.669 580.01,329.939C582.125,334.209 583.953,340.411 585.496,348.544C587.038,356.678 587.809,367.15 587.809,379.961C587.809,392.161 587.051,403.243 585.533,413.207C584.015,423.17 581.814,431.101 578.928,436.998C576.042,442.894 572.633,445.843 568.703,445.843Z" style="fill:rgb(44,27,115);fill-rule:nonzero;"/>
                <path d="M618.858,399.481L618.858,443.708L612.365,443.708C607.737,443.708 604.13,439.082 601.542,429.83C598.955,420.578 597.661,405.48 597.661,384.536L597.661,316.823L592.586,316.823L592.586,273.512L597.661,273.512L597.661,232.03L610.424,232.03L610.424,273.512L618.783,273.512L618.783,316.823L610.424,316.823L610.424,385.146C610.424,390.229 610.723,393.889 611.32,396.126C611.917,398.363 612.912,399.481 614.305,399.481L618.858,399.481Z" style="fill:rgb(44,27,115);fill-rule:nonzero;"/>
                <path d="M644.906,446.148C640.826,446.148 637.156,442.589 633.897,435.472C630.638,428.356 628.076,418.189 626.21,404.971C624.344,391.754 623.411,376.3 623.411,358.61C623.411,341.123 624.356,325.72 626.247,312.401C628.138,299.082 630.725,288.864 634.009,281.747C637.293,274.63 640.975,271.072 645.055,271.072C649.136,271.072 652.818,274.63 656.102,281.747C659.386,288.864 661.973,299.082 663.864,312.401C665.754,325.72 666.7,341.123 666.7,358.61C666.7,376.097 665.742,391.5 663.826,404.819C661.911,418.138 659.298,428.356 655.99,435.472C652.681,442.589 648.986,446.148 644.906,446.148ZM644.906,401.006C647.344,401.006 649.422,397.346 651.138,390.026C652.855,382.706 653.713,372.234 653.713,358.61C653.713,344.986 652.88,334.514 651.213,327.194C649.546,319.874 647.494,316.213 645.055,316.213C642.568,316.213 640.503,319.823 638.861,327.041C637.219,334.26 636.398,344.783 636.398,358.61C636.398,372.234 637.206,382.706 638.823,390.026C640.44,397.346 642.468,401.006 644.906,401.006Z" style="fill:rgb(44,27,115);fill-rule:nonzero;"/>
                <path d="M686.255,301.878C687.747,292.524 689.613,285.153 691.852,279.765C694.091,274.376 696.579,271.682 699.316,271.682L699.316,326.889L695.808,326.889C692.624,326.889 690.235,329.685 688.643,335.277C687.051,340.868 686.255,350.68 686.255,364.71L686.255,443.708L673.492,443.708L673.492,273.512L686.255,273.512L686.255,301.878Z" style="fill:rgb(44,27,115);fill-rule:nonzero;"/>
                <path d="M747.979,273.512L721.856,524.536L708.123,524.536L717.676,437.913L700.734,273.512L714.99,273.512L724.618,379.961L734.171,273.512L747.979,273.512Z" style="fill:rgb(44,27,115);fill-rule:nonzero;"/>
            </g>
            <g transform="matrix(0.955761,0,0,0.935392,21.9833,64.1513)">
                <g transform="matrix(0.012527,0,0,0.0390685,-2874.16,-6104.94)">
                    <path d="M249279,196364C248601,196572 246327,197453 246327,199913C246327,200960 246596,201758 247105,202350C247812,203173 249061,203641 251034,203641C251034,203641 275915,203641 275915,203641C276394,203641 276783,203252 276783,202773C276783,202294 276394,201905 275915,201905L251034,201905C249745,201905 248884,201756 248422,201219C248153,200905 248063,200467 248063,199913C248063,198926 248761,198428 249279,198194L249279,196364Z" style="fill:rgb(44,27,115);"/>
                </g>
                <g transform="matrix(0.011582,0,0,0.0378315,-2681.73,-3220.73)">
                    <path d="M263803,131031L270499,131031L270499,122965L270498,122965C270498,118471 270497,108230 270496,106502C270494,106459 270464,106422 270421,106407C270378,106392 270328,106401 270295,106431C269653,107005 267664,108782 267233,109167C267188,109209 267114,109209 267068,109167C266637,108782 264648,107005 264006,106431C263973,106401 263924,106392 263880,106407C263837,106422 263808,106459 263805,106502C263804,108230 263803,118471 263803,122965L263803,122965L263803,131031Z" style="fill:rgb(44,27,115);"/>
                </g>
                <g transform="matrix(0.011582,0,0,0.0378315,-2685.01,-3220.73)">
                    <path d="M273535,131031L280230,131031L280230,124393L280231,124393C280231,123773 280231,122767 280230,121518L280230,121511L280230,121511C280230,115681 280229,104569 280228,102766C280226,102724 280196,102687 280153,102671C280109,102656 280060,102665 280027,102695C279385,103269 277396,105047 276965,105432C276920,105473 276846,105473 276800,105432C276369,105047 274380,103269 273738,102695C273705,102665 273656,102656 273612,102671C273569,102687 273540,102724 273537,102766C273536,104569 273535,115681 273535,121511L273535,121511L273535,131031Z" style="fill:rgb(248,64,140);"/>
                </g>
                <g transform="matrix(0.011582,0,0,0.0378315,-2680.4,-3220.73)">
                    <path d="M254239,131031L260935,131031L260935,123431L260934,123431C260934,119740 260933,110990 260932,109400C260930,109358 260900,109321 260857,109306C260814,109291 260764,109300 260731,109330C260089,109903 258100,111681 257669,112066C257624,112107 257550,112107 257504,112066C257073,111681 255084,109903 254442,109330C254409,109300 254360,109291 254316,109306C254273,109321 254244,109358 254241,109400C254240,110990 254239,119740 254239,123431L254239,123431L254239,131031Z" style="fill:rgb(42,221,198);"/>
                </g>
            </g>
        </g>
    </g>
</svg>
