<svg xmlns="http://www.w3.org/2000/svg" xmlns:xlink="http://www.w3.org/1999/xlink" width="1080" zoomAndPan="magnify" viewBox="0 0 810 809.999993" height="1080" preserveAspectRatio="xMidYMid meet" version="1.0"><defs><g/><clipPath id="90046ffe65"><path d="M 108 269 L 362 269 L 362 540 L 108 540 Z M 108 269 " clip-rule="nonzero"/></clipPath><clipPath id="2002d35688"><path d="M 57.867188 343.984375 L 362.535156 258.253906 L 424.09375 477.007812 L 119.425781 562.738281 Z M 57.867188 343.984375 " clip-rule="nonzero"/></clipPath><clipPath id="8840bf4821"><path d="M 50.632812 346.019531 L 362.523438 258.257812 L 432 505.167969 L 120.113281 592.929688 Z M 50.632812 346.019531 " clip-rule="nonzero"/></clipPath><clipPath id="ea9aa81495"><path d="M 101 469 L 179 469 L 179 547 L 101 547 Z M 101 469 " clip-rule="nonzero"/></clipPath><clipPath id="8cdfd10f44"><path d="M 92.425781 481.710938 L 166.066406 460.988281 L 186.785156 534.628906 L 113.148438 555.351562 Z M 92.425781 481.710938 " clip-rule="nonzero"/></clipPath><clipPath id="59e0e2d74e"><path d="M 92.425781 481.710938 L 166.066406 460.988281 L 186.785156 534.628906 L 113.148438 555.351562 Z M 92.425781 481.710938 " clip-rule="nonzero"/></clipPath><clipPath id="9bb1b8f687"><path d="M 147 345 L 226 345 L 226 423 L 147 423 Z M 147 345 " clip-rule="nonzero"/></clipPath><clipPath id="586ffee913"><path d="M 138.375 357.191406 L 213.460938 336.066406 L 234.585938 411.148438 L 159.503906 432.277344 Z M 138.375 357.191406 " clip-rule="nonzero"/></clipPath><clipPath id="24d78e35d8"><path d="M 138.375 357.191406 L 213.460938 336.066406 L 234.585938 411.148438 L 159.503906 432.277344 Z M 138.375 357.191406 " clip-rule="nonzero"/></clipPath><clipPath id="d58c2601f5"><path d="M 288 261 L 367 261 L 367 340 L 288 340 Z M 288 261 " clip-rule="nonzero"/></clipPath><clipPath id="6a0f13edaf"><path d="M 279.605469 273.164062 L 354.6875 252.035156 L 375.816406 327.121094 L 300.730469 348.25 Z M 279.605469 273.164062 " clip-rule="nonzero"/></clipPath><clipPath id="4fb2858bb1"><path d="M 279.605469 273.164062 L 354.6875 252.035156 L 375.816406 327.121094 L 300.730469 348.25 Z M 279.605469 273.164062 " clip-rule="nonzero"/></clipPath></defs><rect x="-81" width="972" fill="#ffffff" y="-80.999999" height="971.999992" fill-opacity="1"/><rect x="-81" width="972" fill="#ffffff" y="-80.999999" height="971.999992" fill-opacity="1"/><g fill="#2c1b73" fill-opacity="1"><g transform="translate(327.633474, 454.30415)"><g><path d="M 45.359375 0 L 34.109375 0 L 15.3125 -28.46875 L 15.3125 0 L 4.078125 0 L 4.078125 -46.140625 L 15.3125 -46.140625 L 34.109375 -17.546875 L 34.109375 -46.140625 L 45.359375 -46.140625 Z M 45.359375 0 "/></g></g></g><g fill="#2c1b73" fill-opacity="1"><g transform="translate(377.064174, 454.30415)"><g><path d="M 15.3125 -37.140625 L 15.3125 -27.8125 L 30.375 -27.8125 L 30.375 -19.125 L 15.3125 -19.125 L 15.3125 -9 L 32.34375 -9 L 32.34375 0 L 4.078125 0 L 4.078125 -46.140625 L 32.34375 -46.140625 L 32.34375 -37.140625 Z M 15.3125 -37.140625 "/></g></g></g><g fill="#2c1b73" fill-opacity="1"><g transform="translate(412.625358, 454.30415)"><g><path d="M 37.265625 -46.140625 L 37.265625 -37.140625 L 25.046875 -37.140625 L 25.046875 0 L 13.796875 0 L 13.796875 -37.140625 L 1.578125 -37.140625 L 1.578125 -46.140625 Z M 37.265625 -46.140625 "/></g></g></g><g fill="#2c1b73" fill-opacity="1"><g transform="translate(451.473143, 454.30415)"><g><path d="M 67.578125 -46.140625 L 55.546875 0 L 41.9375 0 L 34.578125 -30.375 L 26.953125 0 L 13.34375 0 L 1.640625 -46.140625 L 13.671875 -46.140625 L 20.3125 -12.5625 L 28.53125 -46.140625 L 40.890625 -46.140625 L 48.78125 -12.5625 L 55.484375 -46.140625 Z M 67.578125 -46.140625 "/></g></g></g><g fill="#2c1b73" fill-opacity="1"><g transform="translate(520.623518, 454.30415)"><g><path d="M 32.796875 -8.15625 L 15.578125 -8.15625 L 12.8125 0 L 1.046875 0 L 17.75 -46.140625 L 30.765625 -46.140625 L 47.453125 0 L 35.5625 0 Z M 29.90625 -16.828125 L 24.1875 -33.71875 L 18.53125 -16.828125 Z M 29.90625 -16.828125 "/></g></g></g><g fill="#2c1b73" fill-opacity="1"><g transform="translate(569.068222, 454.30415)"><g><path d="M 15.3125 -8.671875 L 30.046875 -8.671875 L 30.046875 0 L 4.078125 0 L 4.078125 -46.140625 L 15.3125 -46.140625 Z M 15.3125 -8.671875 "/></g></g></g><g fill="#2c1b73" fill-opacity="1"><g transform="translate(600.422538, 454.30415)"><g><path d="M 30.828125 0 L 15.3125 -20.375 L 15.3125 0 L 4.078125 0 L 4.078125 -46.140625 L 15.3125 -46.140625 L 15.3125 -25.90625 L 30.703125 -46.140625 L 43.90625 -46.140625 L 26.03125 -23.53125 L 44.5625 0 Z M 30.828125 0 "/></g></g></g><g fill="#2c1b73" fill-opacity="1"><g transform="translate(646.237955, 454.30415)"><g><path d="M 15.3125 -46.140625 L 15.3125 0 L 4.078125 0 L 4.078125 -46.140625 Z M 15.3125 -46.140625 "/></g></g></g><g fill="#2c1b73" fill-opacity="1"><g transform="translate(665.628983, 454.30415)"><g><path d="M 45.359375 0 L 34.109375 0 L 15.3125 -28.46875 L 15.3125 0 L 4.078125 0 L 4.078125 -46.140625 L 15.3125 -46.140625 L 34.109375 -17.546875 L 34.109375 -46.140625 L 45.359375 -46.140625 Z M 45.359375 0 "/></g></g></g><g fill="#2c1b73" fill-opacity="1"><g transform="translate(715.059683, 454.30415)"><g><path d="M 34.703125 -31.546875 C 33.867188 -33.085938 32.675781 -34.257812 31.125 -35.0625 C 29.570312 -35.875 27.742188 -36.28125 25.640625 -36.28125 C 22.003906 -36.28125 19.085938 -35.085938 16.890625 -32.703125 C 14.703125 -30.316406 13.609375 -27.128906 13.609375 -23.140625 C 13.609375 -18.890625 14.757812 -15.566406 17.0625 -13.171875 C 19.363281 -10.785156 22.53125 -9.59375 26.5625 -9.59375 C 29.320312 -9.59375 31.65625 -10.289062 33.5625 -11.6875 C 35.46875 -13.09375 36.859375 -15.113281 37.734375 -17.75 L 23.46875 -17.75 L 23.46875 -26.03125 L 47.921875 -26.03125 L 47.921875 -15.578125 C 47.085938 -12.773438 45.671875 -10.164062 43.671875 -7.75 C 41.679688 -5.34375 39.148438 -3.394531 36.078125 -1.90625 C 33.015625 -0.414062 29.554688 0.328125 25.703125 0.328125 C 21.140625 0.328125 17.070312 -0.664062 13.5 -2.65625 C 9.9375 -4.65625 7.15625 -7.425781 5.15625 -10.96875 C 3.164062 -14.519531 2.171875 -18.578125 2.171875 -23.140625 C 2.171875 -27.691406 3.164062 -31.753906 5.15625 -35.328125 C 7.15625 -38.898438 9.925781 -41.679688 13.46875 -43.671875 C 17.019531 -45.671875 21.078125 -46.671875 25.640625 -46.671875 C 31.160156 -46.671875 35.816406 -45.332031 39.609375 -42.65625 C 43.398438 -39.988281 45.90625 -36.285156 47.125 -31.546875 Z M 34.703125 -31.546875 "/></g></g></g><g clip-path="url(#90046ffe65)"><g clip-path="url(#2002d35688)"><g clip-path="url(#8840bf4821)"><path fill="#2c1b73" d="M 151.195312 538.074219 C 169.003906 533.0625 179.375 514.570312 174.363281 496.761719 C 172 488.371094 166.578125 481.707031 159.707031 477.449219 L 182.902344 420.484375 C 188.140625 421.664062 193.679688 421.742188 199.207031 420.1875 C 207.050781 417.980469 213.324219 413.070312 217.601562 406.847656 L 251.296875 422.484375 C 249.75 428.152344 249.554688 434.257812 251.261719 440.332031 C 256.273438 458.136719 274.769531 468.507812 292.574219 463.5 C 310.382812 458.488281 320.753906 439.992188 315.742188 422.1875 C 313.214844 413.203125 307.246094 406.125 299.667969 401.949219 L 322.882812 335.539062 C 327.636719 336.359375 332.605469 336.257812 337.5625 334.867188 C 355.367188 329.855469 365.738281 311.359375 360.726562 293.554688 C 355.71875 275.746094 337.222656 265.375 319.417969 270.386719 C 301.609375 275.398438 291.238281 293.890625 296.25 311.699219 C 298.777344 320.683594 304.757812 327.753906 312.324219 331.933594 L 289.09375 398.335938 C 284.355469 397.527344 279.375 397.628906 274.429688 399.019531 C 266.574219 401.230469 260.3125 406.136719 256.035156 412.359375 L 222.339844 396.722656 C 223.886719 391.054688 224.082031 384.949219 222.371094 378.875 C 217.363281 361.070312 198.867188 350.699219 181.0625 355.707031 C 163.253906 360.71875 152.882812 379.210938 157.894531 397.019531 C 160.257812 405.421875 165.679688 412.074219 172.546875 416.335938 L 149.351562 473.289062 C 144.117188 472.117188 138.574219 472.039062 133.050781 473.59375 C 115.246094 478.605469 104.871094 497.097656 109.882812 514.90625 C 114.894531 532.714844 133.386719 543.085938 151.195312 538.074219 Z M 306.996094 308.671875 C 303.65625 296.808594 310.566406 284.472656 322.441406 281.132812 C 334.304688 277.792969 346.644531 284.714844 349.980469 296.578125 C 353.320312 308.441406 346.402344 320.78125 334.535156 324.117188 C 322.660156 327.460938 310.335938 320.539062 306.996094 308.671875 Z M 277.453125 409.765625 C 289.320312 406.425781 301.65625 413.347656 304.996094 425.210938 C 308.335938 437.074219 301.414062 449.414062 289.550781 452.753906 C 277.675781 456.09375 265.347656 449.171875 262.011719 437.308594 C 258.671875 425.441406 265.578125 413.109375 277.453125 409.765625 Z M 168.640625 393.996094 C 165.300781 382.132812 172.210938 369.796875 184.085938 366.453125 C 195.949219 363.117188 208.289062 370.035156 211.625 381.898438 C 214.964844 393.765625 208.046875 406.101562 196.179688 409.441406 C 184.304688 412.78125 171.980469 405.859375 168.640625 393.996094 Z M 136.074219 484.339844 C 147.941406 481.003906 160.277344 487.921875 163.617188 499.785156 C 166.953125 511.652344 160.035156 523.988281 148.171875 527.328125 C 136.296875 530.667969 123.96875 523.746094 120.628906 511.882812 C 117.292969 500.019531 124.199219 487.683594 136.074219 484.339844 Z M 136.074219 484.339844 " fill-opacity="1" fill-rule="nonzero"/></g></g></g><g clip-path="url(#ea9aa81495)"><g clip-path="url(#8cdfd10f44)"><g clip-path="url(#59e0e2d74e)"><path fill="#f8408c" d="M 176.679688 497.855469 C 177.019531 499.066406 177.296875 500.289062 177.519531 501.523438 C 177.738281 502.761719 177.898438 504.007812 177.996094 505.261719 C 178.09375 506.511719 178.128906 507.765625 178.105469 509.023438 C 178.078125 510.28125 177.992188 511.53125 177.84375 512.78125 C 177.695312 514.027344 177.484375 515.265625 177.214844 516.492188 C 176.945312 517.71875 176.617188 518.929688 176.226562 520.125 C 175.839844 521.320312 175.390625 522.492188 174.886719 523.644531 C 174.382812 524.792969 173.824219 525.917969 173.210938 527.015625 C 172.59375 528.109375 171.929688 529.171875 171.207031 530.203125 C 170.488281 531.234375 169.722656 532.226562 168.90625 533.183594 C 168.089844 534.136719 167.226562 535.050781 166.320312 535.921875 C 165.414062 536.789062 164.46875 537.613281 163.480469 538.390625 C 162.492188 539.167969 161.46875 539.894531 160.410156 540.574219 C 159.351562 541.25 158.265625 541.871094 157.144531 542.441406 C 156.023438 543.011719 154.878906 543.527344 153.707031 543.984375 C 152.539062 544.441406 151.347656 544.839844 150.136719 545.179688 C 148.929688 545.519531 147.707031 545.800781 146.46875 546.019531 C 145.230469 546.242188 143.984375 546.398438 142.734375 546.496094 C 141.480469 546.59375 140.226562 546.632812 138.96875 546.605469 C 137.714844 546.582031 136.460938 546.492188 135.214844 546.34375 C 133.964844 546.195312 132.730469 545.988281 131.5 545.71875 C 130.273438 545.449219 129.0625 545.117188 127.867188 544.730469 C 126.671875 544.339844 125.5 543.894531 124.351562 543.390625 C 123.199219 542.886719 122.074219 542.324219 120.980469 541.710938 C 119.882812 541.097656 118.820312 540.429688 117.789062 539.710938 C 116.757812 538.992188 115.765625 538.222656 114.8125 537.40625 C 113.855469 536.589844 112.945312 535.730469 112.074219 534.824219 C 111.203125 533.917969 110.378906 532.96875 109.601562 531.980469 C 108.824219 530.996094 108.097656 529.972656 107.421875 528.914062 C 106.742188 527.855469 106.121094 526.765625 105.550781 525.644531 C 104.980469 524.527344 104.46875 523.378906 104.011719 522.210938 C 103.554688 521.039062 103.152344 519.851562 102.8125 518.640625 C 102.472656 517.429688 102.191406 516.207031 101.972656 514.96875 C 101.753906 513.734375 101.59375 512.488281 101.496094 511.234375 C 101.398438 509.984375 101.363281 508.726562 101.386719 507.472656 C 101.414062 506.214844 101.5 504.964844 101.648438 503.714844 C 101.796875 502.46875 102.003906 501.230469 102.277344 500.003906 C 102.546875 498.777344 102.875 497.566406 103.265625 496.371094 C 103.652344 495.175781 104.101562 494.003906 104.605469 492.851562 C 105.109375 491.699219 105.667969 490.578125 106.28125 489.480469 C 106.898438 488.386719 107.5625 487.320312 108.28125 486.292969 C 109.003906 485.261719 109.769531 484.269531 110.585938 483.3125 C 111.402344 482.359375 112.265625 481.445312 113.171875 480.574219 C 114.078125 479.703125 115.023438 478.882812 116.011719 478.105469 C 117 477.328125 118.023438 476.597656 119.082031 475.921875 C 120.140625 475.246094 121.226562 474.621094 122.347656 474.050781 C 123.46875 473.484375 124.613281 472.96875 125.785156 472.511719 C 126.953125 472.054688 128.144531 471.65625 129.355469 471.316406 C 130.5625 470.976562 131.785156 470.695312 133.023438 470.476562 C 134.261719 470.253906 135.503906 470.09375 136.757812 469.996094 C 138.011719 469.898438 139.265625 469.863281 140.523438 469.890625 C 141.777344 469.914062 143.03125 470 144.277344 470.148438 C 145.527344 470.296875 146.761719 470.507812 147.992188 470.777344 C 149.21875 471.046875 150.429688 471.378906 151.625 471.765625 C 152.816406 472.15625 153.992188 472.601562 155.140625 473.105469 C 156.292969 473.609375 157.417969 474.167969 158.511719 474.785156 C 159.609375 475.398438 160.671875 476.066406 161.703125 476.785156 C 162.734375 477.503906 163.726562 478.273438 164.679688 479.089844 C 165.636719 479.90625 166.546875 480.765625 167.417969 481.671875 C 168.289062 482.578125 169.113281 483.527344 169.890625 484.511719 C 170.667969 485.5 171.394531 486.523438 172.070312 487.582031 C 172.746094 488.640625 173.371094 489.730469 173.941406 490.851562 C 174.511719 491.96875 175.023438 493.113281 175.480469 494.285156 C 175.9375 495.457031 176.335938 496.644531 176.679688 497.855469 Z M 176.679688 497.855469 " fill-opacity="1" fill-rule="nonzero"/></g></g></g><g clip-path="url(#9bb1b8f687)"><g clip-path="url(#586ffee913)"><g clip-path="url(#24d78e35d8)"><path fill="#fba02f" d="M 223.75 373.550781 C 224.09375 374.777344 224.378906 376.019531 224.601562 377.269531 C 224.824219 378.523438 224.984375 379.785156 225.082031 381.054688 C 225.183594 382.324219 225.21875 383.597656 225.195312 384.871094 C 225.167969 386.140625 225.078125 387.410156 224.929688 388.675781 C 224.777344 389.941406 224.566406 391.195312 224.292969 392.4375 C 224.019531 393.679688 223.6875 394.90625 223.292969 396.117188 C 222.898438 397.328125 222.445312 398.515625 221.933594 399.683594 C 221.421875 400.851562 220.855469 401.988281 220.234375 403.097656 C 219.609375 404.210938 218.933594 405.285156 218.207031 406.332031 C 217.476562 407.375 216.699219 408.382812 215.871094 409.347656 C 215.042969 410.316406 214.171875 411.242188 213.253906 412.125 C 212.335938 413.003906 211.375 413.839844 210.375 414.628906 C 209.375 415.414062 208.339844 416.152344 207.265625 416.835938 C 206.191406 417.523438 205.089844 418.15625 203.953125 418.734375 C 202.820312 419.308594 201.660156 419.832031 200.472656 420.292969 C 199.289062 420.757812 198.082031 421.160156 196.855469 421.507812 C 195.628906 421.851562 194.390625 422.136719 193.136719 422.359375 C 191.882812 422.582031 190.621094 422.742188 189.351562 422.839844 C 188.082031 422.941406 186.8125 422.976562 185.539062 422.953125 C 184.265625 422.925781 182.996094 422.835938 181.734375 422.6875 C 180.46875 422.535156 179.214844 422.324219 177.972656 422.050781 C 176.726562 421.777344 175.5 421.445312 174.289062 421.050781 C 173.078125 420.65625 171.890625 420.203125 170.722656 419.691406 C 169.558594 419.179688 168.421875 418.613281 167.308594 417.992188 C 166.199219 417.367188 165.121094 416.691406 164.078125 415.964844 C 163.035156 415.234375 162.027344 414.457031 161.058594 413.628906 C 160.09375 412.800781 159.167969 411.929688 158.285156 411.011719 C 157.402344 410.09375 156.570312 409.132812 155.78125 408.132812 C 154.992188 407.132812 154.257812 406.097656 153.570312 405.023438 C 152.886719 403.949219 152.253906 402.847656 151.675781 401.710938 C 151.097656 400.578125 150.578125 399.417969 150.113281 398.230469 C 149.652344 397.046875 149.246094 395.839844 148.902344 394.613281 C 148.558594 393.386719 148.273438 392.148438 148.050781 390.894531 C 147.828125 389.640625 147.667969 388.378906 147.566406 387.109375 C 147.46875 385.839844 147.429688 384.570312 147.457031 383.296875 C 147.484375 382.023438 147.570312 380.753906 147.722656 379.492188 C 147.871094 378.226562 148.082031 376.972656 148.355469 375.730469 C 148.628906 374.484375 148.964844 373.257812 149.359375 372.046875 C 149.753906 370.835938 150.207031 369.648438 150.714844 368.484375 C 151.226562 367.316406 151.792969 366.179688 152.417969 365.066406 C 153.039062 363.957031 153.714844 362.878906 154.445312 361.835938 C 155.171875 360.792969 155.949219 359.785156 156.777344 358.816406 C 157.605469 357.851562 158.480469 356.925781 159.398438 356.042969 C 160.316406 355.160156 161.273438 354.328125 162.273438 353.539062 C 163.277344 352.75 164.3125 352.015625 165.386719 351.328125 C 166.457031 350.644531 167.5625 350.011719 168.695312 349.433594 C 169.832031 348.855469 170.992188 348.335938 172.175781 347.871094 C 173.363281 347.410156 174.570312 347.003906 175.792969 346.660156 C 177.019531 346.316406 178.261719 346.03125 179.511719 345.808594 C 180.765625 345.585938 182.027344 345.425781 183.296875 345.324219 C 184.566406 345.226562 185.839844 345.1875 187.113281 345.214844 C 188.382812 345.242188 189.652344 345.328125 190.917969 345.480469 C 192.183594 345.628906 193.4375 345.839844 194.679688 346.113281 C 195.921875 346.390625 197.148438 346.722656 198.359375 347.117188 C 199.570312 347.511719 200.757812 347.964844 201.925781 348.472656 C 203.09375 348.984375 204.230469 349.550781 205.339844 350.175781 C 206.453125 350.796875 207.527344 351.472656 208.574219 352.203125 C 209.617188 352.929688 210.625 353.707031 211.589844 354.535156 C 212.558594 355.363281 213.484375 356.238281 214.367188 357.15625 C 215.246094 358.074219 216.082031 359.03125 216.871094 360.03125 C 217.65625 361.035156 218.394531 362.070312 219.078125 363.144531 C 219.765625 364.214844 220.398438 365.320312 220.976562 366.453125 C 221.550781 367.589844 222.074219 368.75 222.535156 369.933594 C 223 371.121094 223.402344 372.328125 223.75 373.550781 Z M 223.75 373.550781 " fill-opacity="1" fill-rule="nonzero"/></g></g></g><g clip-path="url(#d58c2601f5)"><g clip-path="url(#6a0f13edaf)"><g clip-path="url(#4fb2858bb1)"><path fill="#2addc6" d="M 365.105469 289.550781 C 365.449219 290.777344 365.734375 292.019531 365.957031 293.273438 C 366.183594 294.527344 366.34375 295.792969 366.441406 297.0625 C 366.542969 298.335938 366.578125 299.609375 366.550781 300.882812 C 366.527344 302.15625 366.4375 303.429688 366.289062 304.695312 C 366.136719 305.960938 365.925781 307.214844 365.652344 308.460938 C 365.378906 309.707031 365.042969 310.9375 364.648438 312.148438 C 364.253906 313.359375 363.800781 314.550781 363.289062 315.71875 C 362.777344 316.886719 362.207031 318.027344 361.585938 319.140625 C 360.960938 320.25 360.285156 321.332031 359.554688 322.375 C 358.824219 323.421875 358.046875 324.429688 357.21875 325.398438 C 356.386719 326.367188 355.515625 327.292969 354.59375 328.175781 C 353.675781 329.0625 352.714844 329.898438 351.710938 330.6875 C 350.710938 331.472656 349.671875 332.210938 348.597656 332.898438 C 347.523438 333.585938 346.417969 334.21875 345.28125 334.796875 C 344.144531 335.375 342.984375 335.894531 341.792969 336.359375 C 340.605469 336.824219 339.398438 337.230469 338.171875 337.574219 C 336.945312 337.917969 335.703125 338.203125 334.449219 338.425781 C 333.191406 338.652344 331.929688 338.8125 330.65625 338.910156 C 329.386719 339.011719 328.113281 339.046875 326.839844 339.023438 C 325.5625 338.996094 324.292969 338.90625 323.027344 338.757812 C 321.761719 338.605469 320.503906 338.394531 319.257812 338.121094 C 318.015625 337.847656 316.785156 337.511719 315.574219 337.117188 C 314.359375 336.722656 313.167969 336.269531 312 335.757812 C 310.832031 335.246094 309.695312 334.679688 308.582031 334.054688 C 307.46875 333.429688 306.390625 332.753906 305.34375 332.023438 C 304.296875 331.292969 303.292969 330.515625 302.320312 329.6875 C 301.351562 328.859375 300.425781 327.984375 299.542969 327.0625 C 298.660156 326.144531 297.824219 325.183594 297.035156 324.179688 C 296.246094 323.179688 295.507812 322.140625 294.820312 321.066406 C 294.136719 319.992188 293.503906 318.886719 292.925781 317.75 C 292.347656 316.613281 291.824219 315.453125 291.359375 314.265625 C 290.898438 313.078125 290.492188 311.867188 290.144531 310.640625 C 289.800781 309.414062 289.515625 308.171875 289.292969 306.917969 C 289.070312 305.660156 288.910156 304.398438 288.808594 303.128906 C 288.710938 301.855469 288.671875 300.582031 288.699219 299.308594 C 288.726562 298.03125 288.8125 296.761719 288.964844 295.496094 C 289.113281 294.230469 289.328125 292.972656 289.601562 291.730469 C 289.875 290.484375 290.207031 289.253906 290.605469 288.042969 C 291 286.828125 291.453125 285.640625 291.964844 284.472656 C 292.476562 283.304688 293.042969 282.164062 293.667969 281.050781 C 294.289062 279.9375 294.96875 278.859375 295.695312 277.8125 C 296.425781 276.769531 297.207031 275.761719 298.035156 274.792969 C 298.863281 273.824219 299.738281 272.894531 300.65625 272.011719 C 301.578125 271.128906 302.539062 270.292969 303.539062 269.503906 C 304.542969 268.714844 305.578125 267.976562 306.652344 267.292969 C 307.726562 266.605469 308.832031 265.972656 309.96875 265.394531 C 311.105469 264.816406 312.269531 264.292969 313.457031 263.832031 C 314.644531 263.367188 315.851562 262.960938 317.078125 262.617188 C 318.308594 262.269531 319.546875 261.984375 320.804688 261.761719 C 322.058594 261.539062 323.324219 261.378906 324.59375 261.277344 C 325.863281 261.179688 327.136719 261.140625 328.414062 261.167969 C 329.6875 261.195312 330.957031 261.28125 332.226562 261.433594 C 333.492188 261.582031 334.746094 261.796875 335.992188 262.070312 C 337.238281 262.34375 338.464844 262.679688 339.679688 263.074219 C 340.890625 263.46875 342.082031 263.921875 343.25 264.433594 C 344.417969 264.945312 345.558594 265.511719 346.671875 266.136719 C 347.78125 266.757812 348.863281 267.4375 349.90625 268.167969 C 350.953125 268.894531 351.960938 269.675781 352.929688 270.503906 C 353.898438 271.332031 354.824219 272.207031 355.707031 273.125 C 356.589844 274.046875 357.425781 275.007812 358.214844 276.007812 C 359.003906 277.011719 359.742188 278.050781 360.429688 279.125 C 361.117188 280.199219 361.75 281.304688 362.328125 282.441406 C 362.90625 283.578125 363.425781 284.738281 363.890625 285.925781 C 364.355469 287.113281 364.757812 288.320312 365.105469 289.550781 Z M 365.105469 289.550781 " fill-opacity="1" fill-rule="nonzero"/></g></g></g></svg>