<svg xmlns="http://www.w3.org/2000/svg" xmlns:xlink="http://www.w3.org/1999/xlink" width="1080" zoomAndPan="magnify" viewBox="0 0 810 809.999993" height="1080" preserveAspectRatio="xMidYMid meet" version="1.0"><rect x="-81" width="972" fill="#ffffff" y="-80.999999" height="971.999992" fill-opacity="1"/><rect x="-81" width="972" fill="#ffffff" y="-80.999999" height="971.999992" fill-opacity="1"/><path fill="#2c1b73" d="M 422.742188 439.652344 C 422.742188 442.910156 421.996094 445.890625 420.5 448.589844 C 419.007812 451.289062 416.710938 453.464844 413.613281 455.121094 C 410.519531 456.777344 406.675781 457.605469 402.082031 457.605469 L 393.59375 457.605469 L 393.59375 477.800781 L 379.898438 477.800781 L 379.898438 421.539062 L 402.082031 421.539062 C 406.566406 421.539062 410.359375 422.3125 413.453125 423.863281 C 416.550781 425.414062 418.875 427.550781 420.421875 430.277344 C 421.96875 433 422.742188 436.125 422.742188 439.652344 Z M 401.042969 446.707031 C 403.65625 446.707031 405.605469 446.089844 406.886719 444.863281 C 408.167969 443.632812 408.808594 441.898438 408.808594 439.652344 C 408.808594 437.410156 408.167969 435.671875 406.886719 434.441406 C 405.605469 433.214844 403.65625 432.601562 401.042969 432.601562 L 393.59375 432.601562 L 393.59375 446.707031 Z M 401.042969 446.707031 " fill-opacity="1" fill-rule="nonzero"/><path fill="#2c1b73" d="M 456.460938 478.363281 C 451.171875 478.363281 446.328125 477.136719 441.921875 474.675781 C 437.519531 472.21875 434.023438 468.785156 431.433594 464.378906 C 428.84375 459.96875 427.550781 455.015625 427.550781 449.511719 C 427.550781 444.007812 428.84375 439.066406 431.433594 434.683594 C 434.023438 430.300781 437.519531 426.882812 441.921875 424.425781 C 446.328125 421.96875 451.171875 420.738281 456.460938 420.738281 C 461.746094 420.738281 466.589844 421.96875 470.992188 424.425781 C 475.398438 426.882812 478.867188 430.300781 481.40625 434.683594 C 483.941406 439.066406 485.207031 444.007812 485.207031 449.511719 C 485.207031 455.015625 483.925781 459.96875 481.363281 464.378906 C 478.800781 468.785156 475.332031 472.21875 470.953125 474.675781 C 466.574219 477.136719 461.746094 478.363281 456.460938 478.363281 Z M 456.460938 465.859375 C 460.945312 465.859375 464.535156 464.363281 467.230469 461.371094 C 469.925781 458.378906 471.273438 454.425781 471.273438 449.511719 C 471.273438 444.542969 469.925781 440.574219 467.230469 437.609375 C 464.535156 434.644531 460.945312 433.160156 456.460938 433.160156 C 451.921875 433.160156 448.304688 434.628906 445.609375 437.570312 C 442.910156 440.507812 441.5625 444.488281 441.5625 449.511719 C 441.5625 454.480469 442.910156 458.445312 445.609375 461.414062 C 448.304688 464.378906 451.921875 465.859375 456.460938 465.859375 Z M 456.460938 465.859375 " fill-opacity="1" fill-rule="nonzero"/><path fill="#2c1b73" d="M 570.175781 421.539062 L 555.519531 477.800781 L 538.945312 477.800781 L 529.976562 440.773438 L 520.683594 477.800781 L 504.109375 477.800781 L 489.851562 421.539062 L 504.507812 421.539062 L 512.597656 462.496094 L 522.609375 421.539062 L 537.664062 421.539062 L 547.273438 462.496094 L 555.441406 421.539062 Z M 570.175781 421.539062 " fill-opacity="1" fill-rule="nonzero"/><path fill="#2c1b73" d="M 590.757812 432.519531 L 590.757812 443.898438 L 609.097656 443.898438 L 609.097656 454.480469 L 590.757812 454.480469 L 590.757812 466.824219 L 611.5 466.824219 L 611.5 477.800781 L 577.0625 477.800781 L 577.0625 421.539062 L 611.5 421.539062 L 611.5 432.519531 Z M 590.757812 432.519531 " fill-opacity="1" fill-rule="nonzero"/><path fill="#2c1b73" d="M 649.058594 477.800781 L 637.367188 456.5625 L 634.082031 456.5625 L 634.082031 477.800781 L 620.386719 477.800781 L 620.386719 421.539062 L 643.371094 421.539062 C 647.804688 421.539062 651.582031 422.3125 654.703125 423.863281 C 657.828125 425.414062 660.164062 427.539062 661.710938 430.234375 C 663.257812 432.933594 664.035156 435.941406 664.035156 439.253906 C 664.035156 442.992188 662.980469 446.332031 660.871094 449.269531 C 658.761719 452.210938 655.652344 454.292969 651.539062 455.523438 L 664.515625 477.800781 Z M 634.082031 446.867188 L 642.570312 446.867188 C 645.082031 446.867188 646.960938 446.25 648.21875 445.023438 C 649.472656 443.792969 650.097656 442.058594 650.097656 439.8125 C 650.097656 437.675781 649.472656 435.992188 648.21875 434.765625 C 646.960938 433.535156 645.082031 432.921875 642.570312 432.921875 L 634.082031 432.921875 Z M 634.082031 446.867188 " fill-opacity="1" fill-rule="nonzero"/><path fill="#2c1b73" d="M 428.589844 495.054688 L 428.589844 551.316406 L 414.894531 551.316406 L 414.894531 528.152344 L 393.59375 528.152344 L 393.59375 551.316406 L 379.898438 551.316406 L 379.898438 495.054688 L 393.59375 495.054688 L 393.59375 517.09375 L 414.894531 517.09375 L 414.894531 495.054688 Z M 428.589844 495.054688 " fill-opacity="1" fill-rule="nonzero"/><path fill="#2c1b73" d="M 465.027344 551.875 C 459.742188 551.875 454.898438 550.652344 450.492188 548.1875 C 446.089844 545.734375 442.589844 542.300781 440 537.890625 C 437.414062 533.484375 436.117188 528.527344 436.117188 523.023438 C 436.117188 517.519531 437.414062 512.578125 440 508.195312 C 442.589844 503.816406 446.089844 500.394531 450.492188 497.9375 C 454.898438 495.480469 459.742188 494.25 465.027344 494.25 C 470.3125 494.25 475.15625 495.480469 479.5625 497.9375 C 483.96875 500.394531 487.4375 503.816406 489.972656 508.195312 C 492.507812 512.578125 493.777344 517.519531 493.777344 523.023438 C 493.777344 528.527344 492.496094 533.484375 489.933594 537.890625 C 487.371094 542.300781 483.902344 545.734375 479.523438 548.1875 C 475.144531 550.652344 470.3125 551.875 465.027344 551.875 Z M 465.027344 539.375 C 469.511719 539.375 473.101562 537.878906 475.800781 534.886719 C 478.496094 531.894531 479.84375 527.941406 479.84375 523.023438 C 479.84375 518.054688 478.496094 514.089844 475.800781 511.121094 C 473.101562 508.15625 469.511719 506.675781 465.027344 506.675781 C 460.488281 506.675781 456.871094 508.144531 454.175781 511.082031 C 451.480469 514.019531 450.132812 518 450.132812 523.023438 C 450.132812 527.992188 451.480469 531.960938 454.175781 534.925781 C 456.871094 537.890625 460.488281 539.375 465.027344 539.375 Z M 465.027344 539.375 " fill-opacity="1" fill-rule="nonzero"/><path fill="#2c1b73" d="M 514.839844 495.054688 L 514.839844 528.714844 C 514.839844 532.082031 515.667969 534.671875 517.320312 536.488281 C 518.976562 538.304688 521.40625 539.214844 524.609375 539.214844 C 527.8125 539.214844 530.269531 538.304688 531.976562 536.488281 C 533.683594 534.671875 534.539062 532.082031 534.539062 528.714844 L 534.539062 495.054688 L 548.234375 495.054688 L 548.234375 528.632812 C 548.234375 533.65625 547.164062 537.90625 545.03125 541.378906 C 542.894531 544.851562 540.027344 547.46875 536.421875 549.234375 C 532.816406 550.996094 528.800781 551.875 524.371094 551.875 C 519.9375 551.875 515.972656 551.007812 512.476562 549.273438 C 508.980469 547.539062 506.21875 544.917969 504.1875 541.417969 C 502.160156 537.917969 501.144531 533.65625 501.144531 528.632812 L 501.144531 495.054688 Z M 514.839844 495.054688 " fill-opacity="1" fill-rule="nonzero"/><path fill="#2c1b73" d="M 586.511719 551.316406 L 574.820312 530.078125 L 571.539062 530.078125 L 571.539062 551.316406 L 557.84375 551.316406 L 557.84375 495.054688 L 580.828125 495.054688 C 585.257812 495.054688 589.035156 495.828125 592.160156 497.378906 C 595.28125 498.925781 597.617188 501.050781 599.167969 503.75 C 600.714844 506.449219 601.488281 509.453125 601.488281 512.765625 C 601.488281 516.507812 600.433594 519.84375 598.324219 522.785156 C 596.214844 525.722656 593.105469 527.804688 588.996094 529.035156 L 601.96875 551.316406 Z M 571.539062 520.378906 L 580.027344 520.378906 C 582.535156 520.378906 584.417969 519.765625 585.671875 518.535156 C 586.925781 517.308594 587.554688 515.570312 587.554688 513.328125 C 587.554688 511.191406 586.925781 509.507812 585.671875 508.277344 C 584.417969 507.046875 582.535156 506.433594 580.027344 506.433594 L 571.539062 506.433594 Z M 571.539062 520.378906 " fill-opacity="1" fill-rule="nonzero"/><path fill="#2c1f71" d="M 218.71875 528.957031 C 218.582031 529.175781 218.378906 529.339844 218.140625 529.410156 C 217.902344 529.472656 217.628906 529.4375 217.390625 529.308594 C 174.40625 504.09375 145.515625 457.375 145.515625 403.953125 C 145.515625 323.824219 210.515625 258.769531 290.597656 258.769531 C 302.882812 258.769531 314.828125 260.300781 326.226562 263.191406 C 326.570312 263.28125 326.839844 263.542969 326.941406 263.878906 C 327.011719 264.214844 326.910156 264.578125 326.671875 264.820312 C 322.859375 268.503906 311.457031 279.550781 309.347656 281.605469 C 309.144531 281.816406 308.835938 281.910156 308.53125 281.871094 C 302.679688 281.011719 296.6875 280.566406 290.597656 280.566406 C 222.5625 280.566406 167.292969 335.855469 167.292969 403.953125 C 167.292969 449.304688 191.796875 488.972656 228.28125 510.414062 C 228.722656 510.683594 228.894531 511.269531 228.621094 511.726562 C 225.21875 517.632812 221.882812 523.441406 218.71875 528.957031 Z M 357.675781 276.523438 C 357.742188 276.242188 357.945312 276.015625 358.21875 275.90625 C 358.492188 275.792969 358.796875 275.808594 359.070312 275.941406 C 386.160156 290.496094 408.113281 313.417969 421.453125 341.238281 C 430.539062 360.226562 433.636719 379.457031 433.976562 387.265625 C 433.976562 387.382812 434.25 390.203125 434.554688 393.582031 C 434.726562 396.589844 433.636719 399.535156 431.558594 401.71875 C 429.484375 403.90625 426.589844 405.144531 423.597656 405.144531 C 423.390625 405.148438 423.1875 405.148438 423.019531 405.148438 C 417.777344 405.148438 413.453125 401.097656 413.113281 395.886719 C 412.84375 392.214844 412.535156 388.808594 412.535156 388.628906 C 410.492188 368.871094 409.542969 366.804688 401.816406 350.671875 C 391.0625 328.257812 373.738281 309.585938 352.367188 297.164062 C 351.957031 296.941406 351.789062 296.480469 351.921875 296.054688 C 352.84375 292.894531 356.550781 280.375 357.675781 276.523438 Z M 258.539062 523.613281 C 258.777344 523.375 259.117188 523.277344 259.457031 523.367188 C 269.394531 525.960938 279.839844 527.339844 290.597656 527.339844 C 310.0625 527.339844 328.476562 522.820312 344.84375 514.765625 C 348.382812 513.050781 352.535156 513.273438 355.871094 515.359375 C 359.207031 517.445312 361.25 521.101562 361.25 525.035156 C 361.25 525.851562 361.25 526.621094 361.25 527.304688 C 361.25 529.457031 360.058594 531.433594 358.152344 532.445312 C 337.96875 543.105469 314.996094 549.140625 290.597656 549.140625 C 273.886719 549.140625 257.789062 546.304688 242.847656 541.082031 C 242.542969 540.96875 242.304688 540.707031 242.234375 540.382812 C 242.167969 540.054688 242.269531 539.71875 242.472656 539.484375 C 245.910156 536.089844 256.359375 525.746094 258.539062 523.613281 Z M 341.167969 267.847656 C 343.039062 268.554688 344.945312 269.300781 346.785156 270.085938 L 340.589844 291.148438 C 335.078125 288.695312 329.359375 286.636719 323.4375 285.007812 Z M 240.023438 516.496094 C 241.929688 517.359375 243.867188 518.175781 245.808594 518.941406 L 229.097656 535.476562 Z M 240.023438 516.496094 " fill-opacity="1" fill-rule="evenodd"/><path fill="#f6458d" d="M 361.429688 242.183594 C 361.605469 241.765625 361.429688 241.3125 360.996094 241.085938 C 360.644531 240.859375 360.121094 240.910156 359.859375 241.214844 C 339.972656 260.4375 214.640625 381.917969 202.253906 393.9375 C 202.078125 394.15625 201.992188 394.472656 201.992188 394.777344 C 202.078125 395.089844 202.253906 395.351562 202.515625 395.492188 C 211.847656 400.074219 271.417969 429.265625 279.53125 433.261719 C 279.792969 433.386719 279.96875 433.59375 280.054688 433.847656 C 280.140625 434.101562 280.140625 434.382812 279.96875 434.617188 C 274.125 444.855469 219.4375 540.105469 204.871094 565.464844 C 204.609375 565.882812 204.695312 566.417969 205.132812 566.703125 C 205.480469 567 206.003906 566.964844 206.351562 566.625 C 234.089844 539.183594 366.925781 407.773438 379.050781 395.773438 C 379.222656 395.5625 379.3125 395.265625 379.3125 394.96875 C 379.3125 394.671875 379.136719 394.410156 378.875 394.253906 C 371.808594 390.054688 332.035156 366.453125 326.457031 363.152344 C 326.105469 362.925781 325.929688 362.472656 326.019531 362.042969 C 328.722656 352.992188 355.761719 261.398438 361.429688 242.183594 Z M 361.429688 242.183594 " fill-opacity="1" fill-rule="evenodd"/></svg>