<?xml version="1.0" encoding="UTF-8" standalone="no"?>
<!DOCTYPE svg PUBLIC "-//W3C//DTD SVG 1.1//EN" "http://www.w3.org/Graphics/SVG/1.1/DTD/svg11.dtd">
<svg width="100%" height="100%" viewBox="0 0 1904 1112" version="1.1" xmlns="http://www.w3.org/2000/svg" xmlns:xlink="http://www.w3.org/1999/xlink" xml:space="preserve" xmlns:serif="http://www.serif.com/" style="fill-rule:evenodd;clip-rule:evenodd;stroke-linejoin:round;stroke-miterlimit:2;">
    <g transform="matrix(1,0,0,1,-8803,-494.819)">
        <g id="Business-Lunch" serif:id="Business Lunch" transform="matrix(1.76296,0,0,1.02963,6858.45,494.819)">
            <rect x="1103" y="0" width="1080" height="1080" style="fill:none;"/>
            <g transform="matrix(-0.323688,0.0780326,-0.0455737,-0.554228,2327.63,1387.63)">
                <path d="M2275.13,1387.37C2274.7,1387.7 2274.3,1388.07 2273.91,1388.45C2273.91,1388.45 2273.91,1388.45 2273.91,1388.45C2262.81,1399.56 2262.27,1417.39 2272.69,1429.14C2319.15,1482.02 2344.97,1550.18 2344.97,1621C2344.97,1781.59 2214.59,1911.97 2054,1911.97C1983.22,1911.97 1915.1,1886.18 1862.2,1839.8C1850.88,1829.79 1833.99,1829.87 1822.81,1839.72C1822.3,1840.1 1821.84,1840.53 1821.38,1840.99L1821.38,1840.99C1815.88,1846.49 1812.88,1854.02 1813.09,1861.8C1813.3,1869.58 1816.7,1876.93 1822.49,1882.13C1822.51,1882.14 1822.52,1882.15 1822.54,1882.17C1886.2,1938.54 1968.48,1969.93 2054,1969.93C2246.58,1969.93 2402.93,1813.58 2402.93,1621C2402.93,1535.52 2371.57,1453.27 2315.21,1389.64C2315.19,1389.63 2315.18,1389.62 2315.17,1389.6C2309.96,1383.8 2302.6,1380.39 2294.8,1380.18C2287.54,1379.98 2280.51,1382.57 2275.13,1387.37Z" style="fill:rgb(44,31,113);stroke:rgb(44,34,111);stroke-width:15.62px;"/>
            </g>
            <g transform="matrix(0.579178,0.685809,-0.172159,1.16703,-3752.23,-6180.39)">
                <path d="M9252.02,261.617L9092.29,102.659C9087.94,98.337 9079.36,99.91 9073.13,106.169C9066.9,112.428 9065.37,121.019 9069.71,125.341L9229.44,284.299C9233.79,288.622 9242.37,287.049 9248.6,280.789C9254.83,274.53 9256.36,265.939 9252.02,261.617Z" style="fill:rgb(44,34,111);"/>
            </g>
            <g transform="matrix(0.582781,-0.142918,0.124815,0.984766,-3931.16,1668.02)">
                <path d="M9252.02,261.617L9092.29,102.659C9086.46,96.86 9076.67,97.233 9070.44,103.493C9064.21,109.752 9063.89,119.542 9069.71,125.341L9229.44,284.299C9235.27,290.099 9245.06,289.725 9251.29,283.466C9257.52,277.207 9257.84,267.417 9252.02,261.617Z" style="fill:rgb(44,34,111);"/>
            </g>
            <g transform="matrix(0.311605,-0.33136,0.193526,0.533539,1299.28,198.158)">
                <circle cx="443.619" cy="242.381" r="138.619" style="fill:rgb(57,220,198);"/>
            </g>
            <g transform="matrix(0.187462,-0.304365,0.177759,0.320977,1248,542.354)">
                <circle cx="443.619" cy="242.381" r="138.619" style="fill:rgb(249,160,62);"/>
            </g>
            <g transform="matrix(0.137663,0.673143,-0.382176,0.283065,452.605,-5816.97)">
                <path d="M9256.68,256.929L9096.95,97.971C9088.72,89.775 9074.88,90.303 9066.08,99.149C9057.27,107.996 9056.81,121.833 9065.05,130.029L9224.78,288.987C9233.01,297.184 9246.85,296.656 9255.65,287.809C9264.46,278.963 9264.92,265.126 9256.68,256.929Z" style="fill:rgb(44,34,111);"/>
            </g>
            <g transform="matrix(0.149041,0.181182,-0.105816,0.255192,1617.45,184.998)">
                <circle cx="443.619" cy="242.381" r="138.619" style="fill:rgb(246,69,141);"/>
            </g>
            <g transform="matrix(0.422931,-1.15155,0.791586,0.0683423,-2636.6,11328)">
                <path d="M9252.02,261.617L9092.29,102.659C9088.62,99.01 9080.59,101.129 9074.36,107.389C9068.13,113.648 9066.05,121.692 9069.71,125.341L9229.44,284.299C9233.11,287.948 9241.14,285.829 9247.37,279.57C9253.6,273.31 9255.68,265.266 9252.02,261.617Z" style="fill:rgb(44,34,111);"/>
            </g>
            <g transform="matrix(-0.123429,-0.749945,0.437993,-0.211338,1242.87,1262.47)">
                <circle cx="443.619" cy="242.381" r="138.619" style="fill:rgb(246,69,141);"/>
            </g>
            <g transform="matrix(0.633078,0,0,1.08397,1636.91,-192.166)">
                <path d="M-1.106,811.214C5.196,812.557 10.258,815.682 14.081,820.589C17.903,825.496 19.814,831.101 19.814,837.402C19.814,846.493 16.637,853.699 10.284,859.02C3.931,864.34 -4.928,867 -16.292,867L-66.964,867L-66.964,758.217L-17.996,758.217C-6.943,758.217 1.709,760.748 7.96,765.81C14.21,770.872 17.335,777.742 17.335,786.42C17.335,792.825 15.656,798.146 12.298,802.381C8.941,806.617 4.473,809.561 -1.106,811.214ZM-40.466,802.226L-23.11,802.226C-18.771,802.226 -15.44,801.271 -13.115,799.359C-10.791,797.448 -9.629,794.633 -9.629,790.914C-9.629,787.195 -10.791,784.354 -13.115,782.391C-15.44,780.428 -18.771,779.447 -23.11,779.447L-40.466,779.447L-40.466,802.226ZM-20.941,845.615C-16.498,845.615 -13.064,844.608 -10.636,842.594C-8.208,840.579 -6.994,837.661 -6.994,833.838C-6.994,830.016 -8.26,827.02 -10.791,824.851C-13.322,822.681 -16.808,821.596 -21.251,821.596L-40.466,821.596L-40.466,845.615L-20.941,845.615Z" style="fill:rgb(44,27,115);fill-rule:nonzero;"/>
                <path d="M61.189,758.217L61.189,823.301C61.189,829.809 62.79,834.82 65.993,838.332C69.195,841.845 73.896,843.601 80.094,843.601C86.292,843.601 91.045,841.845 94.35,838.332C97.656,834.82 99.309,829.809 99.309,823.301L99.309,758.217L125.808,758.217L125.808,823.146C125.808,832.857 123.741,841.07 119.609,847.785C115.477,854.5 109.924,859.562 102.951,862.971C95.977,866.38 88.204,868.085 79.629,868.085C71.055,868.085 63.384,866.406 56.617,863.048C49.851,859.691 44.505,854.629 40.579,847.862C36.653,841.096 34.69,832.857 34.69,823.146L34.69,758.217L61.189,758.217Z" style="fill:rgb(44,27,115);fill-rule:nonzero;"/>
                <path d="M183.763,868.085C175.808,868.085 168.68,866.793 162.378,864.211C156.077,861.628 151.04,857.806 147.27,852.744C143.499,847.682 141.51,841.586 141.304,834.458L169.507,834.458C169.92,838.487 171.314,841.561 173.691,843.678C176.067,845.796 179.166,846.855 182.988,846.855C186.914,846.855 190.013,845.951 192.286,844.143C194.559,842.335 195.695,839.83 195.695,836.628C195.695,833.942 194.791,831.721 192.983,829.964C191.175,828.208 188.954,826.762 186.32,825.625C183.685,824.489 179.941,823.198 175.085,821.751C168.06,819.582 162.327,817.412 157.884,815.243C153.442,813.074 149.62,809.871 146.417,805.635C143.215,801.4 141.614,795.873 141.614,789.055C141.614,778.93 145.281,771.002 152.616,765.268C159.951,759.534 169.507,756.668 181.284,756.668C193.267,756.668 202.927,759.534 210.261,765.268C217.596,771.002 221.522,778.982 222.038,789.21L193.371,789.21C193.164,785.697 191.873,782.934 189.497,780.919C187.12,778.905 184.073,777.897 180.354,777.897C177.151,777.897 174.569,778.75 172.606,780.454C170.643,782.159 169.662,784.612 169.662,787.815C169.662,791.327 171.314,794.065 174.62,796.028C177.926,797.991 183.091,800.108 190.116,802.381C197.141,804.757 202.849,807.03 207.24,809.199C211.63,811.369 215.427,814.52 218.629,818.652C221.832,822.784 223.433,828.105 223.433,834.613C223.433,840.812 221.858,846.442 218.707,851.504C215.556,856.566 210.984,860.595 204.993,863.591C199.001,866.587 191.924,868.085 183.763,868.085Z" style="fill:rgb(44,27,115);fill-rule:nonzero;"/>
                <rect x="239.704" y="758.217" width="26.498" height="108.783" style="fill:rgb(44,27,115);fill-rule:nonzero;"/>
                <path d="M382.733,867L356.235,867L311.916,799.902L311.916,867L285.417,867L285.417,758.217L311.916,758.217L356.235,825.625L356.235,758.217L382.733,758.217L382.733,867Z" style="fill:rgb(44,27,115);fill-rule:nonzero;"/>
                <path d="M428.447,779.447L428.447,801.451L463.933,801.451L463.933,821.906L428.447,821.906L428.447,845.77L468.582,845.77L468.582,867L401.948,867L401.948,758.217L468.582,758.217L468.582,779.447L428.447,779.447Z" style="fill:rgb(44,27,115);fill-rule:nonzero;"/>
                <path d="M525.142,868.085C517.188,868.085 510.059,866.793 503.758,864.211C497.456,861.628 492.42,857.806 488.649,852.744C484.878,847.682 482.89,841.586 482.683,834.458L510.886,834.458C511.299,838.487 512.694,841.561 515.07,843.678C517.446,845.796 520.545,846.855 524.368,846.855C528.293,846.855 531.392,845.951 533.665,844.143C535.938,842.335 537.074,839.83 537.074,836.628C537.074,833.942 536.17,831.721 534.363,829.964C532.555,828.208 530.334,826.762 527.699,825.625C525.065,824.489 521.32,823.198 516.465,821.751C509.44,819.582 503.706,817.412 499.264,815.243C494.822,813.074 490.999,809.871 487.797,805.635C484.594,801.4 482.993,795.873 482.993,789.055C482.993,778.93 486.66,771.002 493.995,765.268C501.33,759.534 510.886,756.668 522.663,756.668C534.647,756.668 544.306,759.534 551.641,765.268C558.976,771.002 562.901,778.982 563.418,789.21L534.75,789.21C534.543,785.697 533.252,782.934 530.876,780.919C528.5,778.905 525.452,777.897 521.733,777.897C518.531,777.897 515.948,778.75 513.985,780.454C512.022,782.159 511.041,784.612 511.041,787.815C511.041,791.327 512.694,794.065 516,796.028C519.306,797.991 524.471,800.108 531.496,802.381C538.521,804.757 544.228,807.03 548.619,809.199C553.01,811.369 556.806,814.52 560.009,818.652C563.211,822.784 564.812,828.105 564.812,834.613C564.812,840.812 563.237,846.442 560.086,851.504C556.935,856.566 552.364,860.595 546.372,863.591C540.38,866.587 533.304,868.085 525.142,868.085Z" style="fill:rgb(44,27,115);fill-rule:nonzero;"/>
                <path d="M620.443,868.085C612.489,868.085 605.361,866.793 599.059,864.211C592.757,861.628 587.721,857.806 583.95,852.744C580.179,847.682 578.191,841.586 577.984,834.458L606.187,834.458C606.6,838.487 607.995,841.561 610.371,843.678C612.747,845.796 615.846,846.855 619.669,846.855C623.594,846.855 626.694,845.951 628.966,844.143C631.239,842.335 632.375,839.83 632.375,836.628C632.375,833.942 631.472,831.721 629.664,829.964C627.856,828.208 625.635,826.762 623,825.625C620.366,824.489 616.621,823.198 611.766,821.751C604.741,819.582 599.007,817.412 594.565,815.243C590.123,813.074 586.3,809.871 583.098,805.635C579.895,801.4 578.294,795.873 578.294,789.055C578.294,778.93 581.961,771.002 589.296,765.268C596.631,759.534 606.187,756.668 617.964,756.668C629.948,756.668 639.607,759.534 646.942,765.268C654.277,771.002 658.202,778.982 658.719,789.21L630.051,789.21C629.844,785.697 628.553,782.934 626.177,780.919C623.801,778.905 620.753,777.897 617.034,777.897C613.832,777.897 611.249,778.75 609.286,780.454C607.323,782.159 606.342,784.612 606.342,787.815C606.342,791.327 607.995,794.065 611.301,796.028C614.607,797.991 619.772,800.108 626.797,802.381C633.822,804.757 639.53,807.03 643.92,809.199C648.311,811.369 652.107,814.52 655.31,818.652C658.512,822.784 660.114,828.105 660.114,834.613C660.114,840.812 658.538,846.442 655.387,851.504C652.236,856.566 647.665,860.595 641.673,863.591C635.681,866.587 628.605,868.085 620.443,868.085Z" style="fill:rgb(44,27,115);fill-rule:nonzero;"/>
                <path d="M-40.466,988.682L-5.755,988.682L-5.755,1009.14L-66.964,1009.14L-66.964,900.354L-40.466,900.354L-40.466,988.682Z" style="fill:rgb(44,27,115);fill-rule:nonzero;"/>
                <path d="M32.986,900.354L32.986,965.437C32.986,971.946 34.587,976.956 37.79,980.469C40.992,983.981 45.693,985.737 51.891,985.737C58.089,985.737 62.842,983.981 66.147,980.469C69.453,976.956 71.106,971.946 71.106,965.437L71.106,900.354L97.605,900.354L97.605,965.282C97.605,974.993 95.538,983.206 91.406,989.921C87.274,996.636 81.721,1001.7 74.748,1005.11C67.775,1008.52 60.001,1010.22 51.426,1010.22C42.852,1010.22 35.181,1008.54 28.414,1005.19C21.648,1001.83 16.302,996.765 12.376,989.999C8.45,983.232 6.487,974.993 6.487,965.282L6.487,900.354L32.986,900.354Z" style="fill:rgb(44,27,115);fill-rule:nonzero;"/>
                <path d="M213.516,1009.14L187.017,1009.14L142.698,942.038L142.698,1009.14L116.2,1009.14L116.2,900.354L142.698,900.354L187.017,967.762L187.017,900.354L213.516,900.354L213.516,1009.14Z" style="fill:rgb(44,27,115);fill-rule:nonzero;"/>
                <path d="M228.237,954.59C228.237,943.846 230.561,934.264 235.21,925.845C239.859,917.425 246.341,910.865 254.658,906.165C262.974,901.464 272.401,899.114 282.938,899.114C295.852,899.114 306.905,902.523 316.1,909.341C325.294,916.16 331.441,925.457 334.54,937.234L305.407,937.234C303.238,932.689 300.165,929.228 296.187,926.852C292.21,924.476 287.69,923.288 282.628,923.288C274.467,923.288 267.855,926.129 262.793,931.811C257.731,937.493 255.2,945.086 255.2,954.59C255.2,964.094 257.731,971.688 262.793,977.369C267.855,983.051 274.467,985.892 282.628,985.892C287.69,985.892 292.21,984.704 296.187,982.328C300.165,979.952 303.238,976.491 305.407,971.946L334.54,971.946C331.441,983.723 325.294,992.995 316.1,999.761C306.905,1006.53 295.852,1009.91 282.938,1009.91C272.401,1009.91 262.974,1007.56 254.658,1002.86C246.341,998.16 239.859,991.626 235.21,983.258C230.561,974.89 228.237,965.334 228.237,954.59Z" style="fill:rgb(44,27,115);fill-rule:nonzero;"/>
                <path d="M445.027,900.354L445.027,1009.14L418.529,1009.14L418.529,964.353L377.309,964.353L377.309,1009.14L350.811,1009.14L350.811,900.354L377.309,900.354L377.309,942.968L418.529,942.968L418.529,900.354L445.027,900.354Z" style="fill:rgb(44,27,115);fill-rule:nonzero;"/>
            </g>
        </g>
    </g>
</svg>
