<?xml version="1.0" encoding="UTF-8" standalone="no"?>
<!DOCTYPE svg PUBLIC "-//W3C//DTD SVG 1.1//EN" "http://www.w3.org/Graphics/SVG/1.1/DTD/svg11.dtd">
<svg width="100%" height="100%" viewBox="0 0 1904 1112" version="1.1" xmlns="http://www.w3.org/2000/svg" xmlns:xlink="http://www.w3.org/1999/xlink" xml:space="preserve" xmlns:serif="http://www.serif.com/" style="fill-rule:evenodd;clip-rule:evenodd;stroke-linejoin:round;stroke-miterlimit:2;">
    <g transform="matrix(1,0,0,1,-10913.8,0)">
        <g transform="matrix(1.76296,0,0,1.02963,8969.28,0)">
            <rect id="Tribe-Nights" serif:id="Tribe Nights" x="1103" y="0" width="1080" height="1080" style="fill:none;"/>
            <g id="Tribe-Nights1" serif:id="Tribe Nights">
                <g transform="matrix(0.161676,0.98895,-0.573716,0.278691,1486.4,81.1491)">
                    <circle cx="443.619" cy="242.381" r="138.619" style="fill:rgb(246,69,141);"/>
                </g>
                <g transform="matrix(-0.408163,0.436964,-0.253494,-0.703576,1809.01,328.772)">
                    <circle cx="443.619" cy="242.381" r="138.619" style="fill:rgb(57,220,198);"/>
                </g>
                <g transform="matrix(-0.245551,0.401365,-0.232842,-0.423271,1584.43,161.819)">
                    <circle cx="443.619" cy="242.381" r="138.619" style="fill:rgb(249,160,62);"/>
                </g>
                <g transform="matrix(0.837958,0,0,1.44444,1610.3,-535.193)">
                    <path d="M11.291,758.217L11.291,779.447L-17.532,779.447L-17.532,867L-44.03,867L-44.03,779.447L-72.853,779.447L-72.853,758.217L11.291,758.217Z" style="fill:rgb(44,27,115);fill-rule:nonzero;"/>
                    <path d="M80.094,867L57.47,825.935L51.116,825.935L51.116,867L24.618,867L24.618,758.217L69.092,758.217C77.666,758.217 84.975,759.715 91.019,762.711C97.062,765.707 101.582,769.814 104.578,775.031C107.574,780.248 109.072,786.059 109.072,792.464C109.072,799.695 107.031,806.152 102.951,811.834C98.87,817.516 92.852,821.545 84.898,823.921L110.001,867L80.094,867ZM51.116,807.185L67.542,807.185C72.398,807.185 76.039,805.997 78.467,803.621C80.895,801.245 82.108,797.887 82.108,793.548C82.108,789.416 80.895,786.162 78.467,783.786C76.039,781.41 72.398,780.222 67.542,780.222L51.116,780.222L51.116,807.185Z" style="fill:rgb(44,27,115);fill-rule:nonzero;"/>
                    <rect x="125.653" y="758.217" width="26.498" height="108.783" style="fill:rgb(44,27,115);fill-rule:nonzero;"/>
                    <path d="M237.225,811.214C243.526,812.557 248.588,815.682 252.411,820.589C256.233,825.496 258.144,831.101 258.144,837.402C258.144,846.493 254.968,853.699 248.614,859.02C242.261,864.34 233.402,867 222.038,867L171.366,867L171.366,758.217L220.334,758.217C231.388,758.217 240.04,760.748 246.29,765.81C252.54,770.872 255.665,777.742 255.665,786.42C255.665,792.825 253.986,798.146 250.629,802.381C247.271,806.617 242.803,809.561 237.225,811.214ZM197.864,802.226L215.22,802.226C219.559,802.226 222.891,801.271 225.215,799.359C227.54,797.448 228.702,794.633 228.702,790.914C228.702,787.195 227.54,784.354 225.215,782.391C222.891,780.428 219.559,779.447 215.22,779.447L197.864,779.447L197.864,802.226ZM217.39,845.615C221.832,845.615 225.267,844.608 227.694,842.594C230.122,840.579 231.336,837.661 231.336,833.838C231.336,830.016 230.071,827.02 227.54,824.851C225.008,822.681 221.522,821.596 217.08,821.596L197.864,821.596L197.864,845.615L217.39,845.615Z" style="fill:rgb(44,27,115);fill-rule:nonzero;"/>
                    <path d="M299.984,779.447L299.984,801.451L335.47,801.451L335.47,821.906L299.984,821.906L299.984,845.77L340.119,845.77L340.119,867L273.485,867L273.485,758.217L340.119,758.217L340.119,779.447L299.984,779.447Z" style="fill:rgb(44,27,115);fill-rule:nonzero;"/>
                    <path d="M30.351,1009.14L3.853,1009.14L-40.466,942.038L-40.466,1009.14L-66.964,1009.14L-66.964,900.354L-40.466,900.354L3.853,967.762L3.853,900.354L30.351,900.354L30.351,1009.14Z" style="fill:rgb(44,27,115);fill-rule:nonzero;"/>
                    <rect x="49.567" y="900.354" width="26.498" height="108.783" style="fill:rgb(44,27,115);fill-rule:nonzero;"/>
                    <path d="M167.492,934.755C165.529,931.139 162.714,928.376 159.047,926.465C155.379,924.554 151.066,923.598 146.107,923.598C137.533,923.598 130.663,926.413 125.498,932.043C120.332,937.674 117.75,945.189 117.75,954.59C117.75,964.611 120.461,972.437 125.885,978.067C131.309,983.697 138.773,986.512 148.277,986.512C154.785,986.512 160.286,984.859 164.78,981.553C169.274,978.248 172.554,973.495 174.62,967.297L140.994,967.297L140.994,947.772L198.639,947.772L198.639,972.411C196.676,979.022 193.345,985.169 188.644,990.851C183.944,996.533 177.978,1001.13 170.746,1004.64C163.515,1008.15 155.353,1009.91 146.262,1009.91C135.518,1009.91 125.937,1007.56 117.517,1002.86C109.098,998.16 102.538,991.626 97.837,983.258C93.137,974.89 90.786,965.334 90.786,954.59C90.786,943.846 93.137,934.264 97.837,925.845C102.538,917.425 109.072,910.865 117.44,906.165C125.808,901.464 135.363,899.114 146.107,899.114C159.124,899.114 170.101,902.265 179.037,908.567C187.973,914.868 193.887,923.598 196.78,934.755L167.492,934.755Z" style="fill:rgb(44,27,115);fill-rule:nonzero;"/>
                    <path d="M307.577,900.354L307.577,1009.14L281.079,1009.14L281.079,964.353L239.859,964.353L239.859,1009.14L213.361,1009.14L213.361,900.354L239.859,900.354L239.859,942.968L281.079,942.968L281.079,900.354L307.577,900.354Z" style="fill:rgb(44,27,115);fill-rule:nonzero;"/>
                    <path d="M404.893,900.354L404.893,921.583L376.07,921.583L376.07,1009.14L349.571,1009.14L349.571,921.583L320.749,921.583L320.749,900.354L404.893,900.354Z" style="fill:rgb(44,27,115);fill-rule:nonzero;"/>
                </g>
            </g>
        </g>
    </g>
</svg>
