<?xml version="1.0" encoding="UTF-8" standalone="no"?><!DOCTYPE svg PUBLIC "-//W3C//DTD SVG 1.1//EN" "http://www.w3.org/Graphics/SVG/1.1/DTD/svg11.dtd"><svg width="100%" height="100%" viewBox="0 0 3771 2505" version="1.1" xmlns="http://www.w3.org/2000/svg" xmlns:xlink="http://www.w3.org/1999/xlink" xml:space="preserve" xmlns:serif="http://www.serif.com/" style="fill-rule:evenodd;clip-rule:evenodd;stroke-linejoin:round;stroke-miterlimit:2;"><rect id="Virtual-Business-Networking" serif:id="Virtual Business Networking" x="-0" y="0" width="3770.83" height="2504.17" style="fill:none;"/><g transform="matrix(2.02614,0,0,2.02614,597.749,20.3179)"><text x="-76.572px" y="867px" style="font-family:'Poppins-Bold', 'Poppins';font-weight:700;font-size:154.961px;fill:#2c1f71;">VIRTUAL BUSINESS</text><text x="-76.572px" y="1009.14px" style="font-family:'Poppins-Bold', 'Poppins';font-weight:700;font-size:154.961px;fill:#2c1f71;">NETWORKING</text></g><g><path d="M1514.33,1147.78c9.8,-18.847 10.301,-41.174 1.355,-60.442c-8.945,-19.267 -26.325,-33.293 -47.046,-37.968c-112.394,-25.732 -232.735,6.732 -317.299,90.762c-43.646,43.371 -74.384,97.306 -89.716,155.83c-5.397,20.46 -1.011,42.266 11.877,59.048c12.887,16.782 32.822,26.648 53.981,26.715c0.002,0.007 0.003,0.007 0.005,0.007c39.495,0.124 74.778,-24.663 88.055,-61.86c9.297,-26.235 24.417,-50.319 44.536,-70.311c42.499,-42.231 101.469,-60.723 158.467,-52.661c39.103,5.601 77.478,-14.111 95.702,-49.159c0.082,0.041 0.083,0.04 0.083,0.039Z" style="fill:#f6458d;"/><path d="M1613.74,912.285c8.77,-18.183 9.256,-39.268 1.333,-57.836c-7.923,-18.568 -23.482,-32.807 -42.677,-39.058c-210.543,-68.879 -444.996,-15.462 -605.246,143.777c-93.209,92.621 -152.658,212.868 -170.351,341.61c-2.751,19.985 3.261,40.185 16.494,55.412c13.232,15.228 32.395,24 52.569,24.063c-0,0.03 0,0.03 0,0.03c39.708,0.125 73.592,-28.687 79.851,-67.899c14.67,-93.275 58.655,-180.147 126.461,-247.525c117.996,-117.252 289.633,-158.005 445.277,-110.561c38.065,11.705 78.972,-6.15 96.271,-42.02c0.018,0.008 0.018,0.008 0.018,0.007Z" style="fill:#39dcc6;"/><path d="M1735.14,639.945c13.528,-28.794 13.958,-62.028 1.18,-91.163c-12.778,-29.134 -37.518,-51.329 -67.864,-60.881c-329.981,-104.295 -695.313,-19.065 -945.606,229.648c-147.124,146.196 -240.919,336.034 -268.743,539.266c-4.306,31.408 5.156,63.146 25.957,87.069c20.801,23.923 50.916,37.703 82.618,37.803c0.002,0.046 0.003,0.046 0.005,0.046c62.84,0.199 116.47,-45.381 126.407,-107.43c23.191,-146.984 92.54,-283.869 199.401,-390.057c184.224,-183.061 451.545,-248.034 695.351,-176.451c60.262,17.863 124.536,-10.973 151.262,-67.862c0.031,0.014 0.032,0.013 0.032,0.012Z" style="fill:#2c1f71;"/></g></svg>