<?xml version="1.0" encoding="UTF-8" standalone="no"?>
<!DOCTYPE svg PUBLIC "-//W3C//DTD SVG 1.1//EN" "http://www.w3.org/Graphics/SVG/1.1/DTD/svg11.dtd">
<svg width="100%" height="100%" viewBox="0 0 2134 2134" version="1.1" xmlns="http://www.w3.org/2000/svg" xmlns:xlink="http://www.w3.org/1999/xlink" xml:space="preserve" xmlns:serif="http://www.serif.com/" style="fill-rule:evenodd;clip-rule:evenodd;strokeLinejoin:round;stroke-miterlimit:2;">
    <g id="Artboard1" transform="matrix(1.33695,0,0,1,-0.0997162,0)">
        <rect x="0.075" y="0" width="1596.17" height="2134" style="fill:none;"/>
        <g transform="matrix(0.747973,0,0,1,199.833,0)">
            <path d="M1200,1492.92C1258.25,1459.22 1273.04,1367.75 1320.33,1320.46C1367.62,1273.17 1459.08,1258.46 1492.79,1200.17C1526.04,1142.71 1493.48,1056.25 1511.01,990.628C1527.92,927.086 1596.25,868.753 1596.25,800.003C1596.25,731.253 1524.29,672.836 1507.33,609.461C1489.8,543.836 1522.38,457.378 1489.15,399.92C1455.45,341.67 1364.02,326.92 1316.73,279.628C1269.44,232.336 1254.69,140.878 1196.44,107.17C1138.98,73.924 1052.52,106.488 986.896,88.94C927.083,71.961 868.75,0.003 800,0.003C731.25,0.003 672.917,71.961 609.583,88.92C543.75,106.42 457.5,73.878 399.917,107.086C341.667,140.795 326.917,232.253 279.625,279.503C232.375,326.795 140.875,341.545 107.167,399.795C73.917,457.086 106.5,543.753 88.958,609.17C71.958,672.92 0.003,731.253 0.003,800.003C0.003,868.753 71.962,927.17 88.92,990.545C106.449,1056.17 73.857,1142.63 107.091,1200.09C140.833,1258.34 232.25,1272.92 279.5,1320.42C326.792,1367.71 341.542,1459.17 399.833,1492.92C457.292,1526.16 543.708,1493.58 609.333,1511.12C672.917,1527.92 731.25,1600 800,1600C868.75,1600 927.167,1528.05 990.583,1511.09C1056.25,1493.75 1142.5,1526.25 1200,1492.92ZM466.667,800.003C466.667,615.545 615.875,466.67 800,466.67C984.125,466.67 1133.33,615.545 1133.33,800.003C1133.33,984.045 984.125,1133.34 800,1133.34C615.875,1133.34 466.667,984.17 466.667,800.003Z" style="fill:rgb(42,221,198);fill-rule:nonzero;"/>
        </g>
        <g transform="matrix(0.747973,0,0,1,199.833,0)">
            <path d="M1456.67,1462.92C1306.05,1612.21 1104.8,1710.05 880.838,1729.38L1020.75,2071.38C1035.73,2108.03 1069.67,2131.8 1109.26,2133.38C1110.84,2129.59 1108.76,2133.34 1113.76,2133.34C1151.65,2133.34 1185.55,2112.62 1202.71,2078.59L1292.01,1902.42L1480.3,1940.07C1516.11,1947.36 1553.09,1934.24 1576.63,1906.12C1600.2,1877.92 1606.32,1839.2 1592.78,1805.07L1456.67,1462.92ZM7.162,1805C-6.379,1839.12 -0.258,1877.84 23.308,1906.05C46.875,1934.17 83.85,1947.29 119.642,1940L307.933,1902.35L397.225,2078.47C414.417,2112.5 448.333,2133.34 486.25,2133.34C487.682,2133.34 489.017,2133.29 490.45,2133.22C530.033,2131.66 563.992,2107.88 578.95,2071.22L718.867,1729.22C495.075,1709.89 293.867,1612.06 143.033,1462.76L7.162,1805Z" style="fill:rgb(44,31,113);fill-rule:nonzero;"/>
        </g>
    </g>
</svg>
