<svg width="33" height="35" viewBox="0 0 33 35" fill="none" xmlns="http://www.w3.org/2000/svg">
<path d="M31.1853 14.2792H1.88281M23.0457 1.25586V7.76753M10.0224 1.25586V7.76753M9.69681 33.8142H23.3713C26.1065 33.8142 27.474 33.8142 28.5187 33.2819C29.4377 32.8137 30.1848 32.0666 30.653 31.1476C31.1853 30.1029 31.1853 28.7354 31.1853 26.0002V12.3257C31.1853 9.59054 31.1853 8.22296 30.653 7.17827C30.1848 6.25933 29.4377 5.51221 28.5187 5.04399C27.474 4.51169 26.1065 4.51169 23.3713 4.51169H9.69681C6.96166 4.51169 5.59408 4.51169 4.54939 5.04399C3.63045 5.51221 2.88333 6.25933 2.41511 7.17827C1.88281 8.22296 1.88281 9.59054 1.88281 12.3257V26.0002C1.88281 28.7353 1.88281 30.1029 2.41511 31.1476C2.88333 32.0666 3.63045 32.8137 4.54939 33.2819C5.59408 33.8142 6.96166 33.8142 9.69681 33.8142Z" stroke="black" stroke-width="2" stroke-linecap="round" stroke-linejoin="round"/>
</svg>
