<svg width="21" height="20" viewBox="0 0 21 20" fill="none" xmlns="http://www.w3.org/2000/svg">
<path d="M19.2508 7.22524C18.9512 6.9237 18.5826 6.69974 18.1769 6.57275C17.7712 6.44576 17.3407 6.41957 16.9227 6.49645C16.5046 6.57333 16.1116 6.75096 15.7776 7.01395C15.4437 7.27695 15.1789 7.61738 15.0061 8.00578H12.3226C12.2308 7.52635 12.0439 7.07014 11.7731 6.664L13.504 4.93313C14.0571 5.24394 14.7041 5.34352 15.325 5.21339C15.9459 5.08325 16.4985 4.73224 16.8802 4.22552C17.2619 3.7188 17.4468 3.0908 17.4005 2.45809C17.3542 1.82538 17.0799 1.23096 16.6285 0.78518C16.1802 0.334431 15.5833 0.062083 14.949 0.0188977C14.3147 -0.0242876 13.6864 0.164637 13.1811 0.550458C12.6758 0.936279 12.328 1.49267 12.2026 2.11593C12.0772 2.73918 12.1827 3.38678 12.4994 3.938L10.778 5.65944C10.1695 5.25007 9.45276 5.03141 8.71936 5.03141C7.98597 5.03141 7.26922 5.25007 6.66071 5.65944L4.90862 3.90735C5.18818 3.4091 5.29754 2.83324 5.22008 2.2672C5.14262 1.70116 4.88258 1.17585 4.47944 0.771031C4.13464 0.425117 3.70008 0.182374 3.22474 0.0701552C2.7494 -0.0420639 2.25216 -0.0192985 1.78907 0.135886C1.32597 0.291071 0.91541 0.572507 0.603662 0.94848C0.291913 1.32445 0.0913624 1.78002 0.0246088 2.26385C-0.0421448 2.74767 0.027552 3.24053 0.225845 3.68687C0.424138 4.13321 0.743147 4.51531 1.14692 4.79009C1.5507 5.06488 2.02319 5.22144 2.51116 5.24213C2.99913 5.26282 3.48318 5.14682 3.90877 4.90719L5.66086 6.65929C5.25149 7.2678 5.03284 7.98454 5.03284 8.71794C5.03284 9.45133 5.25149 10.1681 5.66086 10.7766L3.93943 12.498C3.38942 12.1848 2.74461 12.0812 2.12419 12.2066C1.50377 12.3319 0.949694 12.6776 0.564381 13.1797C0.179067 13.6819 -0.0114275 14.3065 0.02811 14.9382C0.0676475 15.57 0.334544 16.166 0.779462 16.6162C1.22438 17.0664 1.81724 17.3403 2.44844 17.3872C3.07964 17.4342 3.70651 17.2511 4.21317 16.8717C4.71982 16.4924 5.07201 15.9424 5.20462 15.3235C5.33723 14.7046 5.2413 14.0586 4.93456 13.5049L6.66543 11.7741C7.07157 12.0449 7.52778 12.2317 8.0072 12.3235V14.9976C7.50007 15.2296 7.08019 15.6174 6.80865 16.1044C6.53711 16.5915 6.42809 17.1526 6.49744 17.7059C6.56679 18.2593 6.8109 18.776 7.19424 19.181C7.57759 19.5861 8.08018 19.8582 8.62887 19.9578C9.17757 20.0575 9.74374 19.9794 10.245 19.7351C10.7463 19.4907 11.1565 19.0927 11.416 18.5991C11.6755 18.1055 11.7707 17.542 11.6877 16.9905C11.6048 16.439 11.3481 15.9284 10.9549 15.5329C10.5473 15.125 10.0155 14.8644 9.44331 14.7925V12.307C9.9198 12.2125 10.3727 12.0242 10.7757 11.7529L12.5301 13.5073C12.2913 13.9326 12.176 14.416 12.1971 14.9033C12.2182 15.3905 12.3749 15.8622 12.6495 16.2652C12.9241 16.6683 13.3058 16.9866 13.7516 17.1845C14.1973 17.3824 14.6895 17.4519 15.1726 17.3853C15.6557 17.3186 16.1107 17.1184 16.4862 16.8072C16.8617 16.496 17.1429 16.0862 17.2981 15.6239C17.4534 15.1615 17.4765 14.665 17.3648 14.1903C17.2532 13.7155 17.0113 13.2813 16.6663 12.9366C16.2614 12.5335 15.7361 12.2735 15.1701 12.196C14.6041 12.1185 14.0282 12.2279 13.5299 12.5075L11.7755 10.753C12.0468 10.3501 12.2352 9.89715 12.3297 9.42066H14.8033C14.8578 9.8334 15.0099 10.2272 15.2469 10.5695C15.4839 10.9117 15.7991 11.1926 16.1663 11.3887C16.5335 11.5849 16.9421 11.6907 17.3584 11.6974C17.7747 11.7041 18.1865 11.6116 18.5599 11.4274C18.9332 11.2432 19.2573 10.9726 19.5053 10.6382C19.7532 10.3038 19.9179 9.9151 19.9856 9.50434C20.0534 9.09357 20.0223 8.67257 19.8949 8.27623C19.7675 7.87988 19.5475 7.5196 19.2531 7.22524H19.2508ZM13.9214 1.78739C14.0902 1.61851 14.3054 1.50349 14.5396 1.45688C14.7738 1.41028 15.0166 1.43417 15.2372 1.52555C15.4578 1.61692 15.6464 1.77167 15.7791 1.97023C15.9118 2.16878 15.9826 2.40223 15.9826 2.64103C15.9826 2.87984 15.9118 3.11328 15.7791 3.31183C15.6464 3.51039 15.4578 3.66514 15.2372 3.75651C15.0166 3.84789 14.7738 3.87178 14.5396 3.82518C14.3054 3.77857 14.0902 3.66355 13.9214 3.49467C13.8087 3.38288 13.7193 3.2499 13.6583 3.10339C13.5973 2.95688 13.5659 2.79974 13.5659 2.64103C13.5659 2.48232 13.5973 2.32518 13.6583 2.17867C13.7193 2.03216 13.8087 1.89918 13.9214 1.78739ZM1.7723 3.46873C1.60342 3.29989 1.48841 3.08476 1.4418 2.85055C1.39519 2.61634 1.41909 2.37356 1.51046 2.15293C1.60184 1.9323 1.75659 1.74372 1.95515 1.61104C2.1537 1.47836 2.38714 1.40754 2.62595 1.40754C2.86475 1.40754 3.09819 1.47836 3.29675 1.61104C3.4953 1.74372 3.65006 1.9323 3.74143 2.15293C3.83281 2.37356 3.8567 2.61634 3.81009 2.85055C3.76349 3.08476 3.64847 3.29989 3.47959 3.46873C3.25317 3.6951 2.94612 3.82227 2.62595 3.82227C2.30578 3.82227 1.99872 3.6951 1.7723 3.46873ZM3.50317 15.6155C3.33447 15.7835 3.11975 15.8979 2.88613 15.944C2.6525 15.9901 2.41044 15.966 2.19052 15.8747C1.97059 15.7833 1.78266 15.6289 1.65045 15.4308C1.51824 15.2328 1.44768 15 1.44768 14.7618C1.44768 14.5237 1.51824 14.2909 1.65045 14.0928C1.78266 13.8948 1.97059 13.7403 2.19052 13.649C2.41044 13.5576 2.6525 13.5335 2.88613 13.5797C3.11975 13.6258 3.33447 13.7401 3.50317 13.9082C3.72954 14.1346 3.85671 14.4417 3.85671 14.7618C3.85671 15.082 3.72954 15.3891 3.50317 15.6155ZM9.94323 18.2401C9.77453 18.4081 9.55981 18.5225 9.32619 18.5686C9.09256 18.6147 8.8505 18.5906 8.63058 18.4993C8.41065 18.4079 8.22272 18.2535 8.09051 18.0554C7.9583 17.8574 7.88774 17.6246 7.88774 17.3864C7.88774 17.1483 7.9583 16.9155 8.09051 16.7174C8.22272 16.5194 8.41065 16.3649 8.63058 16.2736C8.8505 16.1822 9.09256 16.1581 9.32619 16.2043C9.55981 16.2504 9.77453 16.3647 9.94323 16.5328C10.1696 16.7592 10.2968 17.0663 10.2968 17.3864C10.2968 17.7066 10.1696 18.0137 9.94323 18.2401ZM7.11347 10.3026C6.79699 9.98595 6.5815 9.58258 6.49425 9.14348C6.407 8.70437 6.4519 8.24926 6.62327 7.83567C6.79465 7.42208 7.08481 7.06859 7.45706 6.8199C7.82932 6.5712 8.26696 6.43846 8.71464 6.43846C9.16233 6.43846 9.59997 6.5712 9.97222 6.8199C10.3445 7.06859 10.6346 7.42208 10.806 7.83567C10.9774 8.24926 11.0223 8.70437 10.935 9.14348C10.8478 9.58258 10.6323 9.98595 10.3158 10.3026C9.89053 10.727 9.31426 10.9653 8.71346 10.9653C8.11267 10.9653 7.5364 10.727 7.11111 10.3026H7.11347ZM15.6546 13.9365C15.8521 14.134 15.975 14.3939 16.0024 14.6719C16.0297 14.9499 15.9598 15.2288 15.8046 15.461C15.6494 15.6933 15.4185 15.8645 15.1511 15.9455C14.8838 16.0266 14.5967 16.0125 14.3386 15.9055C14.0806 15.7986 13.8676 15.6055 13.7359 15.3591C13.6043 15.1128 13.5621 14.8284 13.6167 14.5544C13.6712 14.2805 13.819 14.0339 14.035 13.8567C14.2509 13.6795 14.5216 13.5827 14.801 13.5828C15.1212 13.5828 15.4282 13.71 15.6546 13.9365ZM18.2486 9.92766C18.0799 10.0957 17.8652 10.2101 17.6315 10.2562C17.3979 10.3023 17.1558 10.2782 16.9359 10.1869C16.716 10.0955 16.5281 9.94108 16.3958 9.74302C16.2636 9.54495 16.1931 9.31215 16.1931 9.07401C16.1931 8.83588 16.2636 8.60308 16.3958 8.40501C16.5281 8.20695 16.716 8.0525 16.9359 7.96116C17.1558 7.86983 17.3979 7.8457 17.6315 7.89184C17.8652 7.93797 18.0799 8.05229 18.2486 8.22037C18.3615 8.33241 18.4512 8.46567 18.5125 8.61249C18.5738 8.75931 18.6054 8.91679 18.6057 9.07588C18.6059 9.23497 18.5746 9.39254 18.5138 9.53953C18.4529 9.68651 18.3636 9.82002 18.2509 9.93237L18.2486 9.92766Z" fill="#871404"/>
</svg>
