<svg width="14" height="14" viewBox="0 0 14 14" fill="none" xmlns="http://www.w3.org/2000/svg">
<circle cx="7" cy="7" r="6.625" stroke="#BBBCC3" stroke-width="0.75"/>
<path d="M3.29703 6.26341L3.36098 6.23751L3.30789 6.19037C3.28756 6.1719 3.11067 5.99899 3.14881 5.60111C3.18788 5.19358 3.44469 4.98104 3.4743 4.95784L3.50511 4.9339L3.48608 4.90215C3.48135 4.89464 3.37118 4.71458 3.42186 4.39671C3.47912 4.03864 3.86197 3.89228 3.88016 3.8856L3.91209 3.87446L3.90782 3.84049C3.90735 3.83641 3.86113 3.42563 4.0758 3.18265C4.18458 3.05977 4.33642 3 4.53995 3L6.76444 3.00019C6.79989 3.00186 7.11934 3.02924 7.41921 3.50118C7.55295 3.71167 7.7951 3.81349 7.97728 3.86277V3.67371C7.97728 3.53468 8.09042 3.42155 8.22954 3.42155H9.74793C9.88686 3.42155 10 3.53468 10 3.67371V7.1762C10 7.31514 9.88686 7.42818 9.74793 7.42818H8.22954C8.09042 7.42818 7.97728 7.31514 7.97728 7.1762V7.03402C7.72976 7.05443 7.4258 7.16172 7.22227 7.51765C7.17512 7.60035 7.13224 7.67645 7.09271 7.7468C6.86087 8.15962 6.74457 8.36696 6.50187 8.51537C6.43672 8.555 6.37509 8.58702 6.30289 8.62451C6.07754 8.74117 5.86473 8.85143 5.58388 9.22787C5.21737 9.71958 5.15992 10.791 5.15927 10.8058C5.1628 10.8919 5.1021 10.9852 4.95853 10.9995L4.94924 11C4.88103 11 4.78636 10.9438 4.68947 10.8457C4.48575 10.6392 4.28249 10.2537 4.28788 9.85778C4.29799 9.10184 4.53178 8.48641 4.9795 8.03182C5.05032 7.95219 5.07463 7.8837 5.05208 7.82875C5.02062 7.75237 4.9176 7.74262 4.90024 7.7417L3.60897 7.70903C3.37592 7.7029 2.98157 7.54308 2.98157 6.98343C2.98166 6.40624 3.28236 6.26981 3.29703 6.26341ZM3.61388 7.52341L4.90804 7.55626C5.02312 7.56285 5.16661 7.61937 5.22387 7.75822C5.25942 7.84518 5.26991 7.98449 5.115 8.1586C4.69884 8.58135 4.48287 9.1539 4.4735 9.86038C4.46886 10.2027 4.64501 10.5363 4.82163 10.7153C4.89124 10.7859 4.93709 10.8076 4.95194 10.8133C4.96493 10.8111 4.97152 10.8081 4.97347 10.8072L4.97384 10.7927C4.97616 10.7463 5.03509 9.6536 5.43502 9.11706C5.74148 8.70637 5.98343 8.58108 6.22418 8.45634C6.28665 8.42385 6.34558 8.39332 6.40516 8.35703C6.60629 8.23396 6.70801 8.05289 6.93075 7.65612C6.97047 7.5854 7.01354 7.50893 7.06087 7.42586C7.31694 6.97796 7.71417 6.86751 7.9771 6.84802V4.05507C7.76141 4.00319 7.44075 3.88133 7.26246 3.60076C7.00973 3.20326 6.7585 3.18571 6.76017 3.18571H4.53976C4.39247 3.18571 4.2862 3.22497 4.21465 3.30572C4.0577 3.48354 4.09177 3.8159 4.09195 3.81813L4.11488 4.00078L3.94281 4.06045C3.93984 4.06157 3.64544 4.17387 3.60497 4.42613C3.56646 4.66799 3.64321 4.8035 3.64423 4.80526L3.74865 4.97984L3.58836 5.1043C3.57927 5.11144 3.36571 5.28277 3.33341 5.61902C3.30371 5.92938 3.42724 6.04809 3.43179 6.05226L3.70753 6.29728L3.37053 6.4339C3.36227 6.43808 3.16728 6.53906 3.16728 6.98353C3.16728 7.4861 3.53936 7.52146 3.61388 7.52341Z" fill="#BBBCC3"/>
</svg>
