<svg width="14" height="14" viewBox="0 0 14 14" fill="none" xmlns="http://www.w3.org/2000/svg">
<circle cx="7" cy="7" r="6.625" fill="white" stroke="#BBBCC3" stroke-width="0.75"/>
<path d="M3.5 11H10.5C10.7762 11 11 10.7763 11 10.5C11 10.2237 10.7762 10 10.5 10H3.5C3.22375 10 3 10.2237 3 10.5C3 10.7763 3.22375 11 3.5 11Z" fill="#BBBCC3"/>
<path d="M7 8.75C7.27625 8.75 7.5 8.52625 7.5 8.25V4.2075L9.27125 5.97875C9.36875 6.07625 9.49625 6.125 9.625 6.125C9.75375 6.125 9.88125 6.07625 9.97875 5.97875C10.1738 5.78375 10.1738 5.46625 9.97875 5.27125L8.2075 3.5C7.885 3.1775 7.45625 3 7 3C6.54375 3 6.115 3.1775 5.7925 3.5L4.02125 5.27125C3.82625 5.46625 3.82625 5.7825 4.02125 5.97875C4.21625 6.17375 4.53375 6.17375 4.72875 5.97875L6.5 4.2075V8.25C6.5 8.52625 6.72375 8.75 7 8.75Z" fill="#BBBCC3"/>
</svg>
