<svg width="15" height="15" viewBox="0 0 15 15" fill="none" xmlns="http://www.w3.org/2000/svg">
<path d="M13.9848 6.48484H8.51516V1.01516C8.51516 0.454792 8.06037 0 7.5 0C6.93963 0 6.48484 0.454792 6.48484 1.01516V6.48484H1.01516C0.454792 6.48484 0 6.93963 0 7.5C0 8.06037 0.454792 8.51516 1.01516 8.51516H6.48484V13.9848C6.48484 14.5452 6.93963 15 7.5 15C8.06037 15 8.51516 14.5452 8.51516 13.9848V8.51516H13.9848C14.5452 8.51516 15 8.06037 15 7.5C15 6.93963 14.5452 6.48484 13.9848 6.48484Z" fill="white"/>
</svg>
