<svg width="14" height="20" viewBox="0 0 14 20" fill="none" xmlns="http://www.w3.org/2000/svg">
<path d="M7.00002 0C5.87573 0 4.95456 0.921152 4.95456 2.04541C4.95456 2.36842 5.03272 2.67506 5.16763 2.94737C4.90629 3.04746 4.62232 3.16801 4.35087 3.33088C3.86359 3.62324 3.36365 4.09081 3.36365 4.77262V6.36348H1.3182C1.304 6.36282 1.28978 6.36282 1.27558 6.36348C1.16257 6.37414 1.05762 6.42669 0.981392 6.5108C0.905162 6.59491 0.863162 6.7045 0.863652 6.81802V8.84921C0.863726 8.93305 0.886983 9.01523 0.930853 9.08668C0.974723 9.15812 1.0375 9.21603 1.11223 9.25403L3.15769 10.2909L3.99575 19.0904H2.00002C1.98582 19.0898 1.9716 19.0898 1.9574 19.0904C1.83685 19.0961 1.72348 19.1494 1.64223 19.2386C1.56098 19.3279 1.51851 19.4457 1.52416 19.5663C1.52981 19.6868 1.58312 19.8002 1.67236 19.8815C1.7616 19.9627 1.87946 20.0052 2.00002 19.9995H12C12.0602 20.0004 12.12 19.9892 12.1759 19.9668C12.2318 19.9443 12.2827 19.911 12.3256 19.8687C12.3685 19.8264 12.4026 19.776 12.4258 19.7204C12.4491 19.6648 12.461 19.6052 12.461 19.545C12.461 19.4847 12.4491 19.4251 12.4258 19.3695C12.4026 19.314 12.3685 19.2636 12.3256 19.2213C12.2827 19.179 12.2318 19.1456 12.1759 19.1232C12.12 19.1007 12.0602 19.0896 12 19.0904H10.0043L10.8423 10.2909L12.8878 9.25403C12.9625 9.21603 13.0253 9.15812 13.0692 9.08668C13.113 9.01523 13.1363 8.93305 13.1364 8.84921V6.81802C13.1364 6.69747 13.0885 6.58186 13.0032 6.49662C12.918 6.41138 12.8024 6.3635 12.6818 6.36348H10.6364V4.77262C10.6364 4.09081 10.1364 3.62324 9.64916 3.33088C9.37771 3.16801 9.09374 3.04746 8.8324 2.94737C8.96731 2.67506 9.04547 2.36842 9.04547 2.04541C9.04547 0.921152 8.12431 0 7.00002 0ZM7.00002 0.909077C7.633 0.909077 8.13638 1.41245 8.13638 2.04541C8.13638 2.35826 8.01787 2.64326 7.81678 2.84794C7.81444 2.85033 7.81203 2.85269 7.80967 2.85503C7.79979 2.86408 7.79031 2.87356 7.78127 2.88344C7.5786 3.07224 7.30198 3.18174 7.00002 3.18174C6.69442 3.18174 6.41506 3.06921 6.21166 2.87634C6.2048 2.86901 6.19769 2.86191 6.19036 2.85504C6.18565 2.85034 6.18078 2.84564 6.17615 2.84084C5.97918 2.63678 5.86365 2.35463 5.86365 2.04541C5.86365 1.41245 6.36703 0.909077 7.00002 0.909077ZM5.78553 3.686C6.12577 3.93887 6.54605 4.09081 7.00002 4.09081C7.45399 4.09081 7.87426 3.93887 8.2145 3.686C8.52403 3.79338 8.88785 3.92948 9.18041 4.10502C9.54541 4.32401 9.72729 4.54534 9.72729 4.77262V6.36348H4.27274V4.77262C4.27274 4.54534 4.45462 4.32401 4.81962 4.10502C5.11218 3.92948 5.476 3.79338 5.78553 3.686ZM1.77274 7.27255H3.73297C3.79387 7.28518 3.85672 7.28518 3.91763 7.27255H10.0966C10.1575 7.28518 10.2204 7.28518 10.2813 7.27255H12.2273V8.57224L10.2031 9.58782C10.1335 9.6229 10.0741 9.6753 10.0305 9.73998C9.98701 9.80465 9.96085 9.87943 9.95456 9.95714L9.08808 19.0904H4.91195L4.04547 9.95714C4.03918 9.87943 4.01302 9.80465 3.96948 9.73998C3.92595 9.6753 3.86652 9.6229 3.79689 9.58782L1.77274 8.57224V7.27255Z" fill="#4C89C1"/>
</svg>
