<?xml version="1.0" encoding="UTF-8" standalone="no"?>
<!DOCTYPE svg PUBLIC "-//W3C//DTD SVG 1.1//EN" "http://www.w3.org/Graphics/SVG/1.1/DTD/svg11.dtd">
<svg width="100%" height="100%" viewBox="0 0 797 920" version="1.1" xmlns="http://www.w3.org/2000/svg" xmlns:xlink="http://www.w3.org/1999/xlink" xml:space="preserve" xmlns:serif="http://www.serif.com/" style="fill-rule:evenodd;clip-rule:evenodd;stroke-linejoin:round;stroke-miterlimit:2;">
    <g transform="matrix(1,0,0,1,-9081.17,-636.188)">
        <g transform="matrix(1.76296,0,0,1.02963,6858.45,540)">
            <g transform="matrix(-0.323688,0.0780326,-0.0455737,-0.554228,2357.23,1387.63)">
                <path d="M2275.13,1387.37C2274.7,1387.7 2274.3,1388.07 2273.91,1388.45C2273.91,1388.45 2273.91,1388.45 2273.91,1388.45C2262.81,1399.56 2262.27,1417.39 2272.69,1429.14C2319.15,1482.02 2344.97,1550.18 2344.97,1621C2344.97,1781.59 2214.59,1911.97 2054,1911.97C1983.22,1911.97 1915.1,1886.18 1862.2,1839.8C1850.88,1829.79 1833.99,1829.87 1822.81,1839.72C1822.3,1840.1 1821.84,1840.53 1821.38,1840.99L1821.38,1840.99C1815.88,1846.49 1812.88,1854.02 1813.09,1861.8C1813.3,1869.58 1816.7,1876.93 1822.49,1882.13C1822.51,1882.14 1822.52,1882.15 1822.54,1882.17C1886.2,1938.54 1968.48,1969.93 2054,1969.93C2246.58,1969.93 2402.93,1813.58 2402.93,1621C2402.93,1535.52 2371.57,1453.27 2315.21,1389.64C2315.19,1389.63 2315.18,1389.62 2315.17,1389.6C2309.96,1383.8 2302.6,1380.39 2294.8,1380.18C2287.54,1379.98 2280.51,1382.57 2275.13,1387.37Z" style="fill:rgb(44,31,113);stroke:rgb(44,34,111);stroke-width:15.62px;"/>
            </g>
        </g>
        <g transform="matrix(1.76296,0,0,1.02963,6858.45,540)">
            <g transform="matrix(0.579178,0.685809,-0.172159,1.16703,-3722.63,-6180.39)">
                <path d="M9240.73,272.958L9081,114" style="fill:none;stroke:rgb(44,34,111);stroke-width:22.2px;stroke-linecap:round;stroke-miterlimit:1.5;"/>
            </g>
        </g>
        <g transform="matrix(1.76296,0,0,1.02963,6858.45,540)">
            <g transform="matrix(0.582781,-0.142918,0.124815,0.984766,-3901.56,1668.02)">
                <path d="M9240.73,272.958L9081,114" style="fill:none;stroke:rgb(44,34,111);stroke-width:29.79px;stroke-linecap:round;stroke-miterlimit:1.5;"/>
            </g>
        </g>
        <g transform="matrix(1.76296,0,0,1.02963,6858.45,540)">
            <g transform="matrix(0.311605,-0.33136,0.193526,0.533539,1328.88,198.158)">
                <circle cx="443.619" cy="242.381" r="138.619" style="fill:rgb(57,220,198);"/>
            </g>
        </g>
        <g transform="matrix(1.76296,0,0,1.02963,6858.45,540)">
            <g transform="matrix(0.187462,-0.304365,0.177759,0.320977,1277.6,542.354)">
                <circle cx="443.619" cy="242.381" r="138.619" style="fill:rgb(249,160,62);"/>
            </g>
        </g>
        <g transform="matrix(1.76296,0,0,1.02963,6858.45,540)">
            <g transform="matrix(0.137663,0.673143,-0.382176,0.283065,482.205,-5816.97)">
                <path d="M9240.73,272.958L9081,114" style="fill:none;stroke:rgb(44,34,111);stroke-width:42.11px;stroke-linecap:round;stroke-miterlimit:1.5;"/>
            </g>
        </g>
        <g transform="matrix(1.76296,0,0,1.02963,6858.45,540)">
            <g transform="matrix(0.149041,0.181182,-0.105816,0.255192,1647.05,184.998)">
                <circle cx="443.619" cy="242.381" r="138.619" style="fill:rgb(246,69,141);"/>
            </g>
        </g>
        <g transform="matrix(1.76296,0,0,1.02963,6858.45,540)">
            <g transform="matrix(0.422931,-1.15155,0.791586,0.0683423,-2607,11328)">
                <path d="M9240.73,272.958L9081,114" style="fill:none;stroke:rgb(44,34,111);stroke-width:18.75px;stroke-linecap:round;stroke-miterlimit:1.5;"/>
            </g>
        </g>
        <g transform="matrix(1.76296,0,0,1.02963,6858.45,540)">
            <g transform="matrix(-0.123429,-0.749945,0.437993,-0.211338,1272.47,1262.47)">
                <circle cx="443.619" cy="242.381" r="138.619" style="fill:rgb(246,69,141);"/>
            </g>
        </g>
    </g>
</svg>
