<svg width="23" height="20" viewBox="0 0 23 20" fill="none" xmlns="http://www.w3.org/2000/svg">
<path d="M20.6009 1.01327C19.8672 0.850967 19.02 0.955126 18.2224 1.25572C18.2292 0.824674 18.2272 0.403742 18.2151 0H11.3765H4.53792C4.52579 0.403742 4.52351 0.824674 4.53059 1.25572C3.73297 0.955126 2.88605 0.850967 2.15213 1.01327C1.06706 1.25193 0.330366 1.99772 0.0778062 3.11136C-0.252114 4.56529 0.474216 6.23233 2.12281 7.80584C3.42176 9.04538 5.16439 10.0766 7.00487 10.7137C7.76735 11.7886 8.74346 12.6548 9.98199 13.1814C9.80148 13.841 9.16768 15.7517 7.63614 16.921H11.3765H15.1171C13.5853 15.7517 12.9518 13.841 12.7713 13.1814C14.0098 12.6548 14.9862 11.7886 15.7484 10.7134C17.5886 10.0766 19.3315 9.04538 20.6305 7.80584C22.279 6.23208 23.0054 4.56529 22.6755 3.11136C22.4226 1.99772 21.6859 1.25193 20.6009 1.01327ZM3.22027 6.6563C2.028 5.51763 1.43263 4.32436 1.62805 3.46328C1.74283 2.95513 2.0184 2.66995 2.49469 2.56478C3.12344 2.42599 3.94356 2.63683 4.61908 3.05473C4.77253 4.87726 5.13254 6.78068 5.80628 8.46947C4.83675 7.96536 3.94634 7.34951 3.22027 6.6563ZM19.5327 6.6563C18.8067 7.34926 17.9163 7.96536 16.9467 8.46973C17.6207 6.78094 17.9807 4.87751 18.1339 3.05499C18.8094 2.63734 19.6296 2.42649 20.2583 2.56504C20.7346 2.67021 21.0102 2.95538 21.125 3.46353C21.3204 4.32461 20.725 5.51789 19.5327 6.6563Z" fill="#FFCC4D"/>
<path d="M16.1799 17.9234H6.57307V20H16.1799V17.9234Z" fill="#C1694F"/>
</svg>
