<svg width="12" height="20" viewBox="0 0 12 20" fill="none" xmlns="http://www.w3.org/2000/svg">
<path d="M3 0C1.3 0 0 1.8 0 4C0 5.9 1 7.6 2.4 7.9L1.6 18.5C1.6 19.3 2.2 20 3 20C3.8 20 4.4 19.3 4.4 18.5L3.6 7.9C5 7.6 6 5.9 6 4C6 1.8 4.7 0 3 0ZM3 7C1.9 7 0.9 5.7 0.9 4C0.9 2.3 1.9 1 3 1C4.1 1 5.1 2.3 5.1 4C5.1 5.7 4.1 7 3 7Z" fill="#99AAB5"/>
<path d="M10.5 0H9.5V6H10.5V0Z" fill="#99AAB5"/>
<path d="M11 0V6C11 6.6 10.6 7 10 7C9.4 7 9 6.6 9 6V0H8V6C8 6.9 8.6 7.7 9.4 7.9L8.6 18.5C8.6 19.3 9.2 20 10 20C10.8 20 11.4 19.3 11.4 18.5L10.6 7.9C11.4 7.7 12 6.9 12 6V0H11Z" fill="#99AAB5"/>
</svg>
