<?xml version="1.0" encoding="UTF-8" standalone="no"?>
<!DOCTYPE svg PUBLIC "-//W3C//DTD SVG 1.1//EN" "http://www.w3.org/Graphics/SVG/1.1/DTD/svg11.dtd">
<svg width="100%" height="100%" viewBox="0 0 2134 2134" version="1.1" xmlns="http://www.w3.org/2000/svg" xmlns:xlink="http://www.w3.org/1999/xlink" xml:space="preserve" xmlns:serif="http://www.serif.com/" style="fill-rule:evenodd;clip-rule:evenodd;strokeLinejoin:round;stroke-miterlimit:2;">
    <g id="Artboard1" transform="matrix(1.33695,0,0,1,-0.0997162,0)">
        <rect x="0.075" y="0" width="1596.17" height="2134" style="fill:none;"/>
        <g transform="matrix(0.747973,0,0,1,199.784,0)">
            <path d="M800,1466.67C1020.96,1466.67 1200,1287.63 1200,1066.67L1200,400.003C1200,179.045 1020.96,0.003 800,0.003C579.042,0.003 400,179.045 400,400.003L400,1066.67C400,1287.5 575.417,1466.67 800,1466.67Z" style="fill:rgb(248,64,140);fill-rule:nonzero;"/>
        </g>
        <g transform="matrix(0.747973,0,0,1,0.0745851,0)">
            <path d="M1700.33,800.003C1644.92,800.003 1600.33,844.586 1600.33,896.253L1600.33,1066.67C1600.33,1372.21 1342.12,1618.34 1032.42,1598.75C757.083,1581.38 533.667,1321.3 533.667,1045.42L533.667,896.253C533.667,844.586 488.875,800.003 433.667,800.003C378.458,800.003 333.667,844.586 333.667,896.253L333.667,1030.21C333.667,1403.8 600.208,1736.88 967,1787.3L967,1933.34L800.333,1933.34C724.542,1933.34 663.5,1996.59 667.167,2073.21C668.792,2107.5 699.5,2133.34 733.667,2133.34L1400.33,2133.34C1434.59,2133.34 1465.21,2107.44 1466.83,2073.21C1470.33,1996.67 1409.5,1933.34 1333.67,1933.34L1167,1933.34L1167,1792.63C1524.08,1743.75 1800.33,1437.09 1800.33,1066.67L1800.33,896.253C1800.33,844.586 1755.75,800.003 1700.33,800.003Z" style="fill:rgb(44,31,113);fill-rule:nonzero;"/>
        </g>
    </g>
</svg>
