<?xml version="1.0" encoding="UTF-8" standalone="no"?><!DOCTYPE svg PUBLIC "-//W3C//DTD SVG 1.1//EN" "http://www.w3.org/Graphics/SVG/1.1/DTD/svg11.dtd"><svg width="100%" height="100%" viewBox="0 0 30456 30404" version="1.1" xmlns="http://www.w3.org/2000/svg" xmlns:xlink="http://www.w3.org/1999/xlink" xml:space="preserve" xmlns:serif="http://www.serif.com/" style="fill-rule:evenodd;clip-rule:evenodd;strokeLinejoin:round;stroke-miterlimit:2;"><g><path d="M2952.22,23126.3c-677.721,207.951 -2952.22,1089.11 -2952.22,3548.86c0,1047.32 269.23,1844.6 778.399,2437.2c706.772,822.577 1955.16,1290.92 3928.49,1290.92c-0,-0 24880.9,-0 24880.9,-0c479.123,-0 868.11,-388.987 868.11,-868.11c-0,-479.123 -388.987,-868.111 -868.11,-868.111l-24880.9,0c-1288.59,0 -2150.09,-149.051 -2611.61,-686.193c-269.498,-313.655 -359.066,-751.373 -359.066,-1305.71c0,-987.081 697.71,-1485.09 1216.01,-1718.88l-0,-1829.98Z" style="fill:#2c1b73;"/><path d="M12936.2,27468.7l6190.77,0l0,-7810.53l-0.082,-0c-0.274,-4351.46 -1.05,-14268 -2.317,-15942.2c-2.216,-40.823 -29.414,-76.611 -69.479,-91.423c-40.065,-14.812 -85.541,-5.893 -116.173,22.785c-593.583,555.708 -2432.39,2277.22 -2830.72,2650.14c-42.504,39.792 -110.721,39.792 -153.224,-0c-398.33,-372.922 -2237.14,-2094.44 -2830.72,-2650.15c-30.634,-28.68 -76.115,-37.601 -116.183,-22.787c-40.068,14.814 -67.268,50.604 -69.484,91.43c-1.26,1674.16 -2.034,11590.7 -2.309,15942.2l-0.082,-0l0,7810.53Z" style="fill:#2c1b73;"/><path d="M21672.3,27468.7l6190.65,0l-0,-6427.98l0.146,-0c-0.028,-599.709 -0.077,-1574.04 -0.146,-2783.85l-0,-6.365l-0,0c-0.323,-5645.44 -1.09,-16405.9 -2.299,-18152c-2.238,-40.813 -29.443,-76.581 -69.503,-91.381c-40.06,-14.799 -85.523,-5.877 -116.148,22.795c-593.613,555.737 -2432.37,2277.2 -2830.69,2650.12c-42.503,39.792 -110.72,39.792 -153.223,0c-398.324,-372.915 -2237.08,-2094.38 -2830.69,-2650.12c-30.627,-28.675 -76.094,-37.598 -116.157,-22.797c-40.063,14.8 -67.27,50.572 -69.507,91.387c-1.203,1746.17 -1.969,12506.6 -2.291,18152l-0.147,0l0,9218.19Z" style="fill:#f8408c;"/><path d="M4200.04,27468.7l6190.75,0l0,-7359.29l-0.065,-0c-0.261,-3574.53 -1.03,-12046.7 -2.294,-13586.3c-2.195,-40.833 -29.385,-76.639 -69.455,-91.465c-40.07,-14.825 -85.56,-5.909 -116.199,22.775c-593.552,555.679 -2432.41,2277.24 -2830.75,2650.17c-42.504,39.792 -110.721,39.792 -153.224,0c-398.337,-372.928 -2237.2,-2094.49 -2830.74,-2650.18c-30.642,-28.687 -76.135,-37.604 -116.209,-22.777c-40.073,14.826 -67.266,50.636 -69.461,91.473c-1.257,1539.61 -2.024,10011.7 -2.285,13586.3l-0.065,-0l0,7359.29Z" style="fill:#2addc6;"/></g></svg>
