<svg width="31" height="36" viewBox="0 0 31 36" fill="none" xmlns="http://www.w3.org/2000/svg">
<path d="M17.3477 1.95312H21.7429C24.478 1.95312 25.8456 1.95312 26.8903 2.48541C27.8092 2.95362 28.5563 3.70072 29.0245 4.61964C29.5568 5.66431 29.5568 7.03185 29.5568 9.76695V26.6969C29.5568 29.432 29.5568 30.7995 29.0245 31.8442C28.5563 32.7631 27.8092 33.5102 26.8903 33.9784C25.8456 34.5107 24.478 34.5107 21.7429 34.5107H11.3245C8.58942 34.5107 7.22187 34.5107 6.17721 33.9784C5.25829 33.5102 4.51119 32.7631 4.04298 31.8442C3.51069 30.7995 3.51069 29.432 3.51069 26.6969V25.5574M23.0452 19.8598H15.7198M23.0452 13.3483H17.3477M23.0452 26.3713H10.0222M6.76645 14.9762V6.02282C6.76645 4.67424 7.85969 3.581 9.20827 3.581C10.5569 3.581 11.6501 4.67424 11.6501 6.02282V14.9762C11.6501 17.6733 9.46361 19.8598 6.76645 19.8598C4.06929 19.8598 1.88281 17.6733 1.88281 14.9762V8.46464" stroke="black" stroke-width="2" stroke-linecap="round" stroke-linejoin="round"/>
</svg>
