<svg width="29" height="35" viewBox="0 0 29 35" fill="none" xmlns="http://www.w3.org/2000/svg">
<path d="M17.7909 1.69463V8.41881C17.7909 9.33053 17.7909 9.78639 17.9683 10.1346C18.1244 10.4409 18.3734 10.69 18.6797 10.846C19.028 11.0235 19.4838 11.0235 20.3956 11.0235H27.1197M21.0467 19.1629H8.02339M21.0467 25.6746H8.02339M11.2792 12.6513H8.02339M17.7909 1.25586H9.32572C6.59056 1.25586 5.22298 1.25586 4.17829 1.78816C3.25936 2.25638 2.51224 3.0035 2.04402 3.92243C1.51172 4.96712 1.51172 6.3347 1.51172 9.06986V26.0002C1.51172 28.7353 1.51172 30.1029 2.04402 31.1476C2.51224 32.0666 3.25936 32.8137 4.17829 33.2819C5.22298 33.8142 6.59056 33.8142 9.32572 33.8142H19.7444C22.4795 33.8142 23.8471 33.8142 24.8918 33.2819C25.8107 32.8137 26.5579 32.0666 27.0261 31.1476C27.5584 30.1029 27.5584 28.7353 27.5584 26.0002V11.0234L17.7909 1.25586Z" stroke="black" stroke-width="2" stroke-linecap="round" stroke-linejoin="round"/>
</svg>
