<svg width="20" height="19" viewBox="0 0 20 19" fill="none" xmlns="http://www.w3.org/2000/svg">
<path fill-rule="evenodd" clip-rule="evenodd" d="M14.375 1.25C13.3395 1.25 12.5 2.08947 12.5 3.125C12.5 4.16053 13.3395 5 14.375 5C15.4105 5 16.25 4.16053 16.25 3.125C16.25 2.08947 15.4105 1.25 14.375 1.25ZM11.3125 2.5C11.6021 1.0736 12.8632 0 14.375 0C15.8868 0 17.1479 1.0736 17.4375 2.5H20V3.75H17.4375C17.1479 5.1764 15.8868 6.25 14.375 6.25C12.8632 6.25 11.6021 5.1764 11.3125 3.75H0V2.5H11.3125ZM5.625 7.5C4.58947 7.5 3.75 8.33947 3.75 9.375C3.75 10.4105 4.58947 11.25 5.625 11.25C6.66053 11.25 7.5 10.4105 7.5 9.375C7.5 8.33947 6.66053 7.5 5.625 7.5ZM2.56251 8.75C2.85206 7.3236 4.11315 6.25 5.625 6.25C7.13685 6.25 8.39794 7.3236 8.68749 8.75H20V10H8.68749C8.39794 11.4264 7.13685 12.5 5.625 12.5C4.11315 12.5 2.85206 11.4264 2.56251 10H0V8.75H2.56251ZM14.375 13.75C13.3395 13.75 12.5 14.5895 12.5 15.625C12.5 16.6605 13.3395 17.5 14.375 17.5C15.4105 17.5 16.25 16.6605 16.25 15.625C16.25 14.5895 15.4105 13.75 14.375 13.75ZM11.3125 15C11.6021 13.5736 12.8632 12.5 14.375 12.5C15.8868 12.5 17.1479 13.5736 17.4375 15H20V16.25H17.4375C17.1479 17.6764 15.8868 18.75 14.375 18.75C12.8632 18.75 11.6021 17.6764 11.3125 16.25H0V15H11.3125Z" fill="black"/>
</svg>
