<svg width="24" height="24" viewBox="0 0 24 24" fill="none" xmlns="http://www.w3.org/2000/svg">
<path d="M0 11.64C0 4.95168 5.24004 0 12 0C18.76 0 24 4.95168 24 11.64C24 18.3283 18.76 23.28 12 23.28C10.7858 23.28 9.62088 23.1197 8.52636 22.8187C8.3136 22.7602 8.08735 22.7767 7.88544 22.8658L5.50361 23.9172C4.88057 24.1922 4.17727 23.7492 4.15639 23.0683L4.09104 20.9338C4.083 20.6707 3.96468 20.425 3.76867 20.2495C1.43376 18.1615 0 15.1384 0 11.64ZM8.31906 9.45166L4.79406 15.0441C4.45578 15.5808 5.11549 16.1856 5.62086 15.8021L9.40729 12.9285C9.66342 12.7341 10.0174 12.7331 10.2746 12.926L13.0783 15.0287C13.9195 15.6597 15.1202 15.4382 15.681 14.5485L19.206 8.95601C19.5442 8.4193 18.8845 7.8145 18.3791 8.19802L14.5927 11.0717C14.3366 11.2661 13.9826 11.2671 13.7254 11.0741L10.9218 8.97142C10.0805 8.34046 8.87977 8.56198 8.31906 9.45166Z" fill="black"/>
</svg>
