<svg width="113" height="32" viewBox="0 0 113 32" fill="none" xmlns="http://www.w3.org/2000/svg">
<path d="M20.2243 15.2985C22.8824 14.0514 24.8477 11.8908 25.179 8.81663C25.2393 8.45273 25.2694 7.91827 25.2694 7.2208C25.2694 2.44469 22.1256 0.0566406 15.8418 0.0566406H4.53932C4.0574 0.0566406 3.78256 0.314399 3.72232 0.833705L2.8639 7.86141C3.09357 7.81213 3.33076 7.78181 3.57548 7.78181H13.6506C14.5956 7.78181 15.503 8.18739 16.1393 8.89244C16.768 9.5899 17.073 10.5262 16.9789 11.4587C16.2447 18.7782 10.0663 24.2973 2.60412 24.2973C2.50623 24.2973 2.40834 24.2973 2.31045 24.2973C1.81347 24.2859 1.33531 24.1608 0.898574 23.9448L0.0100348 31.2226C-0.0502051 31.7419 0.160635 31.9997 0.646319 31.9997H11.8396C14.9495 31.9997 17.5737 31.2454 19.701 29.7405C21.8319 28.2357 23.0782 26.0068 23.4396 23.0578C23.4998 22.3906 23.53 21.9168 23.53 21.6439C23.53 18.9071 22.4118 16.9133 20.1753 15.6662C20.1151 15.6055 20.085 15.5373 20.085 15.4615C20.085 15.3857 20.1302 15.3326 20.2205 15.3023" fill="#1B2D58"/>
<path d="M3.57508 10.0448C3.02162 10.0448 2.55476 10.4618 2.48699 11.0152L1.29349 20.7986C1.21443 21.4468 1.70764 22.0268 2.35898 22.0381C2.44181 22.0381 2.52464 22.0381 2.60747 22.0381C8.93643 22.0381 14.1397 17.2999 14.7496 11.2313C14.8136 10.5906 14.294 10.041 13.654 10.041H3.57508V10.0448Z" fill="url(#paint0_linear_3324_13614)"/>
<path d="M103.689 0.00379137C103.421 0.0113725 103.203 0.216062 103.169 0.481401L102.578 5.31816C102.54 5.64036 102.785 5.92465 103.105 5.93223C103.147 5.93223 103.188 5.93223 103.229 5.93223C106.358 5.93223 108.933 3.58966 109.235 0.587538C109.265 0.276712 109.02 0.0113717 108.711 0H103.689V0.00379137Z" fill="url(#paint1_linear_3324_13614)"/>
<path d="M43.17 8.44954H47.831C48.3393 8.44954 48.5615 8.7035 48.505 9.21523L45.862 30.8707C45.7716 31.3824 45.4892 31.6364 45.0111 31.6364H40.35C40.109 31.6364 39.9396 31.5682 39.8342 31.4317C39.7288 31.2953 39.6911 31.1095 39.7212 30.8669L39.8568 29.6501C39.8869 29.5288 39.8643 29.4644 39.789 29.4455C39.7137 29.4303 39.6459 29.4682 39.5857 29.5592C38.1814 31.1815 36.4193 31.9965 34.2997 31.9965C32.3569 31.9965 30.7003 31.3938 29.3261 30.1922C27.9519 28.9906 27.0859 27.3796 26.7283 25.3668C26.5475 24.495 26.4609 23.5928 26.4609 22.6604C26.4609 22.0577 26.5212 21.1555 26.6417 19.9539C26.9391 17.6985 27.4474 15.8336 28.1665 14.359C29.0625 12.4334 30.3088 10.902 31.9089 9.75728C33.5052 8.61632 35.2936 8.04395 37.2627 8.04395C39.4125 8.04395 40.9675 8.77931 41.9238 10.2538C41.984 10.3448 42.0518 10.3751 42.1271 10.3448C42.2024 10.3145 42.24 10.2387 42.24 10.1212L42.3756 9.21902C42.4358 8.70729 42.7031 8.45333 43.1813 8.45333M40.9863 20.0487C41.0766 19.3588 41.1218 18.7257 41.1218 18.1534C41.1218 17.0086 40.9712 16.0951 40.6738 15.4014C40.0752 14.2301 39.164 13.6426 37.9404 13.6426C36.5963 13.6426 35.5195 14.215 34.7138 15.3559C33.8479 16.5575 33.3095 18.1382 33.0986 20.0941C33.0384 20.4846 33.0083 21.0266 33.0083 21.7203C33.0083 22.8916 33.1589 23.8278 33.4563 24.5177C33.6935 25.1508 34.07 25.6322 34.5745 25.9619C35.0828 26.2917 35.6965 26.4585 36.4118 26.4585C37.6656 26.4585 38.7273 25.8103 39.5932 24.5177C40.3086 23.3768 40.7717 21.8871 40.9825 20.0524" fill="#1B2D58"/>
<path d="M69.7449 9.89415C70.9685 11.0958 71.5822 12.7674 71.5822 14.9015C71.5822 15.1706 71.5521 15.6406 71.4918 16.3002L69.6997 31.235C69.6094 31.7467 69.327 32.0007 68.8488 32.0007H64.1878C63.7096 32.0007 63.4988 31.7467 63.559 31.235L65.2156 17.6117C65.2457 17.4298 65.2608 17.191 65.2608 16.8915C65.2608 15.8984 64.9859 15.0948 64.4325 14.4769C63.879 13.8591 63.1411 13.552 62.2149 13.552C61.1381 13.552 60.2195 13.9273 59.4589 14.6778C58.6984 15.4284 58.2428 16.4063 58.0922 17.6117L56.4356 31.235C56.3754 31.7467 56.093 32.0007 55.5847 32.0007H50.9689C50.4606 32.0007 50.2385 31.7467 50.2987 31.235L52.9869 9.21943C53.0471 8.7077 53.3295 8.45374 53.8378 8.45374H58.4537C58.9619 8.45374 59.1841 8.7077 59.1276 9.21943L58.9469 10.4817C58.9469 10.7508 59.0372 10.7963 59.2142 10.6181C60.5884 8.93514 62.4408 8.08984 64.7713 8.08984C66.8609 8.08984 68.5213 8.69254 69.7449 9.89415" fill="#1B2D58"/>
<path d="M78.0357 30.1955C76.4808 28.9939 75.4642 27.3375 74.9898 25.2337C74.8091 24.3619 74.7188 23.4445 74.7188 22.4817C74.7188 21.97 74.779 21.1134 74.8995 19.9117C75.1367 17.9861 75.5998 16.2425 76.2888 14.677C77.2451 12.6339 78.6494 11.0229 80.5018 9.8516C82.3542 8.68031 84.4287 8.09277 86.7291 8.09277C89.0295 8.09277 91.0212 8.69547 92.6213 9.89708C94.2177 11.0987 95.1966 12.6187 95.558 14.4533C95.6785 14.9347 95.7387 15.401 95.7387 15.8521C95.7387 16.3031 95.4978 16.5723 95.0234 16.6632L90.2042 17.4176C90.0046 17.4403 89.8616 17.3796 89.7599 17.2735C89.6545 17.1674 89.6018 17.0423 89.6018 16.8907L89.5566 16.2576C89.4361 15.4768 89.0634 14.8286 88.4346 14.3169C87.8059 13.8052 87.0152 13.5512 86.0589 13.5512C85.1026 13.5512 84.3195 13.7938 83.6154 14.2714C82.9151 14.7528 82.3843 15.4161 82.0266 16.2576C81.5786 17.2204 81.2661 18.4524 81.0854 19.9572C80.995 20.7078 80.9498 21.4014 80.9498 22.0345C80.9498 22.6675 80.995 23.2361 81.0854 23.6568C81.236 24.559 81.5936 25.2678 82.1621 25.7795C82.7307 26.2913 83.4912 26.5452 84.4475 26.5452C85.4038 26.5452 86.202 26.2988 86.9362 25.8023C87.6666 25.3057 88.2125 24.6386 88.5702 23.7933L88.6605 23.5658C88.6906 23.4445 88.8036 23.3043 88.9956 23.1375C89.1914 22.9707 89.3909 22.9063 89.6018 22.9328L94.0821 23.653C94.2892 23.7137 94.4398 23.8198 94.5301 23.9676C94.6205 24.1193 94.6356 24.2974 94.5753 24.5097C94.5452 24.8092 94.4247 25.1579 94.2177 25.5483C93.3517 27.5649 91.9775 29.1418 90.095 30.2865C88.2125 31.4313 86.1229 31.9998 83.8225 31.9998C81.5221 31.9998 79.5944 31.3971 78.0432 30.1955" fill="#1B2D58"/>
<path d="M111.739 13.2028H107.839C107.688 13.2028 107.586 13.2938 107.526 13.4719L106.302 23.5624C106.272 23.7443 106.257 24.0135 106.257 24.3736C106.257 25.7571 106.973 26.4508 108.407 26.4508H109.616C110.124 26.4508 110.346 26.7048 110.29 27.2165L109.796 31.098C109.766 31.3103 109.676 31.4885 109.529 31.6401C109.378 31.7917 109.198 31.8827 108.991 31.9092C107.854 31.9699 107.048 32.0002 106.57 32.0002C104.36 32.0002 102.707 31.6628 101.619 30.9843C100.527 30.3058 99.9847 29.0511 99.9847 27.2165C99.9847 26.9739 100.015 26.5835 100.075 26.0414L101.611 13.4681C101.671 13.2862 101.596 13.199 101.385 13.199H99.1903C98.682 13.199 98.4599 12.945 98.5164 12.4333L98.9644 8.87018C99.0247 8.35846 99.292 8.10449 99.7701 8.10449H112.36C112.597 8.10449 112.771 8.17272 112.876 8.30918C112.981 8.44564 113.019 8.63138 112.989 8.87398L112.586 12.4371C112.496 12.9488 112.213 13.2028 111.735 13.2028" fill="#1B2D58"/>
<defs>
<linearGradient id="paint0_linear_3324_13614" x1="1.28596" y1="16.0415" x2="14.7496" y2="16.0415" gradientUnits="userSpaceOnUse">
<stop stop-color="#426FB6"/>
<stop offset="1" stop-color="#1F4496"/>
</linearGradient>
<linearGradient id="paint1_linear_3324_13614" x1="102.574" y1="2.96801" x2="109.235" y2="2.96801" gradientUnits="userSpaceOnUse">
<stop stop-color="#426FB6"/>
<stop offset="1" stop-color="#1F4496"/>
</linearGradient>
</defs>
</svg>
