<?xml version="1.0" encoding="utf-8"?>
<!-- Generator: Adobe Illustrator 19.0.0, SVG Export Plug-In . SVG Version: 6.00 Build 0)  -->
<svg version="1.1" id="layer" xmlns="http://www.w3.org/2000/svg" xmlns:xlink="http://www.w3.org/1999/xlink" x="0px" y="0px"
	 viewBox="-153 -46 652 652" style="enable-background:new -153 -46 652 652;" xml:space="preserve">
<style type="text/css">
	.st0{fill:#0C77BD;}
</style>
<path class="st0" d="M284.8,175.7c0,0,20.4-12,53.2-23.8c17.5-6.2,35-9.4,47.5-10.9c-7-2-13.6-3.8-18.5-5.2
	c-15.6-4.3-38.2-9.6-57.1-12.5c-0.8,4.6-3.1,11.9-8.5,22.4C293.9,160.3,284.8,175.7,284.8,175.7z M275.6,192.5
	c-3.7,1.1-16.1,33-22.4,50.6c11.6,8,23.6,15.2,34.8,20c22.4,9.8,29.4,5.8,43.3-0.5c10-4.4,25.6-15,39.2-25
	C353.9,226.9,333,213.7,321,208C298.6,197.3,281,190.9,275.6,192.5z M294.8,121.7c-17.2-1.2-19.8,2.8-23.2,5
	c-8.8,4.8-45.4,26.6-63,42c-16.8,14.6-13.9,23.8-6.1,32.9c6.4,7.4,17.4,16.2,34.7,29.8c0.8,0.6,1.6,1.2,2.4,1.8
	c7-15.4,22-48.7,29.4-64.3C277.7,150.7,289.6,130.5,294.8,121.7z M444.8,160.1c-6-3.1-11.3-4.8-16-6.4c-2.4-0.7-8.5-2.5-16.2-4.8
	c-13.7,1.8-36.4,5.2-58.3,10.4c-22.8,5.4-61,24-61,24s48.4,15.6,93.6,41.9c1.6-1.2,2.9-2.3,4.2-3.4c14-11.5,49.7-41.2,57.4-54
	C450.2,164.7,448.7,162.1,444.8,160.1z"/>
<path d="M-126,261.9h27v58l48.7-58H-17l-55.4,63.6l57.7,71.2H-50l-48.5-62.5h-0.4v62.5H-126V261.9z M-4.3,302.5
	c10.1-4.7,23.5-7.6,34.6-7.6c30.4,0,42.8,12.6,42.8,41.9v12.7c0,10.1,0.2,17.5,0.4,24.8c0.2,7.6,0.6,14.5,1.2,22.2H51.8
	c-1-5.2-1-11.8-1.2-14.9h-0.4c-6,11-19,17.2-30.7,17.2c-17.5,0-34.8-10.6-34.8-29.5c0-14.9,7.2-23.5,17-28.3
	c9.8-4.8,22.6-5.8,33.4-5.8h14.3c0-16.1-7.2-21.5-22.4-21.5c-11,0-22,4.2-30.7,10.8L-4.3,302.5z M26,380.1c7.9,0,14-3.5,18.1-8.9
	c4.2-5.6,5.4-12.7,5.4-20.5H38.4c-11.6,0-28.8,1.9-28.8,17.2C9.6,376.4,16.7,380.1,26,380.1z M150,318.1c-7.9-2.6-13.7-4.2-23.2-4.2
	c-7,0-15.2,2.5-15.2,11c0,15.8,45,5.8,45,41.6c0,23.2-20.6,32.4-41.8,32.4c-9.8,0-19.9-1.8-29.4-4.2l1.6-21.2
	c8.2,4.1,16.6,6.6,25.6,6.6c6.6,0,17-2.5,17-12.1c0-19.4-45-6.2-45-42.1c0-21.5,18.7-30.8,39-30.8c12.1,0,20,1.9,28.2,3.7L150,318.1
	z M250.1,391c-9.5,5.2-20.3,7.9-34.2,7.9c-32.9,0-52-19-52-51.5c0-28.8,15.2-52.6,46.2-52.6c36.8,0,47.3,25.3,47.3,60h-68.8
	c1.2,16,12.4,25.1,28.4,25.1c12.6,0,23.4-4.7,33-10.1V391L250.1,391z M232.7,337.3c-0.7-12.6-6.6-23.4-21-23.4
	c-14.5,0-21.8,10.1-23,23.4H232.7z M309.1,369.8h0.4l23.9-72.6h26.3l-37.3,98.6c-8.3,22-14.3,43.6-41.3,43.6c-6.1,0-12.4-1-18.4-2.6
	l1.7-19.1c3.2,1.2,7,1.7,13.3,1.7c10.4,0,16.8-7.1,16.8-17.8l-38-104.4H285L309.1,369.8z M366.4,302.5c10.1-4.7,23.5-7.6,34.6-7.6
	c30.4,0,42.8,12.6,42.8,41.9v12.7c0,10.1,0.2,17.5,0.4,24.8c0.2,7.6,0.6,14.5,1.2,22.2h-22.8c-1-5.2-1-11.8-1.2-14.9H421
	c-6,11-19,17.2-30.7,17.2c-17.6,0-34.8-10.6-34.8-29.5c0-14.9,7.2-23.5,17-28.3c9.8-4.8,22.6-5.8,33.4-5.8h14.3
	c0-16.1-7.2-21.5-22.4-21.5c-11,0-22.1,4.2-30.7,10.8L366.4,302.5z M396.6,380.1c7.9,0,14-3.5,18.1-8.9c4.2-5.6,5.4-12.7,5.4-20.5
	H409c-11.6,0-28.8,1.9-28.8,17.2C380.2,376.4,387.4,380.1,396.6,380.1z M445.4,299.2c0-7.8,6.4-14.3,14.3-14.3s14.3,6.4,14.3,14.3
	c0,7.9-6.4,14.3-14.3,14.3S445.4,307.1,445.4,299.2z M470.5,299.2c0-6.7-4.8-11.5-10.8-11.5s-10.8,4.8-10.8,11.5
	c0,6.7,4.8,11.5,10.8,11.5C465.7,310.7,470.5,305.9,470.5,299.2z M454.2,291.1h6c3.8,0,6,1.3,6,4.7c0,2.8-1.6,4.1-4.2,4.3l4.3,7.1
	h-3.1l-4.2-7h-1.8v7h-3V291.1z M457.2,298h2.6c1.8,0,3.4-0.2,3.4-2.4c0-1.9-1.8-2.2-3.2-2.2h-2.8V298z"/>
</svg>
