<?xml version="1.0" encoding="UTF-8" standalone="no"?><!DOCTYPE svg PUBLIC "-//W3C//DTD SVG 1.1//EN" "http://www.w3.org/Graphics/SVG/1.1/DTD/svg11.dtd"><svg width="100%" height="100%" viewBox="0 0 2434 411" version="1.1" xmlns="http://www.w3.org/2000/svg" xmlns:xlink="http://www.w3.org/1999/xlink" xml:space="preserve" xmlns:serif="http://www.serif.com/" style="fill-rule:evenodd;clip-rule:evenodd;stroke-linejoin:round;stroke-miterlimit:2;"><rect id="virtual-conference-logo-blue-bg" x="0" y="0" width="2433.38" height="410.417" style="fill:none;"/><path d="M150.006,221.421c43.084,-6.823 67.736,5.589 72.467,38.789c-0,-0 -0.47,1.049 -0.71,1.571c-16.625,36.086 -50.626,63.374 -96.571,63.374c-3.063,-23.613 -12.239,-74.813 20.357,-99.827c0.849,-0.651 1.722,-1.37 2.603,-2.157c0.615,-0.55 1.854,-1.75 1.854,-1.75Z" style="fill:#2addc6;"/><path d="M325.871,221.421c-43.085,-6.823 -67.737,5.589 -72.468,38.789c0,-0 0.47,1.049 0.711,1.571c16.624,36.086 50.626,63.374 96.571,63.374c3.063,-23.613 12.238,-74.813 -20.358,-99.827c-0.849,-0.651 -1.721,-1.37 -2.602,-2.157c-0.616,-0.55 -1.854,-1.75 -1.854,-1.75Z" style="fill:#af32dd;"/><path d="M104.672,105.282c111.196,5.041 136.109,109.489 116.119,158.523c-6.304,-22.961 -30.832,-30.225 -54.725,-28.67c-8.101,0.527 -18.889,1.695 -30.547,0.26c2.792,-3.669 6.109,-7.057 10.03,-10.067c16.686,-12.804 42.555,-51.704 -40.877,-120.046Z" style="fill:#24bb8c;"/><path d="M371.204,105.282c-111.195,5.041 -136.109,109.489 -116.119,158.523c6.305,-22.961 30.833,-30.225 54.726,-28.67c8.1,0.527 18.888,1.695 30.547,0.26c-2.793,-3.669 -6.11,-7.057 -10.031,-10.067c-16.685,-12.804 -42.555,-51.704 40.877,-120.046Z" style="fill:#7809bf;"/><path d="M81.261,87.433c152.74,-4.365 169.485,124.781 139.528,176.372c-3.063,-23.613 -26.348,-34.205 -50.226,-35.975c-29.567,-2.192 -95.829,-0.876 -89.302,-140.397Z" style="fill:#fba02f;"/><path d="M394.616,87.433c-152.741,-4.365 -169.486,124.781 -139.529,176.372c3.063,-23.613 26.349,-34.205 50.226,-35.975c29.567,-2.192 95.829,-0.876 89.303,-140.397Z" style="fill:#f8408c;"/><path d="M585.516,107.295l-20.701,79.409l-23.415,-0l-12.67,-52.261l-13.121,52.261l-23.416,-0l-20.135,-79.409l20.701,-0l11.425,57.803l14.14,-57.803l21.266,-0l13.574,57.803l11.538,-57.803l20.814,-0Z" style="fill:#fff;fill-rule:nonzero;"/><path d="M623.976,187.609c-6.184,-0 -11.745,-1.32 -16.685,-3.959c-4.939,-2.64 -8.823,-6.41 -11.651,-11.312c-2.828,-4.902 -4.242,-10.633 -4.242,-17.194c0,-6.486 1.433,-12.198 4.299,-17.138c2.865,-4.939 6.787,-8.729 11.764,-11.368c4.977,-2.639 10.558,-3.959 16.741,-3.959c6.184,-0 11.765,1.32 16.742,3.959c4.977,2.639 8.899,6.429 11.764,11.368c2.866,4.94 4.299,10.652 4.299,17.138c-0,6.485 -1.452,12.198 -4.355,17.137c-2.904,4.94 -6.863,8.729 -11.878,11.369c-5.015,2.639 -10.614,3.959 -16.798,3.959Zm0,-16.742c3.695,0 6.844,-1.357 9.446,-4.072c2.601,-2.715 3.902,-6.599 3.902,-11.651c0,-5.053 -1.263,-8.937 -3.789,-11.651c-2.527,-2.715 -5.637,-4.073 -9.333,-4.073c-3.77,0 -6.9,1.339 -9.388,4.016c-2.489,2.677 -3.733,6.58 -3.733,11.708c-0,5.052 1.225,8.936 3.676,11.651c2.451,2.715 5.524,4.072 9.219,4.072Z" style="fill:#fff;fill-rule:nonzero;"/><path d="M747.841,122.905c7.843,0 14.083,2.376 18.721,7.127c4.638,4.751 6.957,11.349 6.957,19.795l-0,36.877l-19.23,-0l-0,-34.275c-0,-4.072 -1.075,-7.221 -3.224,-9.445c-2.149,-2.225 -5.109,-3.337 -8.88,-3.337c-3.771,-0 -6.73,1.112 -8.88,3.337c-2.149,2.224 -3.224,5.373 -3.224,9.445l0,34.275l-19.23,-0l0,-34.275c0,-4.072 -1.074,-7.221 -3.224,-9.445c-2.149,-2.225 -5.109,-3.337 -8.879,-3.337c-3.771,-0 -6.731,1.112 -8.88,3.337c-2.15,2.224 -3.224,5.373 -3.224,9.445l-0,34.275l-19.343,-0l-0,-63.12l19.343,-0l-0,7.918c1.961,-2.639 4.525,-4.732 7.692,-6.278c3.167,-1.546 6.749,-2.319 10.746,-2.319c4.751,0 8.993,1.018 12.726,3.054c3.733,2.036 6.655,4.94 8.767,8.71c2.187,-3.469 5.165,-6.297 8.936,-8.484c3.771,-2.186 7.881,-3.28 12.33,-3.28Z" style="fill:#fff;fill-rule:nonzero;"/><path d="M846.593,154.126c0,1.81 -0.113,3.695 -0.339,5.656l-43.777,-0c0.302,3.921 1.565,6.919 3.79,8.993c2.224,2.073 4.958,3.11 8.201,3.11c4.826,0 8.182,-2.036 10.067,-6.108l20.588,-0c-1.056,4.148 -2.96,7.881 -5.713,11.199c-2.752,3.318 -6.202,5.92 -10.35,7.805c-4.148,1.885 -8.785,2.828 -13.913,2.828c-6.184,-0 -11.689,-1.32 -16.516,-3.959c-4.826,-2.64 -8.597,-6.41 -11.312,-11.312c-2.714,-4.902 -4.072,-10.633 -4.072,-17.194c0,-6.561 1.339,-12.292 4.016,-17.194c2.677,-4.902 6.429,-8.673 11.255,-11.312c4.826,-2.639 10.369,-3.959 16.629,-3.959c6.108,-0 11.538,1.282 16.289,3.846c4.751,2.564 8.465,6.221 11.142,10.972c2.677,4.751 4.015,10.294 4.015,16.629Zm-19.795,-5.091c-0,-3.318 -1.131,-5.957 -3.394,-7.918c-2.262,-1.961 -5.09,-2.941 -8.484,-2.941c-3.242,0 -5.976,0.943 -8.201,2.828c-2.224,1.885 -3.601,4.562 -4.129,8.031l24.208,0Z" style="fill:#fff;fill-rule:nonzero;"/><path d="M895.234,122.905c7.391,0 13.292,2.394 17.703,7.183c4.412,4.789 6.618,11.368 6.618,19.739l-0,36.877l-19.23,-0l-0,-34.275c-0,-4.223 -1.094,-7.504 -3.281,-9.841c-2.187,-2.338 -5.128,-3.507 -8.823,-3.507c-3.695,0 -6.636,1.169 -8.823,3.507c-2.187,2.337 -3.281,5.618 -3.281,9.841l0,34.275l-19.343,-0l0,-63.12l19.343,-0l0,8.371c1.961,-2.791 4.601,-4.997 7.919,-6.618c3.318,-1.621 7.051,-2.432 11.198,-2.432Z" style="fill:#fff;fill-rule:nonzero;"/><path d="M946.477,96.209l-1.47,24.999l-13.009,0l-1.471,-24.999l15.95,0Z" style="fill:#fff;fill-rule:nonzero;"/><path d="M983.693,187.609c-5.505,-0 -10.407,-0.943 -14.705,-2.828c-4.299,-1.885 -7.692,-4.468 -10.181,-7.749c-2.489,-3.28 -3.884,-6.957 -4.185,-11.029l19.117,0c0.226,2.187 1.244,3.959 3.054,5.317c1.81,1.357 4.034,2.036 6.674,2.036c2.413,-0 4.28,-0.471 5.599,-1.414c1.32,-0.943 1.98,-2.168 1.98,-3.676c-0,-1.81 -0.943,-3.149 -2.828,-4.016c-1.885,-0.867 -4.94,-1.829 -9.163,-2.885c-4.524,-1.055 -8.295,-2.168 -11.312,-3.337c-3.016,-1.169 -5.618,-3.016 -7.805,-5.542c-2.187,-2.527 -3.28,-5.939 -3.28,-10.238c-0,-3.619 0.999,-6.919 2.997,-9.898c1.999,-2.978 4.94,-5.335 8.824,-7.069c3.883,-1.735 8.502,-2.602 13.857,-2.602c7.918,-0 14.158,1.961 18.721,5.882c4.562,3.921 7.183,9.125 7.862,15.61l-17.873,0c-0.302,-2.187 -1.263,-3.921 -2.885,-5.203c-1.621,-1.282 -3.751,-1.923 -6.391,-1.923c-2.262,-0 -3.997,0.433 -5.203,1.301c-1.207,0.867 -1.81,2.055 -1.81,3.563c-0,1.81 0.961,3.167 2.884,4.072c1.923,0.905 4.921,1.81 8.993,2.715c4.676,1.207 8.484,2.394 11.425,3.563c2.941,1.169 5.524,3.055 7.749,5.656c2.224,2.602 3.374,6.09 3.45,10.464c-0,3.695 -1.037,6.994 -3.111,9.898c-2.074,2.903 -5.052,5.184 -8.936,6.843c-3.884,1.659 -8.39,2.489 -13.518,2.489Z" style="fill:#fff;fill-rule:nonzero;"/><path d="M1093.19,145.981c4.6,0.981 8.295,3.262 11.085,6.844c2.791,3.582 4.186,7.673 4.186,12.273c-0,6.637 -2.319,11.897 -6.957,15.78c-4.638,3.884 -11.104,5.826 -19.4,5.826l-36.99,-0l0,-79.409l35.746,-0c8.069,-0 14.385,1.847 18.947,5.543c4.563,3.695 6.844,8.71 6.844,15.044c-0,4.676 -1.225,8.56 -3.676,11.651c-2.451,3.092 -5.713,5.242 -9.785,6.448Zm-28.732,-6.561l12.669,0c3.167,0 5.599,-0.697 7.296,-2.092c1.697,-1.395 2.545,-3.45 2.545,-6.165c0,-2.715 -0.848,-4.789 -2.545,-6.222c-1.697,-1.433 -4.129,-2.149 -7.296,-2.149l-12.669,-0l-0,16.628Zm14.253,31.674c3.242,-0 5.75,-0.736 7.522,-2.206c1.772,-1.471 2.658,-3.601 2.658,-6.391c0,-2.791 -0.923,-4.978 -2.771,-6.561c-1.848,-1.584 -4.393,-2.376 -7.636,-2.376l-14.026,0l-0,17.534l14.253,-0Z" style="fill:#fff;fill-rule:nonzero;"/><path d="M1181.99,123.584l-0,63.12l-19.343,-0l-0,-8.597c-1.961,2.79 -4.619,5.034 -7.975,6.73c-3.356,1.697 -7.07,2.546 -11.142,2.546c-4.827,-0 -9.088,-1.075 -12.783,-3.224c-3.695,-2.15 -6.561,-5.26 -8.597,-9.333c-2.036,-4.072 -3.054,-8.86 -3.054,-14.366l-0,-36.876l19.23,-0l0,34.275c0,4.223 1.094,7.503 3.281,9.841c2.187,2.338 5.128,3.507 8.823,3.507c3.77,-0 6.749,-1.169 8.936,-3.507c2.187,-2.338 3.281,-5.618 3.281,-9.841l-0,-34.275l19.343,-0Z" style="fill:#fff;fill-rule:nonzero;"/><path d="M1221.58,187.609c-5.505,-0 -10.407,-0.943 -14.705,-2.828c-4.299,-1.885 -7.692,-4.468 -10.181,-7.749c-2.488,-3.28 -3.883,-6.957 -4.185,-11.029l19.117,0c0.226,2.187 1.244,3.959 3.054,5.317c1.81,1.357 4.035,2.036 6.674,2.036c2.413,-0 4.28,-0.471 5.6,-1.414c1.319,-0.943 1.979,-2.168 1.979,-3.676c0,-1.81 -0.943,-3.149 -2.828,-4.016c-1.885,-0.867 -4.939,-1.829 -9.162,-2.885c-4.525,-1.055 -8.296,-2.168 -11.312,-3.337c-3.017,-1.169 -5.619,-3.016 -7.806,-5.542c-2.186,-2.527 -3.28,-5.939 -3.28,-10.238c0,-3.619 0.999,-6.919 2.998,-9.898c1.998,-2.978 4.939,-5.335 8.823,-7.069c3.884,-1.735 8.503,-2.602 13.857,-2.602c7.918,-0 14.159,1.961 18.721,5.882c4.563,3.921 7.183,9.125 7.862,15.61l-17.873,0c-0.302,-2.187 -1.263,-3.921 -2.884,-5.203c-1.622,-1.282 -3.752,-1.923 -6.392,-1.923c-2.262,-0 -3.996,0.433 -5.203,1.301c-1.207,0.867 -1.81,2.055 -1.81,3.563c0,1.81 0.962,3.167 2.885,4.072c1.923,0.905 4.92,1.81 8.992,2.715c4.676,1.207 8.484,2.394 11.425,3.563c2.942,1.169 5.524,3.055 7.749,5.656c2.225,2.602 3.375,6.09 3.45,10.464c0,3.695 -1.037,6.994 -3.111,9.898c-2.073,2.903 -5.052,5.184 -8.936,6.843c-3.884,1.659 -8.39,2.489 -13.518,2.489Z" style="fill:#fff;fill-rule:nonzero;"/><path d="M1268.75,117.023c-3.394,-0 -6.165,-0.999 -8.314,-2.998c-2.15,-1.998 -3.224,-4.468 -3.224,-7.409c-0,-3.017 1.074,-5.524 3.224,-7.522c2.149,-1.999 4.92,-2.998 8.314,-2.998c3.318,-0 6.052,0.999 8.201,2.998c2.149,1.998 3.224,4.505 3.224,7.522c-0,2.941 -1.075,5.411 -3.224,7.409c-2.149,1.999 -4.883,2.998 -8.201,2.998Zm9.615,6.561l-0,63.12l-19.343,-0l-0,-63.12l19.343,-0Z" style="fill:#fff;fill-rule:nonzero;"/><path d="M1330.85,122.905c7.39,0 13.291,2.394 17.703,7.183c4.412,4.789 6.617,11.368 6.617,19.739l0,36.877l-19.23,-0l0,-34.275c0,-4.223 -1.093,-7.504 -3.28,-9.841c-2.187,-2.338 -5.128,-3.507 -8.823,-3.507c-3.696,0 -6.637,1.169 -8.824,3.507c-2.187,2.337 -3.28,5.618 -3.28,9.841l-0,34.275l-19.343,-0l-0,-63.12l19.343,-0l-0,8.371c1.961,-2.791 4.6,-4.997 7.918,-6.618c3.318,-1.621 7.051,-2.432 11.199,-2.432Z" style="fill:#fff;fill-rule:nonzero;"/><path d="M1428.14,154.126c-0,1.81 -0.113,3.695 -0.34,5.656l-43.776,-0c0.301,3.921 1.564,6.919 3.789,8.993c2.225,2.073 4.958,3.11 8.201,3.11c4.827,0 8.182,-2.036 10.068,-6.108l20.587,-0c-1.055,4.148 -2.96,7.881 -5.712,11.199c-2.753,3.318 -6.203,5.92 -10.351,7.805c-4.147,1.885 -8.785,2.828 -13.913,2.828c-6.184,-0 -11.689,-1.32 -16.515,-3.959c-4.827,-2.64 -8.597,-6.41 -11.312,-11.312c-2.715,-4.902 -4.073,-10.633 -4.073,-17.194c0,-6.561 1.339,-12.292 4.016,-17.194c2.677,-4.902 6.429,-8.673 11.255,-11.312c4.827,-2.639 10.37,-3.959 16.629,-3.959c6.108,-0 11.538,1.282 16.289,3.846c4.751,2.564 8.465,6.221 11.142,10.972c2.677,4.751 4.016,10.294 4.016,16.629Zm-19.796,-5.091c0,-3.318 -1.131,-5.957 -3.393,-7.918c-2.263,-1.961 -5.091,-2.941 -8.484,-2.941c-3.243,0 -5.977,0.943 -8.201,2.828c-2.225,1.885 -3.601,4.562 -4.129,8.031l24.207,0Z" style="fill:#fff;fill-rule:nonzero;"/><path d="M1463.99,187.609c-5.505,-0 -10.407,-0.943 -14.705,-2.828c-4.299,-1.885 -7.692,-4.468 -10.181,-7.749c-2.488,-3.28 -3.883,-6.957 -4.185,-11.029l19.117,0c0.226,2.187 1.244,3.959 3.054,5.317c1.81,1.357 4.035,2.036 6.674,2.036c2.413,-0 4.28,-0.471 5.6,-1.414c1.319,-0.943 1.979,-2.168 1.979,-3.676c0,-1.81 -0.943,-3.149 -2.828,-4.016c-1.885,-0.867 -4.939,-1.829 -9.162,-2.885c-4.525,-1.055 -8.296,-2.168 -11.312,-3.337c-3.017,-1.169 -5.619,-3.016 -7.806,-5.542c-2.186,-2.527 -3.28,-5.939 -3.28,-10.238c0,-3.619 0.999,-6.919 2.998,-9.898c1.998,-2.978 4.939,-5.335 8.823,-7.069c3.884,-1.735 8.503,-2.602 13.857,-2.602c7.918,-0 14.159,1.961 18.721,5.882c4.563,3.921 7.183,9.125 7.862,15.61l-17.873,0c-0.302,-2.187 -1.263,-3.921 -2.884,-5.203c-1.622,-1.282 -3.752,-1.923 -6.392,-1.923c-2.262,-0 -3.996,0.433 -5.203,1.301c-1.207,0.867 -1.81,2.055 -1.81,3.563c0,1.81 0.962,3.167 2.885,4.072c1.923,0.905 4.92,1.81 8.992,2.715c4.676,1.207 8.484,2.394 11.425,3.563c2.942,1.169 5.524,3.055 7.749,5.656c2.225,2.602 3.375,6.09 3.45,10.464c0,3.695 -1.037,6.994 -3.111,9.898c-2.073,2.903 -5.052,5.184 -8.936,6.843c-3.884,1.659 -8.39,2.489 -13.518,2.489Z" style="fill:#fff;fill-rule:nonzero;"/><path d="M1527.12,187.609c-5.506,-0 -10.407,-0.943 -14.706,-2.828c-4.298,-1.885 -7.692,-4.468 -10.181,-7.749c-2.488,-3.28 -3.883,-6.957 -4.185,-11.029l19.117,0c0.226,2.187 1.244,3.959 3.054,5.317c1.81,1.357 4.035,2.036 6.674,2.036c2.413,-0 4.28,-0.471 5.6,-1.414c1.319,-0.943 1.979,-2.168 1.979,-3.676c0,-1.81 -0.942,-3.149 -2.828,-4.016c-1.885,-0.867 -4.939,-1.829 -9.162,-2.885c-4.525,-1.055 -8.296,-2.168 -11.312,-3.337c-3.017,-1.169 -5.618,-3.016 -7.805,-5.542c-2.187,-2.527 -3.281,-5.939 -3.281,-10.238c0,-3.619 0.999,-6.919 2.998,-9.898c1.998,-2.978 4.939,-5.335 8.823,-7.069c3.884,-1.735 8.503,-2.602 13.857,-2.602c7.918,-0 14.159,1.961 18.721,5.882c4.563,3.921 7.183,9.125 7.862,15.61l-17.873,0c-0.301,-2.187 -1.263,-3.921 -2.884,-5.203c-1.622,-1.282 -3.752,-1.923 -6.391,-1.923c-2.263,-0 -3.997,0.433 -5.204,1.301c-1.207,0.867 -1.81,2.055 -1.81,3.563c0,1.81 0.962,3.167 2.885,4.072c1.923,0.905 4.92,1.81 8.993,2.715c4.675,1.207 8.483,2.394 11.425,3.563c2.941,1.169 5.524,3.055 7.748,5.656c2.225,2.602 3.375,6.09 3.45,10.464c0,3.695 -1.037,6.994 -3.11,9.898c-2.074,2.903 -5.053,5.184 -8.937,6.843c-3.884,1.659 -8.389,2.489 -13.517,2.489Z" style="fill:#fff;fill-rule:nonzero;"/><path d="M473.98,278.768c-0,-9.979 2.159,-18.879 6.477,-26.699c4.318,-7.82 10.339,-13.914 18.063,-18.279c7.725,-4.366 16.48,-6.549 26.268,-6.549c11.994,-0 22.261,3.166 30.801,9.499c8.54,6.333 14.25,14.969 17.128,25.908l-27.059,-0c-2.015,-4.222 -4.87,-7.437 -8.564,-9.644c-3.694,-2.206 -7.892,-3.31 -12.594,-3.31c-7.58,0 -13.722,2.639 -18.423,7.916c-4.702,5.278 -7.053,12.33 -7.053,21.158c0,8.828 2.351,15.881 7.053,21.158c4.701,5.278 10.843,7.917 18.423,7.917c4.702,-0 8.9,-1.104 12.594,-3.311c3.694,-2.207 6.549,-5.421 8.564,-9.643l27.059,-0c-2.878,10.939 -8.588,19.55 -17.128,25.836c-8.54,6.285 -18.807,9.427 -30.801,9.427c-9.788,0 -18.543,-2.183 -26.268,-6.549c-7.724,-4.366 -13.745,-10.435 -18.063,-18.207c-4.318,-7.773 -6.477,-16.648 -6.477,-26.628Z" style="fill:#f8408c;fill-rule:nonzero;"/><path d="M635.616,330.44c-9.5,-0 -18.208,-2.207 -26.124,-6.621c-7.916,-4.414 -14.201,-10.579 -18.855,-18.495c-4.654,-7.916 -6.981,-16.816 -6.981,-26.7c0,-9.883 2.327,-18.759 6.981,-26.627c4.654,-7.868 10.939,-14.009 18.855,-18.423c7.916,-4.414 16.624,-6.621 26.124,-6.621c9.499,-0 18.207,2.207 26.123,6.621c7.917,4.414 14.154,10.555 18.711,18.423c4.558,7.868 6.837,16.744 6.837,26.627c0,9.884 -2.303,18.784 -6.909,26.7c-4.605,7.916 -10.842,14.081 -18.711,18.495c-7.868,4.414 -16.552,6.621 -26.051,6.621Zm-0,-22.453c8.06,-0 14.513,-2.687 19.358,-8.061c4.846,-5.373 7.269,-12.474 7.269,-21.302c0,-8.923 -2.423,-16.048 -7.269,-21.374c-4.845,-5.325 -11.298,-7.988 -19.358,-7.988c-8.157,0 -14.658,2.639 -19.503,7.916c-4.846,5.278 -7.269,12.427 -7.269,21.446c0,8.924 2.423,16.049 7.269,21.374c4.845,5.326 11.346,7.989 19.503,7.989Z" style="fill:#f8408c;fill-rule:nonzero;"/><path d="M791.35,329.432l-24.612,0l-41.165,-62.322l0,62.322l-24.612,0l-0,-101.04l24.612,0l41.165,62.611l-0,-62.611l24.612,0l0,101.04Z" style="fill:#f8408c;fill-rule:nonzero;"/><path d="M874.975,228.392l-0,19.719l-41.165,-0l0,21.302l30.802,-0l-0,19.143l-30.802,-0l0,40.876l-24.612,0l-0,-101.04l65.777,0Z" style="fill:#f8408c;fill-rule:nonzero;"/><path d="M912.541,248.111l-0,20.438l32.96,0l0,18.999l-32.96,0l-0,22.166l37.278,-0l0,19.718l-61.89,0l-0,-101.04l61.89,0l0,19.719l-37.278,-0Z" style="fill:#f8408c;fill-rule:nonzero;"/><path d="M1017.32,329.432l-21.015,-38.142l-5.901,0l0,38.142l-24.612,0l-0,-101.04l41.308,0c7.965,0 14.753,1.391 20.367,4.174c5.613,2.783 9.811,6.597 12.594,11.443c2.782,4.845 4.174,10.243 4.174,16.192c-0,6.717 -1.895,12.714 -5.685,17.992c-3.791,5.277 -9.38,9.019 -16.769,11.226l23.317,40.013l-27.778,0Zm-26.916,-55.557l15.257,-0c4.51,-0 7.892,-1.104 10.147,-3.311c2.255,-2.207 3.383,-5.325 3.383,-9.355c-0,-3.839 -1.128,-6.861 -3.383,-9.068c-2.255,-2.207 -5.637,-3.311 -10.147,-3.311l-15.257,0l0,25.045Z" style="fill:#f8408c;fill-rule:nonzero;"/><path d="M1084.25,248.111l-0,20.438l32.96,0l0,18.999l-32.96,0l-0,22.166l37.278,-0l0,19.718l-61.89,0l-0,-101.04l61.89,0l0,19.719l-37.278,-0Z" style="fill:#f8408c;fill-rule:nonzero;"/><path d="M1227.9,329.432l-24.612,0l-41.165,-62.322l0,62.322l-24.612,0l-0,-101.04l24.612,0l41.165,62.611l-0,-62.611l24.612,0l0,101.04Z" style="fill:#f8408c;fill-rule:nonzero;"/><path d="M1241.57,278.768c-0,-9.979 2.159,-18.879 6.477,-26.699c4.318,-7.82 10.339,-13.914 18.063,-18.279c7.725,-4.366 16.48,-6.549 26.268,-6.549c11.994,-0 22.261,3.166 30.801,9.499c8.54,6.333 14.25,14.969 17.128,25.908l-27.059,-0c-2.015,-4.222 -4.87,-7.437 -8.564,-9.644c-3.694,-2.206 -7.892,-3.31 -12.594,-3.31c-7.581,0 -13.722,2.639 -18.423,7.916c-4.702,5.278 -7.053,12.33 -7.053,21.158c-0,8.828 2.351,15.881 7.053,21.158c4.701,5.278 10.842,7.917 18.423,7.917c4.702,-0 8.9,-1.104 12.594,-3.311c3.694,-2.207 6.549,-5.421 8.564,-9.643l27.059,-0c-2.878,10.939 -8.588,19.55 -17.128,25.836c-8.54,6.285 -18.807,9.427 -30.801,9.427c-9.788,0 -18.543,-2.183 -26.268,-6.549c-7.724,-4.366 -13.745,-10.435 -18.063,-18.207c-4.318,-7.773 -6.477,-16.648 -6.477,-26.628Z" style="fill:#f8408c;fill-rule:nonzero;"/><path d="M1380.03,248.111l0,20.438l32.961,0l-0,18.999l-32.961,0l0,22.166l37.279,-0l-0,19.718l-61.891,0l0,-101.04l61.891,0l-0,19.719l-37.279,-0Z" style="fill:#f8408c;fill-rule:nonzero;"/><path d="M1541.09,329.432l-9.355,-9.067c-9.308,7.1 -20.438,10.651 -33.392,10.651c-7.773,-0 -14.538,-1.272 -20.295,-3.815c-5.757,-2.542 -10.195,-6.141 -13.314,-10.794c-3.118,-4.654 -4.677,-10.1 -4.677,-16.337c-0,-6.333 1.703,-12.066 5.109,-17.2c3.407,-5.133 8.516,-9.331 15.329,-12.594c-2.495,-3.07 -4.27,-6.021 -5.325,-8.852c-1.056,-2.83 -1.584,-5.925 -1.584,-9.283c0,-4.798 1.248,-9.164 3.743,-13.098c2.494,-3.934 6.117,-7.029 10.866,-9.284c4.75,-2.255 10.388,-3.382 16.912,-3.382c6.621,0 12.235,1.199 16.84,3.598c4.606,2.399 8.061,5.614 10.364,9.644c2.303,4.03 3.358,8.444 3.166,13.242l-23.173,-0c0.096,-2.591 -0.552,-4.582 -1.943,-5.974c-1.391,-1.391 -3.239,-2.087 -5.541,-2.087c-2.303,0 -4.222,0.672 -5.758,2.015c-1.535,1.344 -2.303,3.071 -2.303,5.182c0,2.015 0.648,4.126 1.943,6.333c1.296,2.207 3.335,4.75 6.118,7.628l24.612,24.037c0.192,-0.48 0.456,-1.055 0.792,-1.727c0.335,-0.672 0.695,-1.439 1.079,-2.303l5.326,-9.068l24.612,0l-6.909,12.522c-2.591,5.662 -5.565,11.035 -8.924,16.121l24.325,23.892l-28.643,0Zm-41.596,-18.279c6.429,0 12.138,-1.823 17.128,-5.469l-22.453,-21.734c-6.909,3.55 -10.364,8.348 -10.364,14.393c0,3.646 1.416,6.693 4.246,9.14c2.831,2.447 6.645,3.67 11.443,3.67Z" style="fill:#f8408c;fill-rule:nonzero;"/><path d="M1672.07,311.585l-37.711,-0l-6.045,17.847l-25.764,0l36.559,-101.04l28.499,0l36.559,101.04l-26.052,0l-6.045,-17.847Zm-6.333,-18.999l-12.522,-36.991l-12.379,36.991l24.901,-0Z" style="fill:#f8408c;fill-rule:nonzero;"/><path d="M1854.29,228.392l-26.34,101.04l-29.794,0l-16.12,-66.496l-16.696,66.496l-29.794,0l-25.62,-101.04l26.339,0l14.538,73.549l17.991,-73.549l27.059,0l17.272,73.549l14.681,-73.549l26.484,0Z" style="fill:#f8408c;fill-rule:nonzero;"/><path d="M1929.57,311.585l-37.71,-0l-6.045,17.847l-25.764,0l36.559,-101.04l28.498,0l36.559,101.04l-26.052,0l-6.045,-17.847Zm-6.333,-18.999l-12.522,-36.991l-12.378,36.991l24.9,-0Z" style="fill:#f8408c;fill-rule:nonzero;"/><path d="M2024.27,329.432l-21.015,-38.142l-5.901,0l0,38.142l-24.612,0l-0,-101.04l41.308,0c7.965,0 14.753,1.391 20.367,4.174c5.613,2.783 9.811,6.597 12.594,11.443c2.782,4.845 4.174,10.243 4.174,16.192c-0,6.717 -1.895,12.714 -5.685,17.992c-3.791,5.277 -9.38,9.019 -16.769,11.226l23.317,40.013l-27.778,0Zm-26.916,-55.557l15.257,-0c4.51,-0 7.892,-1.104 10.147,-3.311c2.255,-2.207 3.383,-5.325 3.383,-9.355c-0,-3.839 -1.128,-6.861 -3.383,-9.068c-2.255,-2.207 -5.637,-3.311 -10.147,-3.311l-15.257,0l0,25.045Z" style="fill:#f8408c;fill-rule:nonzero;"/><path d="M2104.44,228.392c10.651,0 19.958,2.111 27.923,6.333c7.964,4.222 14.129,10.147 18.495,17.776c4.366,7.628 6.549,16.432 6.549,26.411c-0,9.884 -2.183,18.663 -6.549,26.34c-4.366,7.676 -10.555,13.625 -18.567,17.847c-8.013,4.222 -17.296,6.333 -27.851,6.333l-37.854,0l-0,-101.04l37.854,0Zm-1.584,79.738c9.308,0 16.553,-2.542 21.734,-7.628c5.182,-5.086 7.773,-12.282 7.773,-21.59c-0,-9.307 -2.591,-16.552 -7.773,-21.734c-5.181,-5.181 -12.426,-7.772 -21.734,-7.772l-11.658,0l-0,58.724l11.658,0Z" style="fill:#f8408c;fill-rule:nonzero;"/><path d="M2207.79,330.44c-7.389,-0 -14.009,-1.2 -19.863,-3.598c-5.853,-2.399 -10.531,-5.95 -14.033,-10.651c-3.502,-4.702 -5.35,-10.363 -5.541,-16.984l26.195,-0c0.384,3.742 1.679,6.597 3.886,8.564c2.207,1.967 5.086,2.95 8.636,2.95c3.647,0 6.525,-0.839 8.636,-2.519c2.111,-1.679 3.167,-4.006 3.167,-6.98c-0,-2.495 -0.84,-4.558 -2.519,-6.189c-1.679,-1.632 -3.742,-2.975 -6.189,-4.03c-2.447,-1.056 -5.925,-2.255 -10.435,-3.599c-6.525,-2.015 -11.851,-4.03 -15.977,-6.045c-4.126,-2.015 -7.676,-4.99 -10.651,-8.924c-2.974,-3.934 -4.462,-9.067 -4.462,-15.4c0,-9.404 3.407,-16.769 10.22,-22.094c6.812,-5.326 15.688,-7.988 26.627,-7.988c11.131,-0 20.103,2.662 26.915,7.988c6.813,5.325 10.459,12.738 10.939,22.237l-26.627,0c-0.192,-3.262 -1.392,-5.829 -3.599,-7.7c-2.207,-1.871 -5.037,-2.807 -8.492,-2.807c-2.974,0 -5.373,0.792 -7.196,2.375c-1.823,1.584 -2.735,3.863 -2.735,6.837c0,3.263 1.535,5.805 4.606,7.629c3.071,1.823 7.868,3.79 14.393,5.901c6.525,2.207 11.827,4.318 15.905,6.333c4.078,2.015 7.604,4.941 10.579,8.78c2.974,3.838 4.462,8.779 4.462,14.825c-0,5.757 -1.464,10.986 -4.39,15.688c-2.927,4.702 -7.173,8.444 -12.738,11.227c-5.566,2.783 -12.139,4.174 -19.719,4.174Z" style="fill:#f8408c;fill-rule:nonzero;"/></svg>